{"glyphs":{"0":{"ha":802,"x_min":47,"x_max":737,"o":"m 421 583 q 290 473 336 583 q 243 211 243 364 q 274 86 243 127 q 363 45 304 45 q 494 149 448 45 q 541 417 541 253 q 511 542 541 500 q 421 583 480 583 m 429 644 q 653 573 569 644 q 737 373 737 503 q 634 86 737 189 q 356 -17 532 -17 q 132 54 217 -17 q 47 254 47 124 q 149 540 47 436 q 429 644 250 644 z "},"1":{"ha":507,"x_min":-8,"x_max":431,"o":"m 72 566 l 75 600 q 244 621 159 610 q 418 644 330 632 l 423 639 q 368 394 393 517 l 336 227 q 321 147 328 182 q 310 83 315 111 q 324 58 307 63 l 431 31 l 427 -2 q 308 0 366 -1 q 203 0 250 0 q 104 0 154 0 q -8 -2 54 -1 l -5 31 l 102 58 q 124 80 121 63 q 149 202 135 135 l 170 311 q 193 439 183 380 q 212 552 203 499 l 72 566 z "},"2":{"ha":673,"x_min":-15,"x_max":619,"o":"m 579 235 l 619 241 l 561 3 l 555 -2 q 264 0 431 0 q -15 -2 58 0 l -4 81 q 98 140 47 111 q 193 197 148 169 q 276 253 238 225 q 341 309 314 280 q 385 367 369 337 q 400 429 400 397 q 364 516 400 486 q 267 547 328 547 q 119 504 201 547 l 96 557 q 363 644 228 644 q 530 594 468 644 q 592 469 592 543 q 565 366 592 409 q 485 286 537 323 q 357 213 433 249 q 187 134 282 178 l 187 130 l 511 130 l 579 235 z "},"3":{"ha":634,"x_min":-102,"x_max":574,"o":"m 96 226 q 299 288 225 239 q 373 425 373 336 q 335 518 373 483 q 235 553 297 553 q 73 502 159 553 l 52 555 q 334 644 182 644 q 508 593 441 644 q 574 463 574 543 q 503 322 574 379 q 300 233 433 266 l 300 229 q 315 231 311 231 q 489 178 423 231 q 554 39 554 125 q 531 -67 554 -18 q 467 -154 509 -115 q 365 -222 425 -193 q 233 -272 306 -252 q 75 -301 160 -292 q -102 -312 -9 -311 l -96 -252 q 104 -223 20 -245 q 242 -165 188 -201 q 323 -83 297 -130 q 349 19 349 -37 q 300 133 349 91 q 176 174 252 174 q 87 165 135 174 l 96 226 z "},"4":{"ha":727,"x_min":-37,"x_max":681,"o":"m 352 98 l 396 334 l 583 345 l 536 98 l 681 98 l 663 -5 q 516 -3 590 -3 l 503 -79 q 486 -168 495 -120 q 469 -271 477 -216 q 283 -289 373 -278 l 278 -283 q 317 -90 300 -178 l 332 -3 l 178 -3 q -37 -5 45 -3 l -25 75 q 501 640 230 369 l 640 644 l 642 636 q 100 98 384 413 l 352 98 z "},"5":{"ha":649,"x_min":-61,"x_max":631,"o":"m -61 -311 l -54 -252 q 122 -227 44 -249 q 255 -171 201 -205 q 339 -90 310 -136 q 368 9 368 -43 q 62 214 368 204 l 59 219 l 174 629 q 412 627 259 627 q 629 629 532 627 l 631 624 l 580 465 l 209 475 l 176 364 q 475 272 374 350 q 576 68 576 194 q 553 -43 576 8 q 490 -136 531 -94 q 391 -211 449 -178 q 263 -266 334 -243 q 110 -299 192 -288 q -61 -311 28 -311 z "},"6":{"ha":762,"x_min":39,"x_max":755,"o":"m 517 319 q 484 444 516 399 q 392 488 451 488 q 270 417 318 488 q 222 237 222 347 q 254 98 222 149 q 343 47 286 47 q 468 122 418 47 q 517 319 517 198 m 713 342 q 608 81 713 180 q 346 -18 503 -18 q 119 61 199 -18 q 39 283 39 140 q 233 739 39 550 q 752 945 426 928 l 755 883 q 271 491 395 840 l 273 490 q 480 579 357 579 q 646 517 580 579 q 713 342 713 454 z "},"7":{"ha":656,"x_min":9,"x_max":692,"o":"m 9 -273 l 536 451 l 136 451 l 68 313 l 24 308 l 73 624 l 78 629 q 376 627 193 627 l 414 627 q 692 629 603 627 l 675 526 q 189 -271 382 126 l 12 -278 l 9 -273 z "},"8":{"ha":743,"x_min":18,"x_max":739,"o":"m 255 465 q 151 665 151 548 q 240 853 151 775 q 471 930 330 930 q 666 876 593 930 q 739 737 739 822 q 687 614 739 668 q 534 517 635 559 q 660 403 620 459 q 700 278 700 347 q 591 68 700 153 q 329 -18 483 -18 q 101 46 184 -18 q 18 214 18 109 q 77 356 18 296 q 255 465 135 415 m 306 426 q 199 224 199 370 q 240 94 199 141 q 349 47 281 47 q 459 87 415 47 q 503 193 503 127 q 461 305 503 255 q 306 426 418 355 m 477 555 q 570 728 570 606 q 538 831 570 795 q 449 868 505 868 q 358 834 393 868 q 323 743 323 800 q 359 650 323 694 q 477 555 396 607 z "},"9":{"ha":759,"x_min":-1,"x_max":715,"o":"m 237 307 q 270 182 237 227 q 360 138 303 138 q 481 204 430 138 q 532 389 532 269 q 500 528 532 477 q 411 579 469 579 q 286 503 336 579 q 237 307 237 427 m 41 286 q 147 544 41 444 q 408 644 252 644 q 635 565 555 644 q 715 342 715 487 q 526 -109 715 83 q 2 -319 338 -300 l -1 -257 q 484 135 358 -215 l 481 136 q 274 47 398 47 q 109 109 176 47 q 41 286 41 171 z "},"\u0000":{"ha":0,"x_min":0,"x_max":0,"o":""},"\r":{"ha":0,"x_min":0,"x_max":0,"o":""}," ":{"ha":319,"x_min":0,"x_max":0,"o":""},"A":{"ha":927,"x_min":-99,"x_max":890,"o":"m 220 34 l 214 -2 q 45 0 121 0 q -99 -2 -31 0 l -95 33 l -20 54 q 31 86 13 65 q 62 130 49 107 l 549 952 l 624 964 l 766 140 q 774 101 770 117 q 784 76 779 85 q 819 52 795 58 l 890 33 l 886 -2 q 677 0 775 0 q 463 -2 581 0 l 467 33 l 532 52 q 556 64 547 56 q 565 93 565 71 q 555 174 565 114 l 534 300 l 253 300 l 182 176 q 146 111 160 138 q 133 73 133 85 q 156 52 133 60 l 220 34 m 292 370 l 523 370 l 483 620 l 474 692 l 435 621 l 292 370 z "},"B":{"ha":882,"x_min":3,"x_max":862,"o":"m 176 949 q 385 947 292 947 q 472 950 414 947 q 555 954 531 954 q 784 901 707 954 q 862 760 862 849 q 621 513 862 561 q 823 302 823 458 q 704 76 823 155 q 389 -4 585 -4 q 309 -2 353 -4 q 199 0 264 0 q 3 -2 113 0 l 6 33 l 98 58 q 121 79 116 63 q 133 139 126 106 q 148 214 140 173 l 251 753 q 262 815 258 787 q 271 865 267 843 q 259 888 274 882 l 170 915 l 176 949 m 397 471 l 320 67 q 399 58 350 58 q 553 117 498 58 q 607 290 607 176 q 568 427 607 379 q 454 474 528 474 q 397 471 422 474 m 410 534 q 460 532 433 532 q 606 584 557 532 q 655 741 655 636 q 621 851 655 812 q 519 889 587 889 q 476 886 498 889 l 410 534 z "},"C":{"ha":920,"x_min":79,"x_max":954,"o":"m 871 693 l 833 687 l 812 882 q 703 898 766 898 q 411 751 528 898 q 295 397 295 604 q 380 155 295 243 q 614 67 466 67 q 807 108 707 67 l 821 68 q 503 -20 675 -20 q 194 89 310 -20 q 79 381 79 199 q 259 801 79 637 q 713 965 440 965 q 951 937 831 965 l 954 930 l 871 693 z "},"D":{"ha":1103,"x_min":3,"x_max":1064,"o":"m 200 0 q 3 -2 99 0 l 7 33 l 98 58 q 121 79 119 63 q 134 139 127 106 q 149 214 140 173 l 251 753 q 262 815 258 787 q 271 865 267 843 q 259 888 274 882 l 170 915 l 176 949 q 382 947 279 947 q 490 950 425 947 q 604 954 554 954 q 943 861 821 954 q 1064 588 1064 769 q 886 162 1064 328 q 421 -4 707 -4 q 326 -2 369 -4 q 200 0 282 0 m 321 67 q 418 59 372 59 q 735 203 619 59 q 850 589 850 348 q 788 815 850 742 q 595 888 725 888 q 477 882 545 888 l 321 67 z "},"E":{"ha":829,"x_min":2,"x_max":865,"o":"m 385 947 l 517 947 q 862 949 680 947 l 865 944 l 787 718 l 749 713 l 730 878 l 476 878 l 408 517 l 437 517 q 572 517 486 517 q 599 536 591 518 l 641 629 l 683 630 q 627 341 649 482 l 585 338 l 577 432 q 560 450 576 450 q 422 452 500 452 l 394 452 l 350 220 q 323 70 336 144 l 600 70 l 713 250 l 756 256 l 698 3 l 692 -2 q 351 0 511 0 l 200 0 q 2 -2 98 0 l 6 33 l 98 58 q 121 79 116 62 q 133 139 126 106 q 148 214 140 173 l 251 753 q 262 815 258 787 q 271 865 267 843 q 259 888 274 883 l 170 915 l 175 949 q 385 947 278 947 z "},"F":{"ha":774,"x_min":2,"x_max":867,"o":"m 349 214 q 334 140 340 173 q 324 79 328 106 q 343 56 322 62 l 433 33 l 427 -2 q 206 0 305 0 q 2 -2 98 0 l 6 33 l 98 58 q 121 79 116 62 q 133 139 126 106 q 148 214 140 173 l 251 753 q 262 815 258 787 q 271 865 267 843 q 259 888 274 883 l 170 915 l 175 949 q 385 947 278 947 l 519 947 q 863 949 681 947 l 867 944 l 789 718 l 751 713 l 732 878 l 476 878 l 405 502 l 439 502 q 574 503 488 502 q 601 521 593 503 l 643 614 l 685 615 q 629 326 651 467 l 587 323 l 579 417 q 562 435 578 435 q 425 437 503 437 l 391 437 l 349 214 z "},"G":{"ha":1010,"x_min":77,"x_max":984,"o":"m 892 699 l 853 694 l 834 880 q 701 899 779 899 q 407 752 521 899 q 293 399 293 604 q 368 145 293 245 q 566 45 444 45 q 624 50 595 45 l 658 231 q 670 293 665 265 q 679 343 675 320 q 667 366 682 361 l 585 393 l 589 422 q 696 420 645 420 q 795 419 747 419 q 892 420 845 419 q 984 422 939 420 l 981 393 l 907 370 q 884 350 887 365 q 873 295 878 323 q 861 233 867 267 l 819 18 l 814 14 q 540 -20 669 -20 q 200 84 323 -20 q 77 376 77 189 q 259 801 77 637 q 728 965 440 965 q 969 937 835 965 l 972 931 l 892 699 z "},"H":{"ha":1149,"x_min":3,"x_max":1211,"o":"m 397 465 l 349 214 q 326 79 334 134 q 339 56 323 61 l 418 33 l 412 -2 q 215 0 304 0 q 3 -2 115 0 l 7 33 l 98 58 q 121 79 118 63 q 149 213 134 133 l 251 752 q 271 865 264 820 q 259 888 274 883 l 170 915 l 176 949 q 392 947 295 947 q 590 949 484 947 l 586 914 l 498 890 q 476 869 480 886 q 452 755 465 821 l 411 537 l 819 537 l 861 755 q 882 870 873 821 q 868 891 884 887 l 789 915 l 795 949 q 996 947 905 947 q 1211 949 1095 947 l 1206 915 l 1105 888 q 1084 865 1088 883 q 1061 753 1074 821 l 959 214 q 935 79 945 134 q 949 58 933 63 l 1036 33 l 1030 -2 q 812 0 909 0 q 618 -2 720 0 l 623 33 l 709 56 q 731 79 727 61 q 758 214 743 134 l 806 465 l 397 465 z "},"I":{"ha":540,"x_min":3,"x_max":595,"o":"m 349 214 q 334 140 340 173 q 324 79 328 106 q 343 56 322 62 l 426 33 l 420 -2 q 212 0 305 0 q 3 -2 111 0 l 6 33 l 98 58 q 121 79 117 63 q 133 139 127 105 q 148 214 140 173 l 252 753 q 263 815 258 787 q 271 865 268 843 q 260 888 275 884 l 171 915 l 177 949 q 288 947 235 948 q 389 947 340 947 q 489 947 438 947 q 595 949 540 948 l 590 915 l 497 890 q 476 869 480 886 q 465 817 470 845 q 452 755 459 789 l 349 214 z "},"J":{"ha":503,"x_min":-150,"x_max":583,"o":"m 166 949 q 275 947 224 948 q 372 947 327 947 q 476 947 424 947 q 583 949 528 948 l 579 915 l 486 890 q 465 869 469 886 q 453 817 459 845 q 441 755 448 789 l 330 163 q 202 -139 292 -34 q -140 -295 111 -245 l -150 -252 q 41 -110 -11 -190 q 120 117 92 -29 l 241 753 q 252 815 247 787 q 260 865 257 843 q 248 888 264 883 l 159 915 l 166 949 z "},"K":{"ha":1032,"x_min":3,"x_max":1080,"o":"m 412 475 l 741 779 q 808 846 786 821 q 829 884 829 871 q 815 898 829 894 l 762 913 l 767 949 q 922 947 838 947 q 1080 949 1008 947 l 1076 915 l 1006 893 q 951 868 977 884 q 884 812 925 851 l 594 541 l 823 130 q 862 74 844 92 q 910 47 879 56 l 963 33 l 958 -2 q 793 0 878 0 q 665 -1 730 0 q 635 68 658 23 q 575 182 613 114 l 412 475 m 349 214 q 334 140 340 173 q 324 79 328 106 q 343 56 322 62 l 419 33 l 414 -2 q 212 0 304 0 q 3 -2 111 0 l 6 33 l 98 58 q 121 79 117 62 q 133 139 127 105 q 148 214 140 173 l 252 753 q 263 815 258 787 q 271 865 268 843 q 260 888 274 884 l 171 915 l 177 949 q 389 947 286 947 q 588 949 492 947 l 583 915 l 497 890 q 476 869 480 886 q 465 817 470 845 q 452 755 459 789 l 349 214 z "},"L":{"ha":798,"x_min":3,"x_max":762,"o":"m 452 755 l 350 219 q 323 70 336 144 l 595 70 l 719 264 l 762 271 l 700 3 l 695 -2 q 385 0 541 0 l 213 0 q 3 -2 112 0 l 7 33 l 98 58 q 121 79 117 62 q 134 139 127 106 q 149 214 140 173 l 251 753 q 262 815 258 787 q 271 865 267 843 q 259 888 274 883 l 170 915 l 176 949 q 390 947 292 947 q 594 949 486 947 l 589 915 l 496 890 q 475 869 479 886 q 460 800 469 845 q 452 755 452 754 z "},"M":{"ha":1293,"x_min":-17,"x_max":1350,"o":"m 1025 949 q 1167 947 1103 947 q 1350 949 1234 947 l 1345 915 l 1249 888 q 1227 865 1232 883 q 1204 753 1217 821 l 1102 214 q 1078 79 1087 134 q 1092 58 1076 63 l 1177 33 l 1171 -2 q 958 0 1055 0 q 766 -2 860 0 l 770 33 l 851 56 q 873 80 869 61 q 900 214 885 134 l 1007 760 l 549 0 l 485 -5 l 321 754 l 218 214 q 195 80 203 134 q 208 56 191 61 l 286 33 l 280 -2 q 133 0 189 0 q -17 -2 82 0 l -13 33 l 81 58 q 104 79 101 63 q 132 214 117 134 l 234 753 q 254 865 247 821 q 242 888 257 883 l 156 915 l 161 949 q 342 947 279 947 q 477 949 412 947 l 606 357 q 621 279 614 317 q 663 351 642 315 l 1025 949 z "},"N":{"ha":1000,"x_min":-14,"x_max":1084,"o":"m 156 915 l 161 949 q 244 947 208 948 q 305 947 280 947 q 338 947 322 947 q 372 949 355 948 l 724 372 q 765 297 743 336 l 783 397 l 851 756 q 863 818 858 789 q 871 869 868 846 q 858 890 873 884 l 775 913 l 781 949 q 865 947 827 948 q 932 947 903 947 q 1000 947 962 947 q 1084 949 1037 948 l 1080 915 l 983 888 q 962 866 966 883 q 951 816 957 844 q 939 753 945 788 l 795 0 l 722 -7 l 347 606 q 307 681 330 637 q 298 631 302 654 q 290 586 294 607 l 221 213 q 208 139 214 172 q 197 81 202 106 q 210 57 194 61 l 292 33 l 288 -2 q 139 0 197 0 q -14 -2 80 0 l -12 32 l 85 57 q 106 78 103 62 q 119 139 113 106 q 134 213 126 172 l 234 753 q 245 816 240 788 q 254 866 250 844 q 241 888 256 883 l 156 915 z "},"O":{"ha":1139,"x_min":79,"x_max":1105,"o":"m 518 -24 q 199 82 319 -24 q 79 375 79 188 q 247 797 79 625 q 665 968 416 968 q 985 863 864 968 q 1105 570 1105 758 q 937 147 1105 318 q 518 -24 768 -24 m 886 592 q 821 821 886 739 q 646 904 756 904 q 391 747 485 904 q 297 353 297 590 q 361 124 297 208 q 538 41 426 41 q 792 197 699 41 q 886 592 886 353 z "},"P":{"ha":856,"x_min":3,"x_max":889,"o":"m 397 463 q 459 454 421 454 q 617 519 559 454 q 676 705 676 585 q 634 838 676 790 q 524 886 592 886 q 477 881 500 886 l 397 463 m 7 33 l 98 58 q 121 79 118 63 q 134 139 127 106 q 149 214 140 173 l 251 753 q 262 815 258 787 q 271 865 267 843 q 259 888 273 882 l 170 915 l 176 949 q 278 947 227 948 q 380 947 329 947 q 469 949 421 947 q 545 952 516 952 q 798 891 707 952 q 889 709 889 829 q 772 477 889 563 q 482 391 656 391 q 385 399 431 391 l 349 214 q 336 140 342 173 q 326 81 330 106 q 339 60 323 65 l 437 33 l 431 -2 q 208 0 303 0 q 3 -2 111 0 l 7 33 z "},"Q":{"ha":1139,"x_min":79,"x_max":1105,"o":"m 1000 -123 l 1010 -163 q 752 -309 842 -309 q 456 -21 509 -309 q 186 94 294 -7 q 79 375 79 196 q 247 797 79 625 q 665 968 416 968 q 985 863 864 968 q 1105 570 1105 758 q 946 157 1105 323 q 565 -22 787 -8 q 825 -161 606 -155 q 1000 -123 919 -161 m 886 592 q 821 821 886 739 q 646 904 756 904 q 391 747 485 904 q 297 353 297 590 q 361 124 297 208 q 538 41 426 41 q 792 197 699 41 q 886 592 886 353 z "},"R":{"ha":954,"x_min":3,"x_max":913,"o":"m 176 949 q 286 947 231 948 q 385 947 341 947 q 464 950 406 947 q 549 953 522 953 q 794 899 711 953 q 876 739 876 846 q 628 467 876 545 q 647 427 637 449 q 665 388 657 406 q 680 351 672 370 q 695 313 688 332 q 724 242 709 277 q 754 172 739 208 q 780 117 767 141 q 811 75 793 93 q 852 46 828 58 q 913 30 877 35 l 909 -5 q 796 -11 850 -11 q 711 -6 747 -11 q 648 13 675 -1 q 601 52 621 26 q 564 117 581 77 q 539 178 551 147 q 515 244 527 210 q 487 324 502 281 q 454 408 471 367 q 444 429 450 420 q 422 439 437 437 l 392 441 l 349 214 q 335 140 341 173 q 325 81 329 108 q 338 55 322 60 l 415 33 l 410 -2 q 309 0 359 -1 q 211 0 259 0 q 107 0 161 0 q 3 -2 54 -1 l 6 33 l 98 58 q 121 79 115 62 q 133 139 126 106 q 148 214 140 173 l 252 753 q 263 815 258 787 q 271 865 268 842 q 260 888 274 884 l 171 915 l 176 949 m 404 500 q 432 498 417 498 q 660 724 660 498 q 623 846 660 804 q 515 888 585 888 q 477 884 495 888 l 404 500 z "},"S":{"ha":758,"x_min":25,"x_max":774,"o":"m 638 886 q 542 900 593 900 q 382 855 446 900 q 320 732 319 810 q 337 669 321 696 q 377 621 353 642 q 433 582 402 600 q 496 546 464 564 q 573 498 536 523 q 639 442 610 473 q 685 371 667 411 q 702 279 702 332 q 578 57 702 136 q 271 -22 454 -22 q 28 14 154 -22 l 25 20 l 97 267 l 140 273 l 159 64 q 273 45 212 45 q 440 92 373 45 q 507 217 507 138 q 492 282 507 254 q 451 332 476 310 q 395 371 426 353 q 332 406 363 388 q 261 447 298 425 q 196 501 225 470 q 148 573 166 532 q 129 671 129 614 q 242 887 129 810 q 543 965 355 965 q 772 935 660 965 l 774 928 l 699 709 l 660 703 l 638 886 z "},"T":{"ha":859,"x_min":103,"x_max":969,"o":"m 239 878 l 142 696 l 103 690 l 131 944 l 137 949 q 300 947 222 948 q 454 947 378 947 l 641 947 q 800 947 719 947 q 966 949 881 948 l 969 944 l 880 696 l 842 690 l 833 878 l 635 878 l 509 216 q 495 142 501 176 q 484 82 488 109 q 503 59 482 65 l 595 33 l 590 -2 q 371 0 465 0 q 153 -2 271 0 l 155 33 l 258 60 q 281 81 277 65 q 294 142 287 108 q 308 216 300 176 l 435 878 l 239 878 z "},"U":{"ha":1019,"x_min":144,"x_max":1101,"o":"m 150 949 q 257 947 208 948 q 354 947 307 947 q 453 947 403 947 q 555 949 503 948 l 551 915 l 467 890 q 448 869 452 886 q 438 817 443 845 q 427 755 433 789 l 361 405 q 345 264 345 321 q 392 111 345 164 q 530 58 439 58 q 635 81 592 58 q 709 146 679 105 q 757 242 739 186 q 789 360 776 297 l 863 755 q 874 817 869 789 q 883 869 879 845 q 869 890 885 886 l 785 913 l 791 949 q 878 947 840 948 q 947 947 916 947 q 1016 947 978 947 q 1101 949 1054 948 l 1097 915 l 1002 888 q 981 865 985 884 q 971 815 977 843 q 959 753 966 787 l 893 410 q 843 227 873 307 q 767 91 814 146 q 650 6 720 35 q 480 -22 581 -22 q 232 53 320 -22 q 144 275 144 129 q 157 393 144 330 l 225 753 q 237 815 232 787 q 245 865 241 843 q 233 888 249 883 l 144 915 l 150 949 z "},"V":{"ha":921,"x_min":90,"x_max":1075,"o":"m 508 269 l 794 770 q 829 836 816 809 q 843 873 843 862 q 820 895 843 887 l 756 913 l 762 949 q 930 947 854 947 q 1075 949 1006 947 l 1071 914 l 996 893 q 945 861 963 882 q 913 817 927 840 l 429 -3 l 357 -8 l 215 807 q 207 846 211 830 q 197 871 202 862 q 162 895 186 888 l 90 914 l 95 949 q 304 947 205 947 q 517 949 399 947 l 513 914 l 448 895 q 424 883 433 890 q 415 854 415 876 q 425 772 415 833 l 508 269 z "},"W":{"ha":1339,"x_min":87,"x_max":1487,"o":"m 1173 949 q 1259 947 1219 947 q 1337 947 1298 947 q 1414 947 1375 947 q 1487 949 1452 947 l 1482 914 l 1407 893 q 1378 880 1390 888 q 1357 862 1366 872 q 1340 840 1348 852 q 1327 817 1333 829 l 896 -1 l 813 -8 l 740 543 l 732 623 l 691 543 l 398 -1 l 319 -8 l 211 807 q 206 841 208 826 q 198 866 203 855 q 184 884 193 877 q 159 895 175 891 l 87 914 l 92 949 q 201 947 147 947 q 304 947 254 947 q 515 949 397 947 l 512 914 l 446 895 q 423 883 432 890 q 414 854 414 876 q 416 823 414 843 q 421 772 418 802 l 469 387 l 477 301 l 521 387 l 822 950 l 891 956 l 962 388 l 970 301 l 1013 388 l 1208 770 q 1241 836 1228 810 q 1253 873 1253 862 q 1230 895 1253 888 l 1166 913 l 1173 949 z "},"X":{"ha":930,"x_min":-62,"x_max":1012,"o":"m -59 33 l 14 54 q 63 80 41 62 q 108 126 84 98 l 401 463 l 231 830 q 219 854 224 844 q 206 873 213 865 q 190 887 199 882 q 169 897 181 893 l 105 915 l 111 949 q 208 947 157 948 q 319 947 260 947 q 424 947 372 947 q 533 949 476 948 l 530 915 l 471 898 q 438 863 438 889 q 463 789 438 840 l 552 597 l 727 802 q 750 831 741 819 q 764 850 759 842 q 770 864 768 859 q 771 875 771 869 q 749 897 771 890 l 692 913 l 697 949 q 777 947 736 948 q 860 947 817 947 q 939 947 901 947 q 1012 949 977 948 l 1008 915 l 935 893 q 881 863 903 884 q 834 812 859 842 l 585 527 l 771 128 q 786 98 779 111 q 799 76 792 85 q 815 61 806 66 q 838 51 824 55 l 902 33 l 897 -2 q 703 0 806 0 q 473 -2 597 0 l 477 33 l 538 50 q 568 87 568 58 q 543 159 568 106 l 434 393 l 221 144 q 199 117 208 128 q 186 98 191 106 q 179 84 181 90 q 178 73 178 79 q 203 50 178 57 l 256 34 l 250 -2 q 87 0 172 0 q -62 -2 13 0 l -59 33 z "},"Y":{"ha":855,"x_min":71,"x_max":1010,"o":"m 715 774 q 756 832 739 806 q 774 873 774 859 q 749 897 774 890 l 689 913 l 694 949 q 856 947 776 947 q 1010 949 932 947 l 1006 915 l 926 893 q 884 869 900 886 q 850 829 868 853 l 559 434 l 517 214 q 503 140 509 173 q 492 79 497 106 q 511 56 490 62 l 594 33 l 588 -2 q 376 0 473 0 q 172 -2 279 0 l 175 33 l 267 58 q 290 79 285 62 q 302 139 295 106 q 317 214 309 173 l 357 426 l 206 810 q 176 870 189 852 q 139 896 164 888 l 71 915 l 74 949 q 281 947 157 947 q 498 949 380 947 l 497 915 l 429 897 q 406 886 414 894 q 397 863 397 878 q 420 789 397 845 l 526 511 l 715 774 z "},"Z":{"ha":833,"x_min":-15,"x_max":892,"o":"m -15 -2 l -12 32 l 631 878 l 292 878 l 218 713 l 179 708 l 183 944 l 189 949 q 511 947 361 947 l 683 947 q 892 949 793 947 l 888 915 l 245 70 l 608 70 l 734 268 l 775 274 l 711 3 l 707 -2 q 352 0 501 0 l 163 0 q -15 -2 68 0 z "},"À":{"ha":927,"x_min":-99,"x_max":890,"o":"m 220 34 l 214 -2 q 45 0 121 0 q -99 -2 -31 0 l -95 33 l -20 54 q 31 86 13 65 q 62 130 49 107 l 549 952 l 624 964 l 766 140 q 774 101 770 117 q 784 76 779 85 q 819 52 795 58 l 890 33 l 886 -2 q 677 0 775 0 q 463 -2 581 0 l 467 33 l 532 52 q 556 64 547 56 q 565 93 565 71 q 555 174 565 114 l 534 300 l 253 300 l 182 176 q 146 111 160 138 q 133 73 133 85 q 156 52 133 60 l 220 34 m 292 370 l 523 370 l 483 620 l 474 692 l 435 621 l 292 370 m 399 1127 l 505 1221 l 728 1034 l 707 999 l 399 1117 l 399 1127 m 176 949 z "},"Á":{"ha":927,"x_min":-99,"x_max":890,"o":"m 220 34 l 214 -2 q 45 0 121 0 q -99 -2 -31 0 l -95 33 l -20 54 q 31 86 13 65 q 62 130 49 107 l 549 952 l 624 964 l 766 140 q 774 101 770 117 q 784 76 779 85 q 819 52 795 58 l 890 33 l 886 -2 q 677 0 775 0 q 463 -2 581 0 l 467 33 l 532 52 q 556 64 547 56 q 565 93 565 71 q 555 174 565 114 l 534 300 l 253 300 l 182 176 q 146 111 160 138 q 133 73 133 85 q 156 52 133 60 l 220 34 m 292 370 l 523 370 l 483 620 l 474 692 l 435 621 l 292 370 m 779 1117 l 450 999 l 429 1034 l 673 1221 l 779 1127 l 779 1117 m 176 949 z "},"Â":{"ha":927,"x_min":-99,"x_max":890,"o":"m 220 34 l 214 -2 q 45 0 121 0 q -99 -2 -31 0 l -95 33 l -20 54 q 31 86 13 65 q 62 130 49 107 l 549 952 l 624 964 l 766 140 q 774 101 770 117 q 784 76 779 85 q 819 52 795 58 l 890 33 l 886 -2 q 677 0 775 0 q 463 -2 581 0 l 467 33 l 532 52 q 556 64 547 56 q 565 93 565 71 q 555 174 565 114 l 534 300 l 253 300 l 182 176 q 146 111 160 138 q 133 73 133 85 q 156 52 133 60 l 220 34 m 292 370 l 523 370 l 483 620 l 474 692 l 435 621 l 292 370 m 602 1100 l 370 1000 l 352 1036 l 557 1204 l 671 1204 l 835 1032 l 810 1000 l 602 1100 m 176 949 z "},"Ã":{"ha":927,"x_min":-99,"x_max":890,"o":"m 220 34 l 214 -2 q 45 0 121 0 q -99 -2 -31 0 l -95 33 l -20 54 q 31 86 13 65 q 62 130 49 107 l 549 952 l 624 964 l 766 140 q 774 101 770 117 q 784 76 779 85 q 819 52 795 58 l 890 33 l 886 -2 q 677 0 775 0 q 463 -2 581 0 l 467 33 l 532 52 q 556 64 547 56 q 565 93 565 71 q 555 174 565 114 l 534 300 l 253 300 l 182 176 q 146 111 160 138 q 133 73 133 85 q 156 52 133 60 l 220 34 m 292 370 l 523 370 l 483 620 l 474 692 l 435 621 l 292 370 m 842 1178 q 686 1034 761 1034 q 638 1044 660 1034 q 591 1070 616 1055 q 569 1083 578 1078 q 551 1093 560 1088 q 534 1098 543 1097 q 518 1100 526 1100 q 481 1089 498 1100 q 424 1035 465 1078 l 390 1063 q 473 1172 439 1141 q 544 1204 507 1204 q 583 1197 564 1204 q 634 1171 601 1190 q 660 1156 649 1162 q 680 1146 671 1150 q 696 1139 688 1141 q 713 1137 705 1137 q 750 1148 735 1137 q 806 1203 766 1159 l 842 1178 m 176 949 z "},"Ä":{"ha":927,"x_min":-99,"x_max":890,"o":"m 220 34 l 214 -2 q 45 0 121 0 q -99 -2 -31 0 l -95 33 l -20 54 q 31 86 13 65 q 62 130 49 107 l 549 952 l 624 964 l 766 140 q 774 101 770 117 q 784 76 779 85 q 819 52 795 58 l 890 33 l 886 -2 q 677 0 775 0 q 463 -2 581 0 l 467 33 l 532 52 q 556 64 547 56 q 565 93 565 71 q 555 174 565 114 l 534 300 l 253 300 l 182 176 q 146 111 160 138 q 133 73 133 85 q 156 52 133 60 l 220 34 m 292 370 l 523 370 l 483 620 l 474 692 l 435 621 l 292 370 m 553 1122 q 529 1056 553 1081 q 465 1031 505 1031 q 404 1055 427 1031 q 380 1116 380 1078 q 405 1181 380 1158 q 470 1204 430 1204 q 530 1183 507 1204 q 553 1122 553 1162 m 831 1122 q 806 1056 831 1081 q 742 1031 781 1031 q 681 1055 705 1031 q 658 1116 658 1078 q 682 1181 658 1158 q 747 1204 707 1204 q 808 1183 785 1204 q 831 1122 831 1162 m 176 949 z "},"Ā":{"ha":927,"x_min":-99,"x_max":890,"o":"m 220 34 l 214 -2 q 45 0 121 0 q -99 -2 -31 0 l -95 33 l -20 54 q 31 86 13 65 q 62 130 49 107 l 549 952 l 624 964 l 766 140 q 774 101 770 117 q 784 76 779 85 q 819 52 795 58 l 890 33 l 886 -2 q 677 0 775 0 q 463 -2 581 0 l 467 33 l 532 52 q 556 64 547 56 q 565 93 565 71 q 555 174 565 114 l 534 300 l 253 300 l 182 176 q 146 111 160 138 q 133 73 133 85 q 156 52 133 60 l 220 34 m 292 370 l 523 370 l 483 620 l 474 692 l 435 621 l 292 370 m 404 1056 l 420 1139 l 806 1139 l 790 1056 l 404 1056 m 176 949 z "},"Ă":{"ha":927,"x_min":-99,"x_max":890,"o":"m 220 34 l 214 -2 q 45 0 121 0 q -99 -2 -31 0 l -95 33 l -20 54 q 31 86 13 65 q 62 130 49 107 l 549 952 l 624 964 l 766 140 q 774 101 770 117 q 784 76 779 85 q 819 52 795 58 l 890 33 l 886 -2 q 677 0 775 0 q 463 -2 581 0 l 467 33 l 532 52 q 556 64 547 56 q 565 93 565 71 q 555 174 565 114 l 534 300 l 253 300 l 182 176 q 146 111 160 138 q 133 73 133 85 q 156 52 133 60 l 220 34 m 292 370 l 523 370 l 483 620 l 474 692 l 435 621 l 292 370 m 483 1236 q 514 1151 483 1180 q 607 1122 545 1122 q 704 1151 664 1122 q 765 1231 743 1179 l 814 1236 q 743 1081 800 1142 q 595 1021 685 1021 q 472 1062 514 1021 q 431 1182 431 1103 q 435 1231 431 1204 l 483 1236 m 176 949 z "},"Å":{"ha":927,"x_min":-99,"x_max":890,"o":"m 220 34 l 214 -2 q 45 0 121 0 q -99 -2 -31 0 l -95 33 l -20 54 q 31 86 13 65 q 62 130 49 107 l 549 952 l 624 964 l 766 140 q 774 101 770 117 q 784 76 779 85 q 819 52 795 58 l 890 33 l 886 -2 q 677 0 775 0 q 463 -2 581 0 l 467 33 l 532 52 q 556 64 547 56 q 565 93 565 71 q 555 174 565 114 l 534 300 l 253 300 l 182 176 q 146 111 160 138 q 133 73 133 85 q 156 52 133 60 l 220 34 m 292 370 l 523 370 l 483 620 l 474 692 l 435 621 l 292 370 m 592 996 q 493 1024 530 996 q 456 1101 456 1053 q 507 1205 456 1164 q 627 1245 558 1245 q 723 1215 683 1245 q 762 1137 762 1185 q 713 1035 762 1074 q 592 996 665 996 m 600 1040 q 656 1066 635 1040 q 677 1134 677 1092 q 663 1182 677 1163 q 620 1200 648 1200 q 562 1174 583 1200 q 541 1105 541 1147 q 556 1059 541 1078 q 600 1040 571 1040 m 176 949 z "},"Ǻ":{"ha":927,"x_min":-99,"x_max":890,"o":"m 220 34 l 214 -2 q 45 0 121 0 q -99 -2 -31 0 l -95 33 l -20 54 q 31 86 13 65 q 62 130 49 107 l 549 952 l 624 964 l 766 140 q 774 101 770 117 q 784 76 779 85 q 819 52 795 58 l 890 33 l 886 -2 q 677 0 775 0 q 463 -2 581 0 l 467 33 l 532 52 q 556 64 547 56 q 565 93 565 71 q 555 174 565 114 l 534 300 l 253 300 l 182 176 q 146 111 160 138 q 133 73 133 85 q 156 52 133 60 l 220 34 m 292 370 l 523 370 l 483 620 l 474 692 l 435 621 l 292 370 m 592 988 q 495 1016 531 988 q 460 1090 460 1043 q 510 1190 460 1152 q 627 1229 559 1229 q 720 1200 681 1229 q 758 1125 758 1171 q 710 1026 758 1063 q 592 988 663 988 m 600 1032 q 655 1057 634 1032 q 676 1122 676 1082 q 662 1168 676 1150 q 619 1186 647 1186 q 562 1160 583 1186 q 541 1095 541 1135 q 556 1050 541 1068 q 600 1032 571 1032 m 818 1339 l 519 1232 l 500 1264 l 722 1434 l 818 1349 l 818 1339 z "},"Ą":{"ha":928,"x_min":-98,"x_max":891,"o":"m 293 370 l 524 370 l 484 620 l 475 692 l 436 621 l 293 370 m 886 -2 q 646 0 784 0 q 530 -54 577 0 q 482 -174 482 -107 q 508 -241 482 -217 q 582 -265 534 -265 q 634 -259 604 -265 l 641 -294 q 457 -336 526 -336 q 348 -304 388 -336 q 307 -218 307 -273 q 362 -90 307 -151 q 530 39 417 -28 q 559 62 553 52 q 565 93 565 73 q 556 170 565 118 l 535 300 l 254 300 l 182 176 q 147 111 161 138 q 134 73 134 85 q 157 52 134 59 l 220 34 l 214 -2 q 46 0 121 0 q -98 -2 -31 0 l -94 33 l -19 54 q 32 86 14 65 q 63 130 50 107 l 550 952 l 625 964 l 766 140 q 775 101 770 117 q 785 76 779 85 q 819 52 795 58 l 891 33 l 886 -2 z "},"Æ":{"ha":1289,"x_min":-109,"x_max":1324,"o":"m 696 947 l 977 947 q 1144 947 1058 947 q 1321 949 1230 948 l 1324 944 l 1246 718 l 1208 713 l 1190 878 l 935 878 l 864 504 l 951 504 q 1029 505 985 504 q 1055 523 1048 505 l 1097 615 l 1139 616 q 1108 470 1122 542 q 1083 327 1095 398 l 1041 324 l 1034 417 q 1017 435 1033 434 q 952 436 986 436 q 879 437 918 437 l 850 437 l 809 220 q 795 144 802 182 q 782 70 789 107 l 1059 70 l 1173 250 l 1215 256 l 1157 3 l 1152 -2 q 810 0 969 0 l 659 0 q 461 -2 557 0 l 465 33 l 557 58 q 580 79 575 62 q 592 139 585 106 q 607 214 599 173 l 650 437 l 372 437 l 193 176 q 153 112 168 139 q 139 73 139 85 q 162 52 139 59 l 226 34 l 220 -2 q 50 0 127 0 q -33 0 7 0 q -109 -2 -74 -1 l -104 33 l -29 54 q 2 67 -12 58 q 29 89 16 76 q 55 119 42 102 q 83 157 68 136 l 583 865 q 587 876 587 870 q 572 888 587 884 l 475 915 l 480 949 q 589 947 535 948 q 696 947 643 947 m 734 878 l 675 878 l 418 504 l 663 504 l 734 878 z "},"Ǽ":{"ha":1289,"x_min":-109,"x_max":1324,"o":"m 696 947 l 977 947 q 1144 947 1058 947 q 1321 949 1230 948 l 1324 944 l 1246 718 l 1208 713 l 1190 878 l 935 878 l 864 504 l 951 504 q 1029 505 985 504 q 1055 523 1048 505 l 1097 615 l 1139 616 q 1108 470 1122 542 q 1083 327 1095 398 l 1041 324 l 1034 417 q 1017 435 1033 434 q 952 436 986 436 q 879 437 918 437 l 850 437 l 809 220 q 795 144 802 182 q 782 70 789 107 l 1059 70 l 1173 250 l 1215 256 l 1157 3 l 1152 -2 q 810 0 969 0 l 659 0 q 461 -2 557 0 l 465 33 l 557 58 q 580 79 575 62 q 592 139 585 106 q 607 214 599 173 l 650 437 l 372 437 l 193 176 q 153 112 168 139 q 139 73 139 85 q 162 52 139 59 l 226 34 l 220 -2 q 50 0 127 0 q -33 0 7 0 q -109 -2 -74 -1 l -104 33 l -29 54 q 2 67 -12 58 q 29 89 16 76 q 55 119 42 102 q 83 157 68 136 l 583 865 q 587 876 587 870 q 572 888 587 884 l 475 915 l 480 949 q 589 947 535 948 q 696 947 643 947 m 734 878 l 675 878 l 418 504 l 663 504 l 734 878 m 1145 1117 l 816 999 l 795 1034 l 1039 1221 l 1145 1127 l 1145 1117 m 543 949 z "},"Ć":{"ha":920,"x_min":79,"x_max":954,"o":"m 871 693 l 833 687 l 812 882 q 703 898 766 898 q 411 751 528 898 q 295 397 295 604 q 380 155 295 243 q 614 67 466 67 q 807 108 707 67 l 821 68 q 503 -20 675 -20 q 194 89 310 -20 q 79 381 79 199 q 259 801 79 637 q 713 965 440 965 q 951 937 831 965 l 954 930 l 871 693 m 870 1117 l 541 999 l 520 1034 l 764 1221 l 870 1127 l 870 1117 m 268 949 z "},"Ĉ":{"ha":920,"x_min":79,"x_max":954,"o":"m 871 693 l 833 687 l 812 882 q 703 898 766 898 q 411 751 528 898 q 295 397 295 604 q 380 155 295 243 q 614 67 466 67 q 807 108 707 67 l 821 68 q 503 -20 675 -20 q 194 89 310 -20 q 79 381 79 199 q 259 801 79 637 q 713 965 440 965 q 951 937 831 965 l 954 930 l 871 693 m 693 1100 l 462 1000 l 444 1036 l 648 1204 l 762 1204 l 926 1032 l 901 1000 l 693 1100 m 268 949 z "},"Č":{"ha":920,"x_min":79,"x_max":954,"o":"m 871 693 l 833 687 l 812 882 q 703 898 766 898 q 411 751 528 898 q 295 397 295 604 q 380 155 295 243 q 614 67 466 67 q 807 108 707 67 l 821 68 q 503 -20 675 -20 q 194 89 310 -20 q 79 381 79 199 q 259 801 79 637 q 713 965 440 965 q 951 937 831 965 l 954 930 l 871 693 m 692 1120 l 924 1220 l 942 1185 l 739 1016 l 625 1016 l 459 1188 l 484 1220 l 692 1120 m 268 949 z "},"Ċ":{"ha":920,"x_min":79,"x_max":954,"o":"m 871 693 l 833 687 l 812 882 q 703 898 766 898 q 411 751 528 898 q 295 397 295 604 q 380 155 295 243 q 614 67 466 67 q 807 108 707 67 l 821 68 q 503 -20 675 -20 q 194 89 310 -20 q 79 381 79 199 q 259 801 79 637 q 713 965 440 965 q 951 937 831 965 l 954 930 l 871 693 m 796 1126 q 768 1057 796 1084 q 699 1030 741 1030 q 631 1055 657 1030 q 604 1120 604 1080 q 632 1189 604 1164 q 703 1215 660 1215 q 770 1191 744 1215 q 796 1126 796 1168 m 268 949 z "},"Ç":{"ha":920,"x_min":79,"x_max":954,"o":"m 355 -128 l 441 -17 q 177 106 275 1 q 79 381 79 212 q 259 801 79 637 q 713 965 440 965 q 951 937 831 965 l 954 930 l 871 693 l 833 687 l 812 882 q 703 898 766 898 q 411 751 528 898 q 295 397 295 604 q 380 155 295 243 q 614 67 466 67 q 807 108 707 67 l 821 68 q 503 -20 675 -20 l 500 -20 l 463 -72 q 531 -163 531 -106 q 389 -335 531 -239 l 363 -307 q 429 -207 429 -253 q 357 -134 429 -158 l 355 -128 z "},"Ď":{"ha":1103,"x_min":3,"x_max":1064,"o":"m 200 0 q 3 -2 99 0 l 7 33 l 98 58 q 121 79 119 63 q 134 139 127 106 q 149 214 140 173 l 251 753 q 262 815 258 787 q 271 865 267 843 q 259 888 274 882 l 170 915 l 176 949 q 382 947 279 947 q 490 950 425 947 q 604 954 554 954 q 943 861 821 954 q 1064 588 1064 769 q 886 162 1064 328 q 421 -4 707 -4 q 326 -2 369 -4 q 200 0 282 0 m 321 67 q 418 59 372 59 q 735 203 619 59 q 850 589 850 348 q 788 815 850 742 q 595 888 725 888 q 477 882 545 888 l 321 67 m 628 1120 l 859 1220 l 878 1185 l 675 1016 l 561 1016 l 395 1188 l 420 1220 l 628 1120 m 203 949 z "},"Đ":{"ha":1103,"x_min":3,"x_max":1064,"o":"m 200 0 q 3 -2 99 0 l 7 33 l 98 58 q 121 79 119 63 q 134 139 127 106 q 149 214 140 173 l 196 465 l 87 465 l 101 536 l 210 536 l 251 753 q 262 815 258 787 q 271 865 267 843 q 259 888 274 882 l 170 915 l 176 949 q 382 947 279 947 q 490 950 425 947 q 604 954 554 954 q 943 861 821 954 q 1064 588 1064 769 q 886 162 1064 328 q 421 -4 707 -4 q 326 -2 369 -4 q 200 0 282 0 m 321 67 q 418 59 372 59 q 735 203 619 59 q 850 589 850 348 q 788 815 850 742 q 595 888 725 888 q 477 882 545 888 l 410 536 l 596 536 l 583 465 l 397 465 l 321 67 z "},"È":{"ha":829,"x_min":2,"x_max":865,"o":"m 385 947 l 517 947 q 862 949 680 947 l 865 944 l 787 718 l 749 713 l 730 878 l 476 878 l 408 517 l 437 517 q 572 517 486 517 q 599 536 591 518 l 641 629 l 683 630 q 627 341 649 482 l 585 338 l 577 432 q 560 450 576 450 q 422 452 500 452 l 394 452 l 350 220 q 323 70 336 144 l 600 70 l 713 250 l 756 256 l 698 3 l 692 -2 q 351 0 511 0 l 200 0 q 2 -2 98 0 l 6 33 l 98 58 q 121 79 116 62 q 133 139 126 106 q 148 214 140 173 l 251 753 q 262 815 258 787 q 271 865 267 843 q 259 888 274 883 l 170 915 l 175 949 q 385 947 278 947 m 358 1127 l 464 1221 l 688 1034 l 667 999 l 358 1117 l 358 1127 m 136 949 z "},"É":{"ha":829,"x_min":2,"x_max":865,"o":"m 385 947 l 517 947 q 862 949 680 947 l 865 944 l 787 718 l 749 713 l 730 878 l 476 878 l 408 517 l 437 517 q 572 517 486 517 q 599 536 591 518 l 641 629 l 683 630 q 627 341 649 482 l 585 338 l 577 432 q 560 450 576 450 q 422 452 500 452 l 394 452 l 350 220 q 323 70 336 144 l 600 70 l 713 250 l 756 256 l 698 3 l 692 -2 q 351 0 511 0 l 200 0 q 2 -2 98 0 l 6 33 l 98 58 q 121 79 116 62 q 133 139 126 106 q 148 214 140 173 l 251 753 q 262 815 258 787 q 271 865 267 843 q 259 888 274 883 l 170 915 l 175 949 q 385 947 278 947 m 738 1117 l 409 999 l 388 1034 l 632 1221 l 738 1127 l 738 1117 m 136 949 z "},"Ê":{"ha":829,"x_min":2,"x_max":865,"o":"m 385 947 l 517 947 q 862 949 680 947 l 865 944 l 787 718 l 749 713 l 730 878 l 476 878 l 408 517 l 437 517 q 572 517 486 517 q 599 536 591 518 l 641 629 l 683 630 q 627 341 649 482 l 585 338 l 577 432 q 560 450 576 450 q 422 452 500 452 l 394 452 l 350 220 q 323 70 336 144 l 600 70 l 713 250 l 756 256 l 698 3 l 692 -2 q 351 0 511 0 l 200 0 q 2 -2 98 0 l 6 33 l 98 58 q 121 79 116 62 q 133 139 126 106 q 148 214 140 173 l 251 753 q 262 815 258 787 q 271 865 267 843 q 259 888 274 883 l 170 915 l 175 949 q 385 947 278 947 m 561 1100 l 330 1000 l 311 1036 l 516 1204 l 630 1204 l 794 1032 l 769 1000 l 561 1100 m 136 949 z "},"Ě":{"ha":829,"x_min":2,"x_max":865,"o":"m 385 947 l 517 947 q 862 949 680 947 l 865 944 l 787 718 l 749 713 l 730 878 l 476 878 l 408 517 l 437 517 q 572 517 486 517 q 599 536 591 518 l 641 629 l 683 630 q 627 341 649 482 l 585 338 l 577 432 q 560 450 576 450 q 422 452 500 452 l 394 452 l 350 220 q 323 70 336 144 l 600 70 l 713 250 l 756 256 l 698 3 l 692 -2 q 351 0 511 0 l 200 0 q 2 -2 98 0 l 6 33 l 98 58 q 121 79 116 62 q 133 139 126 106 q 148 214 140 173 l 251 753 q 262 815 258 787 q 271 865 267 843 q 259 888 274 883 l 170 915 l 175 949 q 385 947 278 947 m 560 1120 l 791 1220 l 810 1185 l 607 1016 l 493 1016 l 327 1188 l 352 1220 l 560 1120 m 136 949 z "},"Ë":{"ha":829,"x_min":2,"x_max":865,"o":"m 385 947 l 517 947 q 862 949 680 947 l 865 944 l 787 718 l 749 713 l 730 878 l 476 878 l 408 517 l 437 517 q 572 517 486 517 q 599 536 591 518 l 641 629 l 683 630 q 627 341 649 482 l 585 338 l 577 432 q 560 450 576 450 q 422 452 500 452 l 394 452 l 350 220 q 323 70 336 144 l 600 70 l 713 250 l 756 256 l 698 3 l 692 -2 q 351 0 511 0 l 200 0 q 2 -2 98 0 l 6 33 l 98 58 q 121 79 116 62 q 133 139 126 106 q 148 214 140 173 l 251 753 q 262 815 258 787 q 271 865 267 843 q 259 888 274 883 l 170 915 l 175 949 q 385 947 278 947 m 513 1122 q 488 1056 513 1081 q 425 1031 464 1031 q 363 1055 387 1031 q 340 1116 340 1078 q 365 1181 340 1158 q 429 1204 389 1204 q 490 1183 467 1204 q 513 1122 513 1162 m 790 1122 q 765 1056 790 1081 q 701 1031 741 1031 q 641 1055 664 1031 q 617 1116 617 1078 q 642 1181 617 1158 q 706 1204 666 1204 q 767 1183 744 1204 q 790 1122 790 1162 m 136 949 z "},"Ē":{"ha":829,"x_min":2,"x_max":865,"o":"m 385 947 l 517 947 q 862 949 680 947 l 865 944 l 787 718 l 749 713 l 730 878 l 476 878 l 408 517 l 437 517 q 572 517 486 517 q 599 536 591 518 l 641 629 l 683 630 q 627 341 649 482 l 585 338 l 577 432 q 560 450 576 450 q 422 452 500 452 l 394 452 l 350 220 q 323 70 336 144 l 600 70 l 713 250 l 756 256 l 698 3 l 692 -2 q 351 0 511 0 l 200 0 q 2 -2 98 0 l 6 33 l 98 58 q 121 79 116 62 q 133 139 126 106 q 148 214 140 173 l 251 753 q 262 815 258 787 q 271 865 267 843 q 259 888 274 883 l 170 915 l 175 949 q 385 947 278 947 m 363 1056 l 379 1139 l 766 1139 l 749 1056 l 363 1056 m 136 949 z "},"Ĕ":{"ha":829,"x_min":2,"x_max":865,"o":"m 385 947 l 517 947 q 862 949 680 947 l 865 944 l 787 718 l 749 713 l 730 878 l 476 878 l 408 517 l 437 517 q 572 517 486 517 q 599 536 591 518 l 641 629 l 683 630 q 627 341 649 482 l 585 338 l 577 432 q 560 450 576 450 q 422 452 500 452 l 394 452 l 350 220 q 323 70 336 144 l 600 70 l 713 250 l 756 256 l 698 3 l 692 -2 q 351 0 511 0 l 200 0 q 2 -2 98 0 l 6 33 l 98 58 q 121 79 116 62 q 133 139 126 106 q 148 214 140 173 l 251 753 q 262 815 258 787 q 271 865 267 843 q 259 888 274 883 l 170 915 l 175 949 q 385 947 278 947 m 442 1236 q 473 1151 442 1180 q 566 1122 504 1122 q 663 1151 623 1122 q 724 1231 703 1179 l 773 1236 q 702 1081 760 1142 q 554 1021 644 1021 q 432 1062 473 1021 q 390 1182 390 1103 q 394 1231 390 1204 l 442 1236 m 136 949 z "},"Ė":{"ha":829,"x_min":2,"x_max":865,"o":"m 385 947 l 517 947 q 862 949 680 947 l 865 944 l 787 718 l 749 713 l 730 878 l 476 878 l 408 517 l 437 517 q 572 517 486 517 q 599 536 591 518 l 641 629 l 683 630 q 627 341 649 482 l 585 338 l 577 432 q 560 450 576 450 q 422 452 500 452 l 394 452 l 350 220 q 323 70 336 144 l 600 70 l 713 250 l 756 256 l 698 3 l 692 -2 q 351 0 511 0 l 200 0 q 2 -2 98 0 l 6 33 l 98 58 q 121 79 116 62 q 133 139 126 106 q 148 214 140 173 l 251 753 q 262 815 258 787 q 271 865 267 843 q 259 888 274 883 l 170 915 l 175 949 q 385 947 278 947 m 664 1126 q 636 1057 664 1084 q 566 1030 608 1030 q 498 1055 525 1030 q 472 1120 472 1080 q 500 1189 472 1164 q 570 1215 528 1215 q 638 1191 612 1215 q 664 1126 664 1168 m 136 949 z "},"Ę":{"ha":829,"x_min":2,"x_max":865,"o":"m 385 947 l 517 947 q 862 949 680 947 l 865 944 l 787 718 l 749 713 l 730 878 l 476 878 l 408 517 l 437 517 q 572 518 486 517 q 599 536 591 519 l 641 629 l 683 630 q 627 341 649 482 l 585 338 l 577 432 q 560 450 576 450 q 422 452 500 452 l 394 452 l 350 220 q 323 70 336 144 l 600 70 l 713 250 l 756 256 l 698 3 l 692 -2 q 606 0 648 -1 q 520 -74 554 -23 q 487 -174 487 -125 q 513 -241 487 -217 q 587 -265 539 -265 q 639 -259 609 -265 l 646 -294 q 462 -336 530 -336 q 353 -304 393 -336 q 312 -218 312 -272 q 492 -3 312 -100 l 492 0 l 200 0 q 2 -2 98 0 l 6 33 l 98 58 q 121 79 116 62 q 133 139 126 106 q 148 214 140 173 l 251 753 q 262 815 258 787 q 271 865 267 843 q 259 888 274 883 l 170 915 l 175 949 q 385 947 278 947 z "},"Ĝ":{"ha":1010,"x_min":77,"x_max":984,"o":"m 892 699 l 853 694 l 834 880 q 701 899 779 899 q 407 752 521 899 q 293 399 293 604 q 368 145 293 245 q 566 45 444 45 q 624 50 595 45 l 658 231 q 670 293 665 265 q 679 343 675 320 q 667 366 682 361 l 585 393 l 589 422 q 696 420 645 420 q 795 419 747 419 q 892 420 845 419 q 984 422 939 420 l 981 393 l 907 370 q 884 350 887 365 q 873 295 878 323 q 861 233 867 267 l 819 18 l 814 14 q 540 -20 669 -20 q 200 84 323 -20 q 77 376 77 189 q 259 801 77 637 q 728 965 440 965 q 969 937 835 965 l 972 931 l 892 699 m 717 1100 l 486 1000 l 467 1036 l 672 1204 l 786 1204 l 950 1032 l 925 1000 l 717 1100 m 292 949 z "},"Ğ":{"ha":1010,"x_min":77,"x_max":984,"o":"m 892 699 l 853 694 l 834 880 q 701 899 779 899 q 407 752 521 899 q 293 399 293 604 q 368 145 293 245 q 566 45 444 45 q 624 50 595 45 l 658 231 q 670 293 665 265 q 679 343 675 320 q 667 366 682 361 l 585 393 l 589 422 q 696 420 645 420 q 795 419 747 419 q 892 420 845 419 q 984 422 939 420 l 981 393 l 907 370 q 884 350 887 365 q 873 295 878 323 q 861 233 867 267 l 819 18 l 814 14 q 540 -20 669 -20 q 200 84 323 -20 q 77 376 77 189 q 259 801 77 637 q 728 965 440 965 q 969 937 835 965 l 972 931 l 892 699 m 598 1236 q 629 1151 598 1180 q 722 1122 660 1122 q 819 1151 779 1122 q 880 1231 859 1179 l 929 1236 q 858 1081 916 1142 q 710 1021 800 1021 q 588 1062 629 1021 q 546 1182 546 1103 q 550 1231 546 1204 l 598 1236 m 292 949 z "},"Ġ":{"ha":1010,"x_min":77,"x_max":984,"o":"m 892 699 l 853 694 l 834 880 q 701 899 779 899 q 407 752 521 899 q 293 399 293 604 q 368 145 293 245 q 566 45 444 45 q 624 50 595 45 l 658 231 q 670 293 665 265 q 679 343 675 320 q 667 366 682 361 l 585 393 l 589 422 q 696 420 645 420 q 795 419 747 419 q 892 420 845 419 q 984 422 939 420 l 981 393 l 907 370 q 884 350 887 365 q 873 295 878 323 q 861 233 867 267 l 819 18 l 814 14 q 540 -20 669 -20 q 200 84 323 -20 q 77 376 77 189 q 259 801 77 637 q 728 965 440 965 q 969 937 835 965 l 972 931 l 892 699 m 820 1126 q 792 1057 820 1084 q 722 1030 764 1030 q 654 1055 681 1030 q 628 1120 628 1080 q 656 1189 628 1164 q 726 1215 684 1215 q 794 1191 768 1215 q 820 1126 820 1168 m 292 949 z "},"Ģ":{"ha":1010,"x_min":77,"x_max":984,"o":"m 892 699 l 853 694 l 834 880 q 701 899 779 899 q 407 752 521 899 q 293 399 293 604 q 368 145 293 245 q 566 45 444 45 q 624 50 595 45 l 658 231 q 670 293 665 265 q 679 343 675 320 q 667 366 682 361 l 585 393 l 589 422 q 696 420 645 420 q 795 419 747 419 q 892 420 845 419 q 984 422 939 420 l 981 393 l 907 370 q 884 350 887 365 q 873 295 878 323 q 861 233 867 267 l 819 18 l 814 14 q 540 -20 669 -20 q 200 84 323 -20 q 77 376 77 189 q 259 801 77 637 q 728 965 440 965 q 969 937 835 965 l 972 931 l 892 699 m 399 -313 q 473 -201 473 -256 q 423 -128 473 -155 q 444 -74 423 -94 q 496 -54 465 -54 q 551 -79 530 -54 q 572 -142 572 -104 q 423 -340 572 -249 l 399 -313 z "},"Ĥ":{"ha":1149,"x_min":3,"x_max":1211,"o":"m 397 465 l 349 214 q 326 79 334 134 q 339 56 323 61 l 418 33 l 412 -2 q 215 0 304 0 q 3 -2 115 0 l 7 33 l 98 58 q 121 79 118 63 q 149 213 134 133 l 251 752 q 271 865 264 820 q 259 888 274 883 l 170 915 l 176 949 q 392 947 295 947 q 590 949 484 947 l 586 914 l 498 890 q 476 869 480 886 q 452 755 465 821 l 411 537 l 819 537 l 861 755 q 882 870 873 821 q 868 891 884 887 l 789 915 l 795 949 q 996 947 905 947 q 1211 949 1095 947 l 1206 915 l 1105 888 q 1084 865 1088 883 q 1061 753 1074 821 l 959 214 q 935 79 945 134 q 949 58 933 63 l 1036 33 l 1030 -2 q 812 0 909 0 q 618 -2 720 0 l 623 33 l 709 56 q 731 79 727 61 q 758 214 743 134 l 806 465 l 397 465 m 713 1100 l 482 1000 l 464 1036 l 669 1204 l 783 1204 l 947 1032 l 922 1000 l 713 1100 m 288 949 z "},"Ħ":{"ha":1149,"x_min":3,"x_max":1211,"o":"m 395 458 l 349 214 q 326 79 334 134 q 339 56 323 61 l 418 33 l 412 -2 q 215 0 304 0 q 3 -2 115 0 l 7 33 l 98 58 q 121 79 118 63 q 149 213 134 133 l 236 675 l 116 675 l 130 745 l 250 745 l 251 753 q 271 866 264 821 q 259 889 274 884 l 170 916 l 176 950 q 392 947 295 947 q 590 950 484 947 l 586 915 l 498 891 q 476 870 480 887 q 452 755 465 821 l 450 745 l 859 745 l 861 755 q 882 870 873 821 q 868 891 884 887 l 789 915 l 795 949 q 996 947 905 947 q 1211 949 1095 947 l 1206 915 l 1105 888 q 1084 865 1088 883 q 1061 753 1074 821 l 1060 745 l 1179 745 l 1166 675 l 1046 675 l 959 214 q 935 79 945 134 q 949 58 933 63 l 1036 33 l 1030 -2 q 812 0 909 0 q 618 -2 720 0 l 623 33 l 709 56 q 731 79 727 61 q 758 214 743 134 l 804 458 l 395 458 m 818 530 l 845 675 l 437 675 l 410 530 l 818 530 z "},"Ì":{"ha":540,"x_min":-16,"x_max":595,"o":"m 349 214 q 334 140 340 173 q 324 79 328 106 q 343 56 322 62 l 426 33 l 420 -2 q 212 0 305 0 q 3 -2 111 0 l 6 33 l 98 58 q 121 79 117 63 q 133 139 127 105 q 148 214 140 173 l 252 753 q 263 815 258 787 q 271 865 268 843 q 260 888 275 884 l 171 915 l 177 949 q 288 947 235 948 q 389 947 340 947 q 489 947 438 947 q 595 949 540 948 l 590 915 l 497 890 q 476 869 480 886 q 465 817 470 845 q 452 755 459 789 l 349 214 m 206 1127 l 312 1221 l 536 1034 l 515 999 l 206 1117 l 206 1127 m -16 949 z "},"Í":{"ha":540,"x_min":-16,"x_max":595,"o":"m 349 214 q 334 140 340 173 q 324 79 328 106 q 343 56 322 62 l 426 33 l 420 -2 q 212 0 305 0 q 3 -2 111 0 l 6 33 l 98 58 q 121 79 117 63 q 133 139 127 105 q 148 214 140 173 l 252 753 q 263 815 258 787 q 271 865 268 843 q 260 888 275 884 l 171 915 l 177 949 q 288 947 235 948 q 389 947 340 947 q 489 947 438 947 q 595 949 540 948 l 590 915 l 497 890 q 476 869 480 886 q 465 817 470 845 q 452 755 459 789 l 349 214 m 586 1117 l 257 999 l 236 1034 l 480 1221 l 586 1127 l 586 1117 m -16 949 z "},"Î":{"ha":540,"x_min":-16,"x_max":642,"o":"m 349 214 q 334 140 340 173 q 324 79 328 106 q 343 56 322 62 l 426 33 l 420 -2 q 212 0 305 0 q 3 -2 111 0 l 6 33 l 98 58 q 121 79 117 63 q 133 139 127 105 q 148 214 140 173 l 252 753 q 263 815 258 787 q 271 865 268 843 q 260 888 275 884 l 171 915 l 177 949 q 288 947 235 948 q 389 947 340 947 q 489 947 438 947 q 595 949 540 948 l 590 915 l 497 890 q 476 869 480 886 q 465 817 470 845 q 452 755 459 789 l 349 214 m 409 1100 l 178 1000 l 159 1036 l 364 1204 l 478 1204 l 642 1032 l 617 1000 l 409 1100 m -16 949 z "},"Ĩ":{"ha":540,"x_min":-16,"x_max":650,"o":"m 349 214 q 334 140 340 173 q 324 79 328 106 q 343 56 322 62 l 426 33 l 420 -2 q 212 0 305 0 q 3 -2 111 0 l 6 33 l 98 58 q 121 79 117 63 q 133 139 127 105 q 148 214 140 173 l 252 753 q 263 815 258 787 q 271 865 268 843 q 260 888 275 884 l 171 915 l 177 949 q 288 947 235 948 q 389 947 340 947 q 489 947 438 947 q 595 949 540 948 l 590 915 l 497 890 q 476 869 480 886 q 465 817 470 845 q 452 755 459 789 l 349 214 m 650 1178 q 493 1034 568 1034 q 446 1044 467 1034 q 398 1070 424 1055 q 377 1083 386 1078 q 359 1093 368 1088 q 342 1098 350 1097 q 326 1100 334 1100 q 289 1089 305 1100 q 231 1035 272 1078 l 197 1063 q 280 1172 246 1141 q 351 1204 315 1204 q 390 1197 372 1204 q 441 1171 408 1190 q 467 1156 456 1162 q 487 1146 478 1150 q 504 1139 496 1141 q 521 1137 512 1137 q 558 1148 543 1137 q 614 1203 573 1159 l 650 1178 m -16 949 z "},"Ï":{"ha":540,"x_min":-16,"x_max":638,"o":"m 349 214 q 334 140 340 173 q 324 79 328 106 q 343 56 322 62 l 426 33 l 420 -2 q 212 0 305 0 q 3 -2 111 0 l 6 33 l 98 58 q 121 79 117 63 q 133 139 127 105 q 148 214 140 173 l 252 753 q 263 815 258 787 q 271 865 268 843 q 260 888 275 884 l 171 915 l 177 949 q 288 947 235 948 q 389 947 340 947 q 489 947 438 947 q 595 949 540 948 l 590 915 l 497 890 q 476 869 480 886 q 465 817 470 845 q 452 755 459 789 l 349 214 m 361 1122 q 336 1056 361 1081 q 273 1031 312 1031 q 211 1055 235 1031 q 188 1116 188 1078 q 213 1181 188 1158 q 277 1204 237 1204 q 338 1183 315 1204 q 361 1122 361 1162 m 638 1122 q 613 1056 638 1081 q 549 1031 589 1031 q 489 1055 512 1031 q 465 1116 465 1078 q 490 1181 465 1158 q 554 1204 514 1204 q 615 1183 592 1204 q 638 1122 638 1162 m -16 949 z "},"Ī":{"ha":540,"x_min":-16,"x_max":614,"o":"m 349 214 q 334 140 340 173 q 324 79 328 106 q 343 56 322 62 l 426 33 l 420 -2 q 212 0 305 0 q 3 -2 111 0 l 6 33 l 98 58 q 121 79 117 63 q 133 139 127 105 q 148 214 140 173 l 252 753 q 263 815 258 787 q 271 865 268 843 q 260 888 275 884 l 171 915 l 177 949 q 288 947 235 948 q 389 947 340 947 q 489 947 438 947 q 595 949 540 948 l 590 915 l 497 890 q 476 869 480 886 q 465 817 470 845 q 452 755 459 789 l 349 214 m 211 1056 l 227 1139 l 614 1139 l 597 1056 l 211 1056 m -16 949 z "},"Ĭ":{"ha":540,"x_min":-16,"x_max":621,"o":"m 349 214 q 334 140 340 173 q 324 79 328 106 q 343 56 322 62 l 426 33 l 420 -2 q 212 0 305 0 q 3 -2 111 0 l 6 33 l 98 58 q 121 79 117 63 q 133 139 127 105 q 148 214 140 173 l 252 753 q 263 815 258 787 q 271 865 268 843 q 260 888 275 884 l 171 915 l 177 949 q 288 947 235 948 q 389 947 340 947 q 489 947 438 947 q 595 949 540 948 l 590 915 l 497 890 q 476 869 480 886 q 465 817 470 845 q 452 755 459 789 l 349 214 m 290 1236 q 321 1151 290 1180 q 414 1122 352 1122 q 511 1151 471 1122 q 572 1231 551 1179 l 621 1236 q 550 1081 608 1142 q 402 1021 492 1021 q 280 1062 321 1021 q 238 1182 238 1103 q 242 1231 238 1204 l 290 1236 m -16 949 z "},"İ":{"ha":540,"x_min":-16,"x_max":595,"o":"m 349 214 q 334 140 340 173 q 324 79 328 106 q 343 56 322 62 l 426 33 l 420 -2 q 212 0 305 0 q 3 -2 111 0 l 6 33 l 98 58 q 121 79 117 63 q 133 139 127 105 q 148 214 140 173 l 252 753 q 263 815 258 787 q 271 865 268 843 q 260 888 275 884 l 171 915 l 177 949 q 288 947 235 948 q 389 947 340 947 q 489 947 438 947 q 595 949 540 948 l 590 915 l 497 890 q 476 869 480 886 q 465 817 470 845 q 452 755 459 789 l 349 214 m 512 1126 q 484 1057 512 1084 q 414 1030 456 1030 q 347 1055 373 1030 q 320 1120 320 1080 q 348 1189 320 1164 q 418 1215 376 1215 q 486 1191 460 1215 q 512 1126 512 1168 m -16 949 z "},"Į":{"ha":540,"x_min":3,"x_max":595,"o":"m 349 214 q 334 140 340 173 q 324 79 328 106 q 343 56 322 62 l 426 33 l 420 -2 q 321 0 372 -1 q 240 -74 272 -26 q 207 -174 207 -125 q 233 -241 207 -217 q 307 -265 259 -265 q 359 -259 329 -265 l 366 -294 q 182 -336 250 -336 q 73 -304 113 -336 q 32 -218 32 -272 q 212 -3 32 -100 l 212 0 q 3 -2 109 0 l 6 33 l 98 58 q 121 79 117 63 q 133 139 127 105 q 148 214 140 173 l 252 753 q 263 815 258 787 q 271 865 268 843 q 260 888 275 884 l 171 915 l 177 949 q 288 947 235 948 q 389 947 340 947 q 489 947 438 947 q 595 949 540 948 l 590 915 l 497 890 q 476 869 480 886 q 465 817 470 845 q 452 755 459 789 l 349 214 z "},"Ĳ":{"ha":1042,"x_min":3,"x_max":1123,"o":"m 349 214 q 334 140 340 173 q 324 79 328 106 q 343 56 322 62 l 426 33 l 420 -2 q 212 0 305 0 q 3 -2 111 0 l 6 33 l 98 58 q 121 79 117 63 q 133 139 127 105 q 148 214 140 173 l 252 753 q 263 815 258 787 q 271 865 268 843 q 260 888 275 884 l 171 915 l 177 949 q 288 947 235 948 q 389 947 340 947 q 489 947 438 947 q 595 949 540 948 l 590 915 l 497 890 q 476 869 480 886 q 465 817 470 845 q 452 755 459 789 l 349 214 m 706 949 q 815 947 764 948 q 912 947 867 947 q 1016 947 964 947 q 1123 949 1068 948 l 1119 915 l 1026 890 q 1004 869 1009 886 q 993 817 999 845 q 981 755 987 789 l 869 163 q 742 -139 832 -34 q 399 -295 651 -245 l 390 -252 q 581 -110 529 -190 q 660 117 632 -29 l 781 753 q 792 815 787 787 q 800 865 797 843 q 788 888 804 883 l 699 915 l 706 949 z "},"Ĵ":{"ha":503,"x_min":-150,"x_max":631,"o":"m 166 949 q 275 947 224 948 q 372 947 327 947 q 476 947 424 947 q 583 949 528 948 l 579 915 l 486 890 q 465 869 469 886 q 453 817 459 845 q 441 755 448 789 l 330 163 q 202 -139 292 -34 q -140 -295 111 -245 l -150 -252 q 41 -110 -11 -190 q 120 117 92 -29 l 241 753 q 252 815 247 787 q 260 865 257 843 q 248 888 264 883 l 159 915 l 166 949 m 398 1100 l 167 1000 l 149 1036 l 353 1204 l 467 1204 l 631 1032 l 606 1000 l 398 1100 m -27 949 z "},"Ķ":{"ha":1032,"x_min":3,"x_max":1080,"o":"m 412 475 l 741 779 q 808 846 786 821 q 829 884 829 871 q 815 898 829 894 l 762 913 l 767 949 q 922 947 838 947 q 1080 949 1008 947 l 1076 915 l 1006 893 q 951 868 977 884 q 884 812 925 851 l 594 541 l 823 130 q 862 74 844 92 q 910 47 879 56 l 963 33 l 958 -2 q 793 0 878 0 q 665 -1 730 0 q 635 68 658 23 q 575 182 613 114 l 412 475 m 349 214 q 334 140 340 173 q 324 79 328 106 q 343 56 322 62 l 419 33 l 414 -2 q 212 0 304 0 q 3 -2 111 0 l 6 33 l 98 58 q 121 79 117 62 q 133 139 127 105 q 148 214 140 173 l 252 753 q 263 815 258 787 q 271 865 268 843 q 260 888 274 884 l 171 915 l 177 949 q 389 947 286 947 q 588 949 492 947 l 583 915 l 497 890 q 476 869 480 886 q 465 817 470 845 q 452 755 459 789 l 349 214 m 372 -313 q 446 -201 446 -256 q 396 -128 446 -155 q 417 -74 396 -94 q 469 -54 437 -54 q 524 -79 503 -54 q 545 -142 545 -104 q 396 -340 545 -249 l 372 -313 z "},"Ĺ":{"ha":798,"x_min":-16,"x_max":762,"o":"m 452 755 l 350 219 q 323 70 336 144 l 595 70 l 719 264 l 762 271 l 700 3 l 695 -2 q 385 0 541 0 l 213 0 q 3 -2 112 0 l 7 33 l 98 58 q 121 79 117 62 q 134 139 127 106 q 149 214 140 173 l 251 753 q 262 815 258 787 q 271 865 267 843 q 259 888 274 883 l 170 915 l 176 949 q 390 947 292 947 q 594 949 486 947 l 589 915 l 496 890 q 475 869 479 886 q 460 800 469 845 q 452 755 452 754 m 586 1117 l 257 999 l 236 1034 l 480 1221 l 586 1127 l 586 1117 m -16 949 z "},"Ľ":{"ha":798,"x_min":3,"x_max":814,"o":"m 452 755 l 350 219 q 323 70 336 144 l 595 70 l 719 264 l 762 271 l 700 3 l 695 -2 q 385 0 541 0 l 213 0 q 3 -2 112 0 l 7 33 l 98 58 q 121 79 117 62 q 134 139 127 106 q 149 214 140 173 l 251 753 q 262 815 258 787 q 271 865 267 843 q 259 888 274 883 l 170 915 l 176 949 q 390 947 292 947 q 594 949 486 947 l 589 915 l 496 890 q 475 869 479 886 q 460 800 469 845 q 452 755 452 754 m 629 637 q 706 786 706 713 q 643 880 706 846 q 668 938 645 917 q 729 960 691 960 q 791 933 767 960 q 814 862 814 906 q 654 610 814 732 l 629 637 z "},"Ļ":{"ha":798,"x_min":3,"x_max":762,"o":"m 452 755 l 350 219 q 323 70 336 144 l 595 70 l 719 264 l 762 271 l 700 3 l 695 -2 q 385 0 541 0 l 213 0 q 3 -2 112 0 l 7 33 l 98 58 q 121 79 117 62 q 134 139 127 106 q 149 214 140 173 l 251 753 q 262 815 258 787 q 271 865 267 843 q 259 888 274 883 l 170 915 l 176 949 q 390 947 292 947 q 594 949 486 947 l 589 915 l 496 890 q 475 869 479 886 q 460 800 469 845 q 452 755 452 754 m 256 -313 q 330 -201 330 -256 q 281 -128 330 -155 q 301 -74 281 -94 q 354 -54 322 -54 q 409 -79 388 -54 q 430 -142 430 -104 q 281 -340 430 -249 l 256 -313 z "},"Ł":{"ha":798,"x_min":3,"x_max":762,"o":"m 452 755 l 412 548 l 665 623 l 654 551 l 398 475 l 350 219 q 323 70 336 144 l 595 70 l 719 264 l 762 271 l 700 3 l 695 -2 q 385 0 541 0 l 213 0 q 3 -2 112 0 l 7 33 l 98 58 q 121 79 117 62 q 134 139 127 106 q 149 214 140 173 l 186 412 l 75 378 l 84 450 l 200 485 l 251 753 q 262 815 258 787 q 271 865 267 843 q 259 888 274 883 l 170 915 l 176 949 q 390 947 292 947 q 594 949 486 947 l 589 915 l 496 890 q 475 869 479 886 q 460 800 469 845 q 452 755 452 754 z "},"Ŀ":{"ha":798,"x_min":3,"x_max":799,"o":"m 452 755 l 350 219 q 323 70 336 144 l 595 70 l 719 264 l 762 271 l 700 3 l 695 -2 q 385 0 541 0 l 213 0 q 3 -2 112 0 l 7 33 l 98 58 q 121 79 117 62 q 134 139 127 106 q 149 214 140 173 l 251 753 q 262 815 258 787 q 271 865 267 843 q 259 888 274 883 l 170 915 l 176 949 q 390 947 292 947 q 594 949 486 947 l 589 915 l 496 890 q 475 869 479 886 q 460 800 469 845 q 452 755 452 754 m 799 513 q 771 439 799 467 q 701 410 743 410 q 632 437 659 410 q 606 506 606 464 q 634 580 606 553 q 705 607 662 607 q 772 582 746 607 q 799 513 799 557 z "},"Ń":{"ha":1000,"x_min":-14,"x_max":1084,"o":"m 156 915 l 161 949 q 244 947 208 948 q 305 947 280 947 q 338 947 322 947 q 372 949 355 948 l 724 372 q 765 297 743 336 l 783 397 l 851 756 q 863 818 858 789 q 871 869 868 846 q 858 890 873 884 l 775 913 l 781 949 q 865 947 827 948 q 932 947 903 947 q 1000 947 962 947 q 1084 949 1037 948 l 1080 915 l 983 888 q 962 866 966 883 q 951 816 957 844 q 939 753 945 788 l 795 0 l 722 -7 l 347 606 q 307 681 330 637 q 298 631 302 654 q 290 586 294 607 l 221 213 q 208 139 214 172 q 197 81 202 106 q 210 57 194 61 l 292 33 l 288 -2 q 139 0 197 0 q -14 -2 80 0 l -12 32 l 85 57 q 106 78 103 62 q 119 139 113 106 q 134 213 126 172 l 234 753 q 245 816 240 788 q 254 866 250 844 q 241 888 256 883 l 156 915 m 819 1117 l 490 999 l 469 1034 l 713 1221 l 819 1127 l 819 1117 m 217 949 z "},"Ň":{"ha":1000,"x_min":-14,"x_max":1084,"o":"m 156 915 l 161 949 q 244 947 208 948 q 305 947 280 947 q 338 947 322 947 q 372 949 355 948 l 724 372 q 765 297 743 336 l 783 397 l 851 756 q 863 818 858 789 q 871 869 868 846 q 858 890 873 884 l 775 913 l 781 949 q 865 947 827 948 q 932 947 903 947 q 1000 947 962 947 q 1084 949 1037 948 l 1080 915 l 983 888 q 962 866 966 883 q 951 816 957 844 q 939 753 945 788 l 795 0 l 722 -7 l 347 606 q 307 681 330 637 q 298 631 302 654 q 290 586 294 607 l 221 213 q 208 139 214 172 q 197 81 202 106 q 210 57 194 61 l 292 33 l 288 -2 q 139 0 197 0 q -14 -2 80 0 l -12 32 l 85 57 q 106 78 103 62 q 119 139 113 106 q 134 213 126 172 l 234 753 q 245 816 240 788 q 254 866 250 844 q 241 888 256 883 l 156 915 m 642 1120 l 873 1220 l 891 1185 l 688 1016 l 574 1016 l 408 1188 l 433 1220 l 642 1120 m 217 949 z "},"Ñ":{"ha":1000,"x_min":-14,"x_max":1084,"o":"m 156 915 l 161 949 q 244 947 208 948 q 305 947 280 947 q 338 947 322 947 q 372 949 355 948 l 724 372 q 765 297 743 336 l 783 397 l 851 756 q 863 818 858 789 q 871 869 868 846 q 858 890 873 884 l 775 913 l 781 949 q 865 947 827 948 q 932 947 903 947 q 1000 947 962 947 q 1084 949 1037 948 l 1080 915 l 983 888 q 962 866 966 883 q 951 816 957 844 q 939 753 945 788 l 795 0 l 722 -7 l 347 606 q 307 681 330 637 q 298 631 302 654 q 290 586 294 607 l 221 213 q 208 139 214 172 q 197 81 202 106 q 210 57 194 61 l 292 33 l 288 -2 q 139 0 197 0 q -14 -2 80 0 l -12 32 l 85 57 q 106 78 103 62 q 119 139 113 106 q 134 213 126 172 l 234 753 q 245 816 240 788 q 254 866 250 844 q 241 888 256 883 l 156 915 m 883 1178 q 726 1034 802 1034 q 679 1044 701 1034 q 631 1070 657 1055 q 610 1083 619 1078 q 592 1093 601 1088 q 575 1098 583 1097 q 559 1100 567 1100 q 522 1089 538 1100 q 465 1035 505 1078 l 431 1063 q 514 1172 479 1141 q 585 1204 548 1204 q 623 1197 605 1204 q 675 1171 642 1190 q 701 1156 690 1162 q 720 1146 711 1150 q 737 1139 729 1141 q 754 1137 745 1137 q 791 1148 776 1137 q 847 1203 806 1159 l 883 1178 m 217 949 z "},"Ņ":{"ha":1000,"x_min":-14,"x_max":1084,"o":"m 156 915 l 161 949 q 244 947 208 948 q 305 947 280 947 q 338 947 322 947 q 372 949 355 948 l 724 372 q 765 297 743 336 l 783 397 l 851 756 q 863 818 858 789 q 871 869 868 846 q 858 890 873 884 l 775 913 l 781 949 q 865 947 827 948 q 932 947 903 947 q 1000 947 962 947 q 1084 949 1037 948 l 1080 915 l 983 888 q 962 866 966 883 q 951 816 957 844 q 939 753 945 788 l 795 0 l 722 -7 l 347 606 q 307 681 330 637 q 298 631 302 654 q 290 586 294 607 l 221 213 q 208 139 214 172 q 197 81 202 106 q 210 57 194 61 l 292 33 l 288 -2 q 139 0 197 0 q -14 -2 80 0 l -12 32 l 85 57 q 106 78 103 62 q 119 139 113 106 q 134 213 126 172 l 234 753 q 245 816 240 788 q 254 866 250 844 q 241 888 256 883 l 156 915 m 324 -313 q 398 -201 398 -256 q 349 -128 398 -155 q 369 -74 349 -94 q 422 -54 390 -54 q 477 -79 456 -54 q 498 -142 498 -104 q 349 -340 498 -249 l 324 -313 z "},"Ò":{"ha":1139,"x_min":79,"x_max":1105,"o":"m 518 -24 q 199 82 319 -24 q 79 375 79 188 q 247 797 79 625 q 665 968 416 968 q 985 863 864 968 q 1105 570 1105 758 q 937 147 1105 318 q 518 -24 768 -24 m 886 592 q 821 821 886 739 q 646 904 756 904 q 391 747 485 904 q 297 353 297 590 q 361 124 297 208 q 538 41 426 41 q 792 197 699 41 q 886 592 886 353 m 484 1127 l 589 1221 l 813 1034 l 792 999 l 484 1117 l 484 1127 m 261 949 z "},"Ó":{"ha":1139,"x_min":79,"x_max":1105,"o":"m 518 -24 q 199 82 319 -24 q 79 375 79 188 q 247 797 79 625 q 665 968 416 968 q 985 863 864 968 q 1105 570 1105 758 q 937 147 1105 318 q 518 -24 768 -24 m 886 592 q 821 821 886 739 q 646 904 756 904 q 391 747 485 904 q 297 353 297 590 q 361 124 297 208 q 538 41 426 41 q 792 197 699 41 q 886 592 886 353 m 863 1117 l 534 999 l 513 1034 l 758 1221 l 863 1127 l 863 1117 m 261 949 z "},"Ô":{"ha":1139,"x_min":79,"x_max":1105,"o":"m 518 -24 q 199 82 319 -24 q 79 375 79 188 q 247 797 79 625 q 665 968 416 968 q 985 863 864 968 q 1105 570 1105 758 q 937 147 1105 318 q 518 -24 768 -24 m 886 592 q 821 821 886 739 q 646 904 756 904 q 391 747 485 904 q 297 353 297 590 q 361 124 297 208 q 538 41 426 41 q 792 197 699 41 q 886 592 886 353 m 686 1100 l 455 1000 l 437 1036 l 642 1204 l 755 1204 l 920 1032 l 895 1000 l 686 1100 m 261 949 z "},"Õ":{"ha":1139,"x_min":79,"x_max":1105,"o":"m 518 -24 q 199 82 319 -24 q 79 375 79 188 q 247 797 79 625 q 665 968 416 968 q 985 863 864 968 q 1105 570 1105 758 q 937 147 1105 318 q 518 -24 768 -24 m 886 592 q 821 821 886 739 q 646 904 756 904 q 391 747 485 904 q 297 353 297 590 q 361 124 297 208 q 538 41 426 41 q 792 197 699 41 q 886 592 886 353 m 927 1178 q 770 1034 846 1034 q 723 1044 745 1034 q 675 1070 701 1055 q 654 1083 663 1078 q 636 1093 645 1088 q 619 1098 627 1097 q 603 1100 611 1100 q 566 1089 583 1100 q 509 1035 549 1078 l 475 1063 q 558 1172 524 1141 q 629 1204 592 1204 q 667 1197 649 1204 q 719 1171 686 1190 q 745 1156 734 1162 q 764 1146 755 1150 q 781 1139 773 1141 q 798 1137 789 1137 q 835 1148 820 1137 q 891 1203 850 1159 l 927 1178 m 261 949 z "},"Ö":{"ha":1139,"x_min":79,"x_max":1105,"o":"m 518 -24 q 199 82 319 -24 q 79 375 79 188 q 247 797 79 625 q 665 968 416 968 q 985 863 864 968 q 1105 570 1105 758 q 937 147 1105 318 q 518 -24 768 -24 m 886 592 q 821 821 886 739 q 646 904 756 904 q 391 747 485 904 q 297 353 297 590 q 361 124 297 208 q 538 41 426 41 q 792 197 699 41 q 886 592 886 353 m 638 1122 q 614 1056 638 1081 q 550 1031 589 1031 q 489 1055 512 1031 q 465 1116 465 1078 q 490 1181 465 1158 q 555 1204 515 1204 q 615 1183 592 1204 q 638 1122 638 1162 m 916 1122 q 891 1056 916 1081 q 827 1031 866 1031 q 766 1055 789 1031 q 743 1116 743 1078 q 767 1181 743 1158 q 831 1204 791 1204 q 892 1183 869 1204 q 916 1122 916 1162 m 261 949 z "},"Ō":{"ha":1139,"x_min":79,"x_max":1105,"o":"m 518 -24 q 199 82 319 -24 q 79 375 79 188 q 247 797 79 625 q 665 968 416 968 q 985 863 864 968 q 1105 570 1105 758 q 937 147 1105 318 q 518 -24 768 -24 m 886 592 q 821 821 886 739 q 646 904 756 904 q 391 747 485 904 q 297 353 297 590 q 361 124 297 208 q 538 41 426 41 q 792 197 699 41 q 886 592 886 353 m 488 1056 l 505 1139 l 891 1139 l 875 1056 l 488 1056 m 261 949 z "},"Ŏ":{"ha":1139,"x_min":79,"x_max":1105,"o":"m 518 -24 q 199 82 319 -24 q 79 375 79 188 q 247 797 79 625 q 665 968 416 968 q 985 863 864 968 q 1105 570 1105 758 q 937 147 1105 318 q 518 -24 768 -24 m 886 592 q 821 821 886 739 q 646 904 756 904 q 391 747 485 904 q 297 353 297 590 q 361 124 297 208 q 538 41 426 41 q 792 197 699 41 q 886 592 886 353 m 568 1236 q 598 1151 568 1180 q 692 1122 629 1122 q 788 1151 749 1122 q 850 1231 828 1179 l 899 1236 q 827 1081 885 1142 q 680 1021 770 1021 q 557 1062 599 1021 q 515 1182 515 1103 q 519 1231 515 1204 l 568 1236 m 261 949 z "},"Ő":{"ha":1139,"x_min":79,"x_max":1105,"o":"m 518 -24 q 199 82 319 -24 q 79 375 79 188 q 247 797 79 625 q 665 968 416 968 q 985 863 864 968 q 1105 570 1105 758 q 937 147 1105 318 q 518 -24 768 -24 m 886 592 q 821 821 886 739 q 646 904 756 904 q 391 747 485 904 q 297 353 297 590 q 361 124 297 208 q 538 41 426 41 q 792 197 699 41 q 886 592 886 353 m 624 1204 l 784 1204 l 587 1013 l 533 1013 l 624 1204 m 825 1204 l 985 1204 l 788 1013 l 734 1013 l 825 1204 m 261 949 z "},"Ø":{"ha":1139,"x_min":79,"x_max":1105,"o":"m 518 -24 q 248 45 357 -24 l 146 -64 l 92 -18 l 191 89 q 79 375 79 193 q 247 797 79 625 q 665 968 416 968 q 939 897 829 968 l 1040 1006 l 1098 964 l 996 853 q 1105 570 1105 749 q 937 147 1105 318 q 518 -24 768 -24 m 843 793 q 646 905 777 905 q 389 748 484 905 q 294 353 294 591 q 311 218 294 277 l 843 793 m 873 721 l 342 148 q 538 39 410 39 q 795 196 700 39 q 890 592 890 352 q 873 721 890 665 z "},"Ǿ":{"ha":1139,"x_min":79,"x_max":1105,"o":"m 518 -24 q 248 45 357 -24 l 146 -64 l 92 -18 l 191 89 q 79 375 79 193 q 247 797 79 625 q 665 968 416 968 q 939 897 829 968 l 1040 1006 l 1098 964 l 996 853 q 1105 570 1105 749 q 937 147 1105 318 q 518 -24 768 -24 m 843 793 q 646 905 777 905 q 389 748 484 905 q 294 353 294 591 q 311 218 294 277 l 843 793 m 873 721 l 342 148 q 538 39 410 39 q 795 196 700 39 q 890 592 890 352 q 873 721 890 665 m 863 1117 l 534 999 l 513 1034 l 758 1221 l 863 1127 l 863 1117 m 261 949 z "},"Œ":{"ha":1389,"x_min":79,"x_max":1425,"o":"m 954 452 l 909 220 q 896 144 902 182 q 882 70 889 107 l 1159 70 l 1273 250 l 1316 256 l 1257 3 l 1252 -2 q 911 0 1069 0 l 675 0 q 513 -24 595 -24 q 200 83 321 -24 q 79 375 79 191 q 249 795 79 622 q 662 968 418 968 q 850 947 751 968 l 1077 947 q 1244 947 1158 947 q 1421 949 1330 948 l 1425 944 l 1347 718 l 1309 713 l 1290 878 l 1036 878 l 967 517 l 1055 517 q 1132 517 1088 517 q 1158 536 1151 518 l 1200 629 l 1242 630 q 1212 484 1225 556 q 1186 341 1198 412 l 1144 338 l 1137 432 q 1120 450 1136 449 q 1055 451 1089 451 q 982 452 1021 452 l 954 452 m 827 846 q 642 904 732 904 q 388 744 479 904 q 297 353 297 585 q 360 126 297 212 q 536 41 423 41 q 682 88 614 41 q 696 159 690 125 l 707 214 l 810 753 q 819 797 814 770 q 827 846 823 823 z "},"Ŕ":{"ha":954,"x_min":3,"x_max":913,"o":"m 176 949 q 286 947 231 948 q 385 947 341 947 q 464 950 406 947 q 549 953 522 953 q 794 899 711 953 q 876 739 876 846 q 628 467 876 545 q 647 427 637 449 q 665 388 657 406 q 680 351 672 370 q 695 313 688 332 q 724 242 709 277 q 754 172 739 208 q 780 117 767 141 q 811 75 793 93 q 852 46 828 58 q 913 30 877 35 l 909 -5 q 796 -11 850 -11 q 711 -6 747 -11 q 648 13 675 -1 q 601 52 621 26 q 564 117 581 77 q 539 178 551 147 q 515 244 527 210 q 487 324 502 281 q 454 408 471 367 q 444 429 450 420 q 422 439 437 437 l 392 441 l 349 214 q 335 140 341 173 q 325 81 329 108 q 338 55 322 60 l 415 33 l 410 -2 q 309 0 359 -1 q 211 0 259 0 q 107 0 161 0 q 3 -2 54 -1 l 6 33 l 98 58 q 121 79 115 62 q 133 139 126 106 q 148 214 140 173 l 252 753 q 263 815 258 787 q 271 865 268 842 q 260 888 274 884 l 171 915 l 176 949 m 404 500 q 432 498 417 498 q 660 724 660 498 q 623 846 660 804 q 515 888 585 888 q 477 884 495 888 l 404 500 m 741 1117 l 412 999 l 391 1034 l 635 1221 l 741 1127 l 741 1117 m 139 949 z "},"Ř":{"ha":954,"x_min":3,"x_max":913,"o":"m 176 949 q 286 947 231 948 q 385 947 341 947 q 464 950 406 947 q 549 953 522 953 q 794 899 711 953 q 876 739 876 846 q 628 467 876 545 q 647 427 637 449 q 665 388 657 406 q 680 351 672 370 q 695 313 688 332 q 724 242 709 277 q 754 172 739 208 q 780 117 767 141 q 811 75 793 93 q 852 46 828 58 q 913 30 877 35 l 909 -5 q 796 -11 850 -11 q 711 -6 747 -11 q 648 13 675 -1 q 601 52 621 26 q 564 117 581 77 q 539 178 551 147 q 515 244 527 210 q 487 324 502 281 q 454 408 471 367 q 444 429 450 420 q 422 439 437 437 l 392 441 l 349 214 q 335 140 341 173 q 325 81 329 108 q 338 55 322 60 l 415 33 l 410 -2 q 309 0 359 -1 q 211 0 259 0 q 107 0 161 0 q 3 -2 54 -1 l 6 33 l 98 58 q 121 79 115 62 q 133 139 126 106 q 148 214 140 173 l 252 753 q 263 815 258 787 q 271 865 268 842 q 260 888 274 884 l 171 915 l 176 949 m 404 500 q 432 498 417 498 q 660 724 660 498 q 623 846 660 804 q 515 888 585 888 q 477 884 495 888 l 404 500 m 564 1120 l 795 1220 l 813 1185 l 610 1016 l 496 1016 l 330 1188 l 355 1220 l 564 1120 m 139 949 z "},"Ŗ":{"ha":954,"x_min":3,"x_max":913,"o":"m 176 949 q 286 947 231 948 q 385 947 341 947 q 464 950 406 947 q 549 953 522 953 q 794 899 711 953 q 876 739 876 846 q 628 467 876 545 q 647 427 637 449 q 665 388 657 406 q 680 351 672 370 q 695 313 688 332 q 724 242 709 277 q 754 172 739 208 q 780 117 767 141 q 811 75 793 93 q 852 46 828 58 q 913 30 877 35 l 909 -5 q 796 -11 850 -11 q 711 -6 747 -11 q 648 13 675 -1 q 601 52 621 26 q 564 117 581 77 q 539 178 551 147 q 515 244 527 210 q 487 324 502 281 q 454 408 471 367 q 444 429 450 420 q 422 439 437 437 l 392 441 l 349 214 q 335 140 341 173 q 325 81 329 108 q 338 55 322 60 l 415 33 l 410 -2 q 309 0 359 -1 q 211 0 259 0 q 107 0 161 0 q 3 -2 54 -1 l 6 33 l 98 58 q 121 79 115 62 q 133 139 126 106 q 148 214 140 173 l 252 753 q 263 815 258 787 q 271 865 268 842 q 260 888 274 884 l 171 915 l 176 949 m 404 500 q 432 498 417 498 q 660 724 660 498 q 623 846 660 804 q 515 888 585 888 q 477 884 495 888 l 404 500 m 317 -313 q 391 -201 391 -256 q 342 -128 391 -155 q 362 -74 342 -94 q 415 -54 383 -54 q 470 -79 449 -54 q 491 -142 491 -104 q 342 -340 491 -249 l 317 -313 z "},"Ś":{"ha":758,"x_min":25,"x_max":774,"o":"m 638 886 q 542 900 593 900 q 382 855 446 900 q 320 732 319 810 q 337 669 321 696 q 377 621 353 642 q 433 582 402 600 q 496 546 464 564 q 573 498 536 523 q 639 442 610 473 q 685 371 667 411 q 702 279 702 332 q 578 57 702 136 q 271 -22 454 -22 q 28 14 154 -22 l 25 20 l 97 267 l 140 273 l 159 64 q 273 45 212 45 q 440 92 373 45 q 507 217 507 138 q 492 282 507 254 q 451 332 476 310 q 395 371 426 353 q 332 406 363 388 q 261 447 298 425 q 196 501 225 470 q 148 573 166 532 q 129 671 129 614 q 242 887 129 810 q 543 965 355 965 q 772 935 660 965 l 774 928 l 699 709 l 660 703 l 638 886 m 711 1117 l 382 999 l 361 1034 l 605 1221 l 711 1127 l 711 1117 m 109 949 z "},"Ŝ":{"ha":758,"x_min":25,"x_max":774,"o":"m 638 886 q 542 900 593 900 q 382 855 446 900 q 320 732 319 810 q 337 669 321 696 q 377 621 353 642 q 433 582 402 600 q 496 546 464 564 q 573 498 536 523 q 639 442 610 473 q 685 371 667 411 q 702 279 702 332 q 578 57 702 136 q 271 -22 454 -22 q 28 14 154 -22 l 25 20 l 97 267 l 140 273 l 159 64 q 273 45 212 45 q 440 92 373 45 q 507 217 507 138 q 492 282 507 254 q 451 332 476 310 q 395 371 426 353 q 332 406 363 388 q 261 447 298 425 q 196 501 225 470 q 148 573 166 532 q 129 671 129 614 q 242 887 129 810 q 543 965 355 965 q 772 935 660 965 l 774 928 l 699 709 l 660 703 l 638 886 m 534 1100 l 302 1000 l 284 1036 l 489 1204 l 603 1204 l 767 1032 l 742 1000 l 534 1100 m 109 949 z "},"Š":{"ha":758,"x_min":25,"x_max":783,"o":"m 638 886 q 542 900 593 900 q 382 855 446 900 q 320 732 319 810 q 337 669 321 696 q 377 621 353 642 q 433 582 402 600 q 496 546 464 564 q 573 498 536 523 q 639 442 610 473 q 685 371 667 411 q 702 279 702 332 q 578 57 702 136 q 271 -22 454 -22 q 28 14 154 -22 l 25 20 l 97 267 l 140 273 l 159 64 q 273 45 212 45 q 440 92 373 45 q 507 217 507 138 q 492 282 507 254 q 451 332 476 310 q 395 371 426 353 q 332 406 363 388 q 261 447 298 425 q 196 501 225 470 q 148 573 166 532 q 129 671 129 614 q 242 887 129 810 q 543 965 355 965 q 772 935 660 965 l 774 928 l 699 709 l 660 703 l 638 886 m 533 1120 l 764 1220 l 783 1185 l 580 1016 l 466 1016 l 300 1188 l 325 1220 l 533 1120 m 109 949 z "},"Ş":{"ha":758,"x_min":25,"x_max":774,"o":"m 189 -128 l 271 -22 q 28 14 153 -22 l 25 20 l 97 267 l 140 273 l 159 64 q 273 45 212 45 q 440 92 373 45 q 507 217 507 138 q 492 282 507 254 q 451 332 476 310 q 395 371 426 353 q 332 406 363 388 q 261 447 298 425 q 196 501 225 470 q 148 573 166 532 q 129 671 129 614 q 242 887 129 810 q 543 965 355 965 q 772 935 660 965 l 774 928 l 699 709 l 660 703 l 638 886 q 542 900 593 900 q 382 855 446 900 q 320 732 319 810 q 337 669 321 696 q 377 621 353 642 q 433 582 402 600 q 496 546 464 564 q 573 498 536 523 q 639 442 610 473 q 685 371 667 411 q 702 279 702 332 q 596 71 702 148 q 335 -20 491 -7 l 296 -72 q 365 -163 365 -106 q 222 -335 365 -239 l 197 -307 q 263 -207 263 -253 q 191 -134 263 -158 l 189 -128 z "},"Ș":{"ha":758,"x_min":25,"x_max":774,"o":"m 638 886 q 542 900 593 900 q 382 855 446 900 q 320 732 319 810 q 337 669 321 696 q 377 621 353 642 q 433 582 402 600 q 496 546 464 564 q 573 498 536 523 q 639 442 610 473 q 685 371 667 411 q 702 279 702 332 q 578 57 702 136 q 271 -22 454 -22 q 28 14 154 -22 l 25 20 l 97 267 l 140 273 l 159 64 q 273 45 212 45 q 440 92 373 45 q 507 217 507 138 q 492 282 507 254 q 451 332 476 310 q 395 371 426 353 q 332 406 363 388 q 261 447 298 425 q 196 501 225 470 q 148 573 166 532 q 129 671 129 614 q 242 887 129 810 q 543 965 355 965 q 772 935 660 965 l 774 928 l 699 709 l 660 703 l 638 886 m 186 -313 q 260 -201 260 -256 q 210 -128 260 -155 q 231 -74 210 -94 q 283 -54 252 -54 q 338 -79 317 -54 q 359 -142 359 -104 q 210 -340 359 -249 l 186 -313 z "},"Ť":{"ha":859,"x_min":103,"x_max":969,"o":"m 239 878 l 142 696 l 103 690 l 131 944 l 137 949 q 300 947 222 948 q 454 947 378 947 l 641 947 q 800 947 719 947 q 966 949 881 948 l 969 944 l 880 696 l 842 690 l 833 878 l 635 878 l 509 216 q 495 142 501 176 q 484 82 488 109 q 503 59 482 65 l 595 33 l 590 -2 q 371 0 465 0 q 153 -2 271 0 l 155 33 l 258 60 q 281 81 277 65 q 294 142 287 108 q 308 216 300 176 l 435 878 l 239 878 m 564 1120 l 795 1220 l 814 1185 l 611 1016 l 497 1016 l 331 1188 l 356 1220 l 564 1120 m 140 949 z "},"Ț":{"ha":859,"x_min":103,"x_max":969,"o":"m 239 878 l 142 696 l 103 690 l 131 944 l 137 949 q 300 947 222 948 q 454 947 378 947 l 641 947 q 800 947 719 947 q 966 949 881 948 l 969 944 l 880 696 l 842 690 l 833 878 l 635 878 l 509 216 q 495 142 501 176 q 484 82 488 109 q 503 59 482 65 l 595 33 l 590 -2 q 371 0 465 0 q 153 -2 271 0 l 155 33 l 258 60 q 281 81 277 65 q 294 142 287 108 q 308 216 300 176 l 435 878 l 239 878 m 243 -313 q 317 -201 317 -256 q 267 -128 317 -155 q 288 -74 267 -94 q 340 -54 309 -54 q 395 -79 374 -54 q 416 -142 416 -104 q 267 -340 416 -249 l 243 -313 z "},"Ŧ":{"ha":859,"x_min":103,"x_max":969,"o":"m 239 878 l 142 696 l 103 690 l 131 944 l 137 949 q 300 947 222 948 q 454 947 378 947 l 641 947 q 800 947 719 947 q 966 949 881 948 l 969 944 l 880 696 l 842 690 l 833 878 l 635 878 l 564 508 l 732 508 l 720 437 l 551 437 l 509 216 q 495 142 501 176 q 484 82 488 109 q 503 59 482 65 l 595 33 l 590 -2 q 371 0 465 0 q 153 -2 271 0 l 155 33 l 258 60 q 281 81 277 65 q 294 142 287 108 q 308 216 300 176 l 350 437 l 183 437 l 196 508 l 363 508 l 435 878 l 239 878 z "},"Ù":{"ha":1019,"x_min":144,"x_max":1101,"o":"m 150 949 q 257 947 208 948 q 354 947 307 947 q 453 947 403 947 q 555 949 503 948 l 551 915 l 467 890 q 448 869 452 886 q 438 817 443 845 q 427 755 433 789 l 361 405 q 345 264 345 321 q 392 111 345 164 q 530 58 439 58 q 635 81 592 58 q 709 146 679 105 q 757 242 739 186 q 789 360 776 297 l 863 755 q 874 817 869 789 q 883 869 879 845 q 869 890 885 886 l 785 913 l 791 949 q 878 947 840 948 q 947 947 916 947 q 1016 947 978 947 q 1101 949 1054 948 l 1097 915 l 1002 888 q 981 865 985 884 q 971 815 977 843 q 959 753 966 787 l 893 410 q 843 227 873 307 q 767 91 814 146 q 650 6 720 35 q 480 -22 581 -22 q 232 53 320 -22 q 144 275 144 129 q 157 393 144 330 l 225 753 q 237 815 232 787 q 245 865 241 843 q 233 888 249 883 l 144 915 l 150 949 m 467 1127 l 572 1221 l 796 1034 l 775 999 l 467 1117 l 467 1127 m 244 949 z "},"Ú":{"ha":1019,"x_min":144,"x_max":1101,"o":"m 150 949 q 257 947 208 948 q 354 947 307 947 q 453 947 403 947 q 555 949 503 948 l 551 915 l 467 890 q 448 869 452 886 q 438 817 443 845 q 427 755 433 789 l 361 405 q 345 264 345 321 q 392 111 345 164 q 530 58 439 58 q 635 81 592 58 q 709 146 679 105 q 757 242 739 186 q 789 360 776 297 l 863 755 q 874 817 869 789 q 883 869 879 845 q 869 890 885 886 l 785 913 l 791 949 q 878 947 840 948 q 947 947 916 947 q 1016 947 978 947 q 1101 949 1054 948 l 1097 915 l 1002 888 q 981 865 985 884 q 971 815 977 843 q 959 753 966 787 l 893 410 q 843 227 873 307 q 767 91 814 146 q 650 6 720 35 q 480 -22 581 -22 q 232 53 320 -22 q 144 275 144 129 q 157 393 144 330 l 225 753 q 237 815 232 787 q 245 865 241 843 q 233 888 249 883 l 144 915 l 150 949 m 846 1117 l 517 999 l 496 1034 l 741 1221 l 846 1127 l 846 1117 m 244 949 z "},"Û":{"ha":1019,"x_min":144,"x_max":1101,"o":"m 150 949 q 257 947 208 948 q 354 947 307 947 q 453 947 403 947 q 555 949 503 948 l 551 915 l 467 890 q 448 869 452 886 q 438 817 443 845 q 427 755 433 789 l 361 405 q 345 264 345 321 q 392 111 345 164 q 530 58 439 58 q 635 81 592 58 q 709 146 679 105 q 757 242 739 186 q 789 360 776 297 l 863 755 q 874 817 869 789 q 883 869 879 845 q 869 890 885 886 l 785 913 l 791 949 q 878 947 840 948 q 947 947 916 947 q 1016 947 978 947 q 1101 949 1054 948 l 1097 915 l 1002 888 q 981 865 985 884 q 971 815 977 843 q 959 753 966 787 l 893 410 q 843 227 873 307 q 767 91 814 146 q 650 6 720 35 q 480 -22 581 -22 q 232 53 320 -22 q 144 275 144 129 q 157 393 144 330 l 225 753 q 237 815 232 787 q 245 865 241 843 q 233 888 249 883 l 144 915 l 150 949 m 669 1100 l 438 1000 l 420 1036 l 625 1204 l 739 1204 l 903 1032 l 878 1000 l 669 1100 m 244 949 z "},"Ũ":{"ha":1019,"x_min":144,"x_max":1101,"o":"m 150 949 q 257 947 208 948 q 354 947 307 947 q 453 947 403 947 q 555 949 503 948 l 551 915 l 467 890 q 448 869 452 886 q 438 817 443 845 q 427 755 433 789 l 361 405 q 345 264 345 321 q 392 111 345 164 q 530 58 439 58 q 635 81 592 58 q 709 146 679 105 q 757 242 739 186 q 789 360 776 297 l 863 755 q 874 817 869 789 q 883 869 879 845 q 869 890 885 886 l 785 913 l 791 949 q 878 947 840 948 q 947 947 916 947 q 1016 947 978 947 q 1101 949 1054 948 l 1097 915 l 1002 888 q 981 865 985 884 q 971 815 977 843 q 959 753 966 787 l 893 410 q 843 227 873 307 q 767 91 814 146 q 650 6 720 35 q 480 -22 581 -22 q 232 53 320 -22 q 144 275 144 129 q 157 393 144 330 l 225 753 q 237 815 232 787 q 245 865 241 843 q 233 888 249 883 l 144 915 l 150 949 m 910 1178 q 753 1034 829 1034 q 706 1044 728 1034 q 659 1070 684 1055 q 637 1083 646 1078 q 619 1093 628 1088 q 602 1098 610 1097 q 586 1100 594 1100 q 549 1089 566 1100 q 492 1035 532 1078 l 458 1063 q 541 1172 507 1141 q 612 1204 575 1204 q 650 1197 632 1204 q 702 1171 669 1190 q 728 1156 717 1162 q 747 1146 739 1150 q 764 1139 756 1141 q 781 1137 772 1137 q 818 1148 803 1137 q 874 1203 833 1159 l 910 1178 m 244 949 z "},"Ü":{"ha":1019,"x_min":144,"x_max":1101,"o":"m 150 949 q 257 947 208 948 q 354 947 307 947 q 453 947 403 947 q 555 949 503 948 l 551 915 l 467 890 q 448 869 452 886 q 438 817 443 845 q 427 755 433 789 l 361 405 q 345 264 345 321 q 392 111 345 164 q 530 58 439 58 q 635 81 592 58 q 709 146 679 105 q 757 242 739 186 q 789 360 776 297 l 863 755 q 874 817 869 789 q 883 869 879 845 q 869 890 885 886 l 785 913 l 791 949 q 878 947 840 948 q 947 947 916 947 q 1016 947 978 947 q 1101 949 1054 948 l 1097 915 l 1002 888 q 981 865 985 884 q 971 815 977 843 q 959 753 966 787 l 893 410 q 843 227 873 307 q 767 91 814 146 q 650 6 720 35 q 480 -22 581 -22 q 232 53 320 -22 q 144 275 144 129 q 157 393 144 330 l 225 753 q 237 815 232 787 q 245 865 241 843 q 233 888 249 883 l 144 915 l 150 949 m 621 1122 q 597 1056 621 1081 q 533 1031 572 1031 q 472 1055 495 1031 q 448 1116 448 1078 q 473 1181 448 1158 q 538 1204 498 1204 q 598 1183 575 1204 q 621 1122 621 1162 m 899 1122 q 874 1056 899 1081 q 810 1031 849 1031 q 749 1055 772 1031 q 726 1116 726 1078 q 750 1181 726 1158 q 814 1204 774 1204 q 876 1183 852 1204 q 899 1122 899 1162 m 244 949 z "},"Ū":{"ha":1019,"x_min":144,"x_max":1101,"o":"m 150 949 q 257 947 208 948 q 354 947 307 947 q 453 947 403 947 q 555 949 503 948 l 551 915 l 467 890 q 448 869 452 886 q 438 817 443 845 q 427 755 433 789 l 361 405 q 345 264 345 321 q 392 111 345 164 q 530 58 439 58 q 635 81 592 58 q 709 146 679 105 q 757 242 739 186 q 789 360 776 297 l 863 755 q 874 817 869 789 q 883 869 879 845 q 869 890 885 886 l 785 913 l 791 949 q 878 947 840 948 q 947 947 916 947 q 1016 947 978 947 q 1101 949 1054 948 l 1097 915 l 1002 888 q 981 865 985 884 q 971 815 977 843 q 959 753 966 787 l 893 410 q 843 227 873 307 q 767 91 814 146 q 650 6 720 35 q 480 -22 581 -22 q 232 53 320 -22 q 144 275 144 129 q 157 393 144 330 l 225 753 q 237 815 232 787 q 245 865 241 843 q 233 888 249 883 l 144 915 l 150 949 m 471 1056 l 488 1139 l 874 1139 l 858 1056 l 471 1056 m 244 949 z "},"Ŭ":{"ha":1019,"x_min":144,"x_max":1101,"o":"m 150 949 q 257 947 208 948 q 354 947 307 947 q 453 947 403 947 q 555 949 503 948 l 551 915 l 467 890 q 448 869 452 886 q 438 817 443 845 q 427 755 433 789 l 361 405 q 345 264 345 321 q 392 111 345 164 q 530 58 439 58 q 635 81 592 58 q 709 146 679 105 q 757 242 739 186 q 789 360 776 297 l 863 755 q 874 817 869 789 q 883 869 879 845 q 869 890 885 886 l 785 913 l 791 949 q 878 947 840 948 q 947 947 916 947 q 1016 947 978 947 q 1101 949 1054 948 l 1097 915 l 1002 888 q 981 865 985 884 q 971 815 977 843 q 959 753 966 787 l 893 410 q 843 227 873 307 q 767 91 814 146 q 650 6 720 35 q 480 -22 581 -22 q 232 53 320 -22 q 144 275 144 129 q 157 393 144 330 l 225 753 q 237 815 232 787 q 245 865 241 843 q 233 888 249 883 l 144 915 l 150 949 m 551 1236 q 582 1151 551 1180 q 675 1122 612 1122 q 771 1151 732 1122 q 833 1231 811 1179 l 882 1236 q 810 1081 868 1142 q 663 1021 753 1021 q 540 1062 582 1021 q 498 1182 498 1103 q 503 1231 498 1204 l 551 1236 m 244 949 z "},"Ů":{"ha":1019,"x_min":144,"x_max":1101,"o":"m 150 949 q 257 947 208 948 q 354 947 307 947 q 453 947 403 947 q 555 949 503 948 l 551 915 l 467 890 q 448 869 452 886 q 438 817 443 845 q 427 755 433 789 l 361 405 q 345 264 345 321 q 392 111 345 164 q 530 58 439 58 q 635 81 592 58 q 709 146 679 105 q 757 242 739 186 q 789 360 776 297 l 863 755 q 874 817 869 789 q 883 869 879 845 q 869 890 885 886 l 785 913 l 791 949 q 878 947 840 948 q 947 947 916 947 q 1016 947 978 947 q 1101 949 1054 948 l 1097 915 l 1002 888 q 981 865 985 884 q 971 815 977 843 q 959 753 966 787 l 893 410 q 843 227 873 307 q 767 91 814 146 q 650 6 720 35 q 480 -22 581 -22 q 232 53 320 -22 q 144 275 144 129 q 157 393 144 330 l 225 753 q 237 815 232 787 q 245 865 241 843 q 233 888 249 883 l 144 915 l 150 949 m 660 996 q 561 1024 597 996 q 524 1101 524 1053 q 575 1205 524 1164 q 695 1245 626 1245 q 790 1215 751 1245 q 830 1137 830 1185 q 781 1035 830 1074 q 660 996 732 996 m 667 1040 q 724 1066 703 1040 q 745 1134 745 1092 q 730 1182 745 1163 q 688 1200 715 1200 q 630 1174 651 1200 q 608 1105 608 1147 q 624 1059 608 1078 q 667 1040 639 1040 m 244 949 z "},"Ű":{"ha":1019,"x_min":144,"x_max":1101,"o":"m 150 949 q 257 947 208 948 q 354 947 307 947 q 453 947 403 947 q 555 949 503 948 l 551 915 l 467 890 q 448 869 452 886 q 438 817 443 845 q 427 755 433 789 l 361 405 q 345 264 345 321 q 392 111 345 164 q 530 58 439 58 q 635 81 592 58 q 709 146 679 105 q 757 242 739 186 q 789 360 776 297 l 863 755 q 874 817 869 789 q 883 869 879 845 q 869 890 885 886 l 785 913 l 791 949 q 878 947 840 948 q 947 947 916 947 q 1016 947 978 947 q 1101 949 1054 948 l 1097 915 l 1002 888 q 981 865 985 884 q 971 815 977 843 q 959 753 966 787 l 893 410 q 843 227 873 307 q 767 91 814 146 q 650 6 720 35 q 480 -22 581 -22 q 232 53 320 -22 q 144 275 144 129 q 157 393 144 330 l 225 753 q 237 815 232 787 q 245 865 241 843 q 233 888 249 883 l 144 915 l 150 949 m 607 1204 l 767 1204 l 570 1013 l 516 1013 l 607 1204 m 808 1204 l 968 1204 l 771 1013 l 718 1013 l 808 1204 m 244 949 z "},"Ų":{"ha":1019,"x_min":144,"x_max":1101,"o":"m 150 949 q 257 947 208 948 q 354 947 307 947 q 453 947 403 947 q 555 949 503 948 l 551 915 l 467 890 q 448 869 452 886 q 438 817 443 845 q 427 755 433 789 l 361 405 q 345 264 345 321 q 392 111 345 164 q 530 58 439 58 q 635 81 592 58 q 709 146 679 105 q 757 242 739 186 q 789 360 776 297 l 863 755 q 874 817 869 789 q 883 869 879 845 q 869 890 885 886 l 785 913 l 791 949 q 878 947 840 948 q 947 947 916 947 q 1016 947 978 947 q 1101 949 1054 948 l 1097 915 l 1002 888 q 981 865 985 884 q 971 815 977 843 q 959 753 966 787 l 893 410 q 843 227 873 307 q 762 85 814 146 q 608 -8 709 24 q 516 -76 548 -27 q 484 -174 484 -125 q 510 -241 484 -217 q 583 -265 536 -265 q 635 -259 606 -265 l 642 -294 q 458 -336 526 -336 q 349 -304 390 -336 q 309 -218 309 -272 q 467 -25 309 -108 l 466 -22 q 230 55 315 -19 q 144 275 144 129 q 157 393 144 330 l 225 753 q 237 815 232 787 q 245 865 241 843 q 233 888 249 883 l 144 915 l 150 949 z "},"Ẁ":{"ha":1339,"x_min":87,"x_max":1487,"o":"m 1173 949 q 1259 947 1219 947 q 1337 947 1298 947 q 1414 947 1375 947 q 1487 949 1452 947 l 1482 914 l 1407 893 q 1378 880 1390 888 q 1357 862 1366 872 q 1340 840 1348 852 q 1327 817 1333 829 l 896 -1 l 813 -8 l 740 543 l 732 623 l 691 543 l 398 -1 l 319 -8 l 211 807 q 206 841 208 826 q 198 866 203 855 q 184 884 193 877 q 159 895 175 891 l 87 914 l 92 949 q 201 947 147 947 q 304 947 254 947 q 515 949 397 947 l 512 914 l 446 895 q 423 883 432 890 q 414 854 414 876 q 416 823 414 843 q 421 772 418 802 l 469 387 l 477 301 l 521 387 l 822 950 l 891 956 l 962 388 l 970 301 l 1013 388 l 1208 770 q 1241 836 1228 810 q 1253 873 1253 862 q 1230 895 1253 888 l 1166 913 l 1173 949 m 663 1127 l 769 1221 l 993 1034 l 972 999 l 663 1117 l 663 1127 m 441 949 z "},"Ẃ":{"ha":1339,"x_min":87,"x_max":1487,"o":"m 1173 949 q 1259 947 1219 947 q 1337 947 1298 947 q 1414 947 1375 947 q 1487 949 1452 947 l 1482 914 l 1407 893 q 1378 880 1390 888 q 1357 862 1366 872 q 1340 840 1348 852 q 1327 817 1333 829 l 896 -1 l 813 -8 l 740 543 l 732 623 l 691 543 l 398 -1 l 319 -8 l 211 807 q 206 841 208 826 q 198 866 203 855 q 184 884 193 877 q 159 895 175 891 l 87 914 l 92 949 q 201 947 147 947 q 304 947 254 947 q 515 949 397 947 l 512 914 l 446 895 q 423 883 432 890 q 414 854 414 876 q 416 823 414 843 q 421 772 418 802 l 469 387 l 477 301 l 521 387 l 822 950 l 891 956 l 962 388 l 970 301 l 1013 388 l 1208 770 q 1241 836 1228 810 q 1253 873 1253 862 q 1230 895 1253 888 l 1166 913 l 1173 949 m 1043 1117 l 714 999 l 693 1034 l 937 1221 l 1043 1127 l 1043 1117 m 441 949 z "},"Ŵ":{"ha":1339,"x_min":87,"x_max":1487,"o":"m 1173 949 q 1259 947 1219 947 q 1337 947 1298 947 q 1414 947 1375 947 q 1487 949 1452 947 l 1482 914 l 1407 893 q 1378 880 1390 888 q 1357 862 1366 872 q 1340 840 1348 852 q 1327 817 1333 829 l 896 -1 l 813 -8 l 740 543 l 732 623 l 691 543 l 398 -1 l 319 -8 l 211 807 q 206 841 208 826 q 198 866 203 855 q 184 884 193 877 q 159 895 175 891 l 87 914 l 92 949 q 201 947 147 947 q 304 947 254 947 q 515 949 397 947 l 512 914 l 446 895 q 423 883 432 890 q 414 854 414 876 q 416 823 414 843 q 421 772 418 802 l 469 387 l 477 301 l 521 387 l 822 950 l 891 956 l 962 388 l 970 301 l 1013 388 l 1208 770 q 1241 836 1228 810 q 1253 873 1253 862 q 1230 895 1253 888 l 1166 913 l 1173 949 m 859 1100 l 628 1000 l 610 1036 l 814 1204 l 928 1204 l 1093 1032 l 1067 1000 l 859 1100 m 434 949 z "},"Ẅ":{"ha":1339,"x_min":87,"x_max":1487,"o":"m 1173 949 q 1259 947 1219 947 q 1337 947 1298 947 q 1414 947 1375 947 q 1487 949 1452 947 l 1482 914 l 1407 893 q 1378 880 1390 888 q 1357 862 1366 872 q 1340 840 1348 852 q 1327 817 1333 829 l 896 -1 l 813 -8 l 740 543 l 732 623 l 691 543 l 398 -1 l 319 -8 l 211 807 q 206 841 208 826 q 198 866 203 855 q 184 884 193 877 q 159 895 175 891 l 87 914 l 92 949 q 201 947 147 947 q 304 947 254 947 q 515 949 397 947 l 512 914 l 446 895 q 423 883 432 890 q 414 854 414 876 q 416 823 414 843 q 421 772 418 802 l 469 387 l 477 301 l 521 387 l 822 950 l 891 956 l 962 388 l 970 301 l 1013 388 l 1208 770 q 1241 836 1228 810 q 1253 873 1253 862 q 1230 895 1253 888 l 1166 913 l 1173 949 m 811 1122 q 787 1056 811 1081 q 723 1031 762 1031 q 662 1055 685 1031 q 638 1116 638 1078 q 663 1181 638 1158 q 728 1204 688 1204 q 788 1183 765 1204 q 811 1122 811 1162 m 1088 1122 q 1064 1056 1088 1081 q 1000 1031 1039 1031 q 939 1055 962 1031 q 916 1116 916 1078 q 940 1181 916 1158 q 1004 1204 964 1204 q 1065 1183 1042 1204 q 1088 1122 1088 1162 m 434 949 z "},"Ỳ":{"ha":855,"x_min":71,"x_max":1010,"o":"m 715 774 q 756 832 739 806 q 774 873 774 859 q 749 897 774 890 l 689 913 l 694 949 q 856 947 776 947 q 1010 949 932 947 l 1006 915 l 926 893 q 884 869 900 886 q 850 829 868 853 l 559 434 l 517 214 q 503 140 509 173 q 492 79 497 106 q 511 56 490 62 l 594 33 l 588 -2 q 376 0 473 0 q 172 -2 279 0 l 175 33 l 267 58 q 290 79 285 62 q 302 139 295 106 q 317 214 309 173 l 357 426 l 206 810 q 176 870 189 852 q 139 896 164 888 l 71 915 l 74 949 q 281 947 157 947 q 498 949 380 947 l 497 915 l 429 897 q 406 886 414 894 q 397 863 397 878 q 420 789 397 845 l 526 511 l 715 774 m 392 1127 l 498 1221 l 722 1034 l 701 999 l 392 1117 l 392 1127 m 170 949 z "},"Ý":{"ha":855,"x_min":71,"x_max":1010,"o":"m 715 774 q 756 832 739 806 q 774 873 774 859 q 749 897 774 890 l 689 913 l 694 949 q 856 947 776 947 q 1010 949 932 947 l 1006 915 l 926 893 q 884 869 900 886 q 850 829 868 853 l 559 434 l 517 214 q 503 140 509 173 q 492 79 497 106 q 511 56 490 62 l 594 33 l 588 -2 q 376 0 473 0 q 172 -2 279 0 l 175 33 l 267 58 q 290 79 285 62 q 302 139 295 106 q 317 214 309 173 l 357 426 l 206 810 q 176 870 189 852 q 139 896 164 888 l 71 915 l 74 949 q 281 947 157 947 q 498 949 380 947 l 497 915 l 429 897 q 406 886 414 894 q 397 863 397 878 q 420 789 397 845 l 526 511 l 715 774 m 772 1117 l 443 999 l 422 1034 l 666 1221 l 772 1127 l 772 1117 m 170 949 z "},"Ŷ":{"ha":855,"x_min":71,"x_max":1010,"o":"m 715 774 q 756 832 739 806 q 774 873 774 859 q 749 897 774 890 l 689 913 l 694 949 q 856 947 776 947 q 1010 949 932 947 l 1006 915 l 926 893 q 884 869 900 886 q 850 829 868 853 l 559 434 l 517 214 q 503 140 509 173 q 492 79 497 106 q 511 56 490 62 l 594 33 l 588 -2 q 376 0 473 0 q 172 -2 279 0 l 175 33 l 267 58 q 290 79 285 62 q 302 139 295 106 q 317 214 309 173 l 357 426 l 206 810 q 176 870 189 852 q 139 896 164 888 l 71 915 l 74 949 q 281 947 157 947 q 498 949 380 947 l 497 915 l 429 897 q 406 886 414 894 q 397 863 397 878 q 420 789 397 845 l 526 511 l 715 774 m 595 1100 l 363 1000 l 345 1036 l 550 1204 l 664 1204 l 828 1032 l 803 1000 l 595 1100 m 170 949 z "},"Ÿ":{"ha":855,"x_min":71,"x_max":1010,"o":"m 715 774 q 756 832 739 806 q 774 873 774 859 q 749 897 774 890 l 689 913 l 694 949 q 856 947 776 947 q 1010 949 932 947 l 1006 915 l 926 893 q 884 869 900 886 q 850 829 868 853 l 559 434 l 517 214 q 503 140 509 173 q 492 79 497 106 q 511 56 490 62 l 594 33 l 588 -2 q 376 0 473 0 q 172 -2 279 0 l 175 33 l 267 58 q 290 79 285 62 q 302 139 295 106 q 317 214 309 173 l 357 426 l 206 810 q 176 870 189 852 q 139 896 164 888 l 71 915 l 74 949 q 281 947 157 947 q 498 949 380 947 l 497 915 l 429 897 q 406 886 414 894 q 397 863 397 878 q 420 789 397 845 l 526 511 l 715 774 m 547 1122 q 522 1056 547 1081 q 458 1031 498 1031 q 397 1055 420 1031 q 374 1116 374 1078 q 398 1181 374 1158 q 463 1204 423 1204 q 524 1183 500 1204 q 547 1122 547 1162 m 824 1122 q 799 1056 824 1081 q 735 1031 774 1031 q 674 1055 698 1031 q 651 1116 651 1078 q 675 1181 651 1158 q 740 1204 700 1204 q 801 1183 778 1204 q 824 1122 824 1162 m 170 949 z "},"Ź":{"ha":833,"x_min":-15,"x_max":892,"o":"m -15 -2 l -12 32 l 631 878 l 292 878 l 218 713 l 179 708 l 183 944 l 189 949 q 511 947 361 947 l 683 947 q 892 949 793 947 l 888 915 l 245 70 l 608 70 l 734 268 l 775 274 l 711 3 l 707 -2 q 352 0 501 0 l 163 0 q -15 -2 68 0 m 731 1117 l 402 999 l 381 1034 l 625 1221 l 731 1127 l 731 1117 m 129 949 z "},"Ž":{"ha":833,"x_min":-15,"x_max":892,"o":"m -15 -2 l -12 32 l 631 878 l 292 878 l 218 713 l 179 708 l 183 944 l 189 949 q 511 947 361 947 l 683 947 q 892 949 793 947 l 888 915 l 245 70 l 608 70 l 734 268 l 775 274 l 711 3 l 707 -2 q 352 0 501 0 l 163 0 q -15 -2 68 0 m 553 1120 l 785 1220 l 803 1185 l 600 1016 l 486 1016 l 320 1188 l 345 1220 l 553 1120 m 129 949 z "},"Ż":{"ha":833,"x_min":-15,"x_max":892,"o":"m -15 -2 l -12 32 l 631 878 l 292 878 l 218 713 l 179 708 l 183 944 l 189 949 q 511 947 361 947 l 683 947 q 892 949 793 947 l 888 915 l 245 70 l 608 70 l 734 268 l 775 274 l 711 3 l 707 -2 q 352 0 501 0 l 163 0 q -15 -2 68 0 m 657 1126 q 629 1057 657 1084 q 559 1030 602 1030 q 492 1055 518 1030 q 465 1120 465 1080 q 493 1189 465 1164 q 564 1215 521 1215 q 631 1191 605 1215 q 657 1126 657 1168 m 129 949 z "},"Ŋ":{"ha":1000,"x_min":-14,"x_max":1084,"o":"m 765 298 l 783 397 l 851 756 q 863 818 858 789 q 871 869 868 846 q 858 890 873 884 l 775 913 l 781 949 q 865 947 827 948 q 932 947 903 947 q 1000 947 962 947 q 1084 949 1037 948 l 1080 915 l 983 888 q 962 866 966 883 q 951 816 957 844 q 939 753 945 788 l 834 205 q 810 83 823 144 q 779 -33 797 22 q 735 -135 761 -88 q 673 -216 710 -182 q 586 -271 636 -251 q 467 -290 535 -290 q 392 -281 429 -290 q 429 -117 406 -199 l 436 -114 q 556 -135 508 -135 q 649 -101 614 -135 q 707 18 683 -67 l 347 606 q 307 681 330 637 q 298 631 302 654 q 290 586 294 607 l 221 213 q 208 139 214 172 q 197 81 202 106 q 210 57 194 61 l 292 33 l 288 -2 q 139 0 197 0 q -14 -2 80 0 l -12 32 l 85 57 q 106 78 103 62 q 119 139 113 106 q 134 213 126 172 l 234 753 q 245 816 240 788 q 254 866 250 844 q 241 888 256 883 l 156 915 l 161 949 q 244 947 208 948 q 305 947 280 947 q 338 947 322 947 q 372 949 355 948 l 724 372 q 765 297 743 336 l 765 298 z "},"Ð":{"ha":1103,"x_min":3,"x_max":1064,"o":"m 200 0 q 3 -2 99 0 l 7 33 l 98 58 q 121 79 119 63 q 134 139 127 106 q 149 214 140 173 l 196 465 l 87 465 l 101 536 l 210 536 l 251 753 q 262 815 258 787 q 271 865 267 843 q 259 888 274 882 l 170 915 l 176 949 q 382 947 279 947 q 490 950 425 947 q 604 954 554 954 q 943 861 821 954 q 1064 588 1064 769 q 886 162 1064 328 q 421 -4 707 -4 q 326 -2 369 -4 q 200 0 282 0 m 321 67 q 418 59 372 59 q 735 203 619 59 q 850 589 850 348 q 788 815 850 742 q 595 888 725 888 q 477 882 545 888 l 410 536 l 596 536 l 583 465 l 397 465 l 321 67 z "},"Þ":{"ha":864,"x_min":3,"x_max":857,"o":"m 349 214 q 334 140 340 173 q 324 79 328 106 q 343 56 322 62 l 426 33 l 420 -2 q 212 0 305 0 q 3 -2 111 0 l 6 33 l 98 58 q 121 79 117 63 q 133 139 127 105 q 148 214 140 173 l 252 753 q 263 815 258 787 q 271 865 268 843 q 260 888 275 884 l 171 915 l 177 949 q 288 947 235 948 q 389 947 340 947 q 489 947 438 947 q 595 949 540 948 l 590 915 l 497 890 q 476 869 480 886 q 465 817 470 845 q 457 780 461 800 q 513 782 490 782 q 766 721 675 782 q 857 539 857 659 q 741 307 857 393 q 450 220 624 220 q 353 229 399 220 l 352 232 l 349 214 m 427 284 q 586 349 527 284 q 644 534 644 414 q 602 668 644 620 q 492 716 560 716 q 444 711 468 716 l 363 292 q 427 284 389 284 z "},"a":{"ha":804,"x_min":48,"x_max":741,"o":"m 741 631 q 690 420 716 549 l 629 118 q 626 92 626 102 q 632 70 626 78 q 650 56 637 61 q 683 50 663 51 q 732 48 703 48 l 727 16 q 548 -12 608 -12 q 468 11 497 -12 q 439 76 439 33 l 439 90 q 262 -18 317 -18 q 109 53 170 -18 q 48 233 48 123 q 165 522 48 404 q 460 640 282 640 q 630 615 539 640 q 730 639 680 624 l 741 631 m 532 561 q 448 578 495 578 q 302 476 359 578 q 244 258 244 374 q 266 137 244 189 q 315 85 287 85 q 449 158 353 85 l 532 561 z "},"b":{"ha":799,"x_min":57,"x_max":744,"o":"m 445 1021 l 453 1013 q 439 955 447 987 q 424 883 432 922 q 406 800 415 844 q 387 709 397 755 l 357 565 q 551 639 504 639 q 689 570 635 639 q 744 406 744 500 q 622 98 744 214 q 305 -18 500 -18 q 57 26 186 -18 q 109 262 77 104 l 175 585 l 243 917 l 131 933 l 132 962 q 445 1021 310 990 m 252 56 q 314 47 285 47 q 483 145 418 47 q 547 372 547 243 q 527 491 547 444 q 464 538 507 538 q 343 500 414 538 l 252 56 z "},"c":{"ha":680,"x_min":50,"x_max":648,"o":"m 554 136 l 577 102 q 313 -18 460 -18 q 124 53 199 -18 q 50 245 50 123 q 174 526 50 413 q 467 640 297 640 q 648 608 563 640 q 604 408 623 510 l 570 403 l 518 567 q 477 572 500 572 q 311 484 374 572 q 248 267 248 395 q 288 126 248 176 q 395 77 328 77 q 554 136 469 77 z "},"d":{"ha":807,"x_min":48,"x_max":821,"o":"m 496 933 l 497 962 q 812 1021 677 990 l 821 1013 q 807 955 814 987 q 791 883 800 922 q 773 800 783 844 q 754 709 764 755 l 675 330 l 633 118 q 629 92 629 102 q 635 70 629 78 q 653 56 641 61 q 686 50 666 51 q 735 48 706 48 l 730 16 q 551 -12 612 -12 q 472 11 500 -12 q 444 76 444 33 l 444 90 q 262 -18 318 -18 q 109 53 170 -18 q 48 233 48 123 q 164 522 48 404 q 458 640 281 640 q 551 633 502 640 l 609 917 l 496 933 m 536 561 q 446 578 496 578 q 301 476 358 578 q 244 258 244 374 q 266 137 244 189 q 315 85 287 85 q 453 158 354 85 l 536 561 z "},"e":{"ha":714,"x_min":48,"x_max":674,"o":"m 588 130 l 611 96 q 323 -17 481 -17 q 124 50 200 -17 q 48 234 48 117 q 172 524 48 407 q 471 640 295 640 q 621 605 568 640 q 674 501 674 569 q 566 360 674 416 q 245 293 457 303 q 244 262 244 277 q 281 123 244 171 q 393 75 319 75 q 588 130 490 75 m 251 347 q 486 498 486 369 q 469 552 486 534 q 427 570 452 570 q 321 508 371 570 q 251 347 271 446 z "},"f":{"ha":494,"x_min":-200,"x_max":730,"o":"m 172 549 l 72 576 l 74 605 l 184 615 q 336 917 226 812 q 595 1022 446 1022 q 730 1002 664 1022 q 681 808 702 909 l 643 802 l 607 954 q 572 958 593 958 q 465 900 510 958 q 386 671 419 842 l 375 616 l 553 616 l 539 545 l 362 545 l 258 44 q 138 -245 216 -155 q -77 -336 60 -336 q -200 -322 -130 -336 q -166 -180 -184 -248 l -157 -177 q -42 -266 -79 -266 q 22 -212 -4 -266 q 46 -137 35 -184 q 71 -18 58 -90 l 172 549 z "},"g":{"ha":793,"x_min":-16,"x_max":745,"o":"m 734 639 l 745 631 q 694 422 720 551 l 631 117 q 485 -227 584 -115 q 220 -340 386 -340 q -16 -302 106 -340 q 31 -132 5 -210 l 41 -127 q 266 -262 214 -262 q 359 -193 323 -262 q 427 27 395 -125 l 439 91 q 264 -12 321 -12 q 111 58 172 -12 q 49 237 49 128 q 165 524 49 407 q 459 640 282 640 q 634 615 546 640 q 734 639 686 625 m 537 561 q 447 578 499 578 q 302 477 359 578 q 245 262 245 376 q 266 144 245 197 q 317 92 288 92 q 454 165 355 92 l 537 561 z "},"h":{"ha":849,"x_min":55,"x_max":783,"o":"m 55 -3 l 243 917 l 131 933 l 132 962 q 447 1021 312 990 l 455 1013 q 441 955 449 987 q 426 883 434 922 q 408 800 417 844 q 389 709 399 755 l 358 560 q 601 640 491 640 q 716 601 675 640 q 757 495 757 562 q 749 433 757 466 l 682 111 q 680 101 680 106 q 679 91 679 96 q 686 68 679 77 q 706 57 692 60 q 739 52 719 53 q 783 51 758 51 l 781 20 q 594 -12 679 -12 q 514 7 541 -12 q 488 72 488 27 q 493 121 488 93 l 554 404 q 562 463 562 439 q 543 523 562 504 q 490 543 525 543 q 345 499 437 543 l 243 3 l 55 -3 z "},"i":{"ha":448,"x_min":70,"x_max":415,"o":"m 74 608 q 271 639 195 639 q 342 623 317 639 q 368 573 368 607 q 365 545 368 559 l 276 118 q 273 92 273 100 q 295 57 273 65 q 378 48 317 48 l 374 16 q 186 -12 258 -12 q 108 7 136 -12 q 80 67 80 27 q 85 115 80 86 l 167 508 q 172 543 172 535 q 157 569 172 562 q 70 576 141 576 l 74 608 m 415 878 q 387 803 415 831 q 315 774 358 774 q 247 801 274 774 q 220 870 220 828 q 248 945 220 918 q 320 972 277 972 q 388 947 361 972 q 415 878 415 922 z "},"j":{"ha":434,"x_min":-141,"x_max":418,"o":"m 73 576 l 77 608 q 274 639 198 639 q 345 623 319 639 q 370 573 370 607 q 368 545 370 559 l 272 83 q 168 -136 246 -43 q -109 -345 90 -229 l -141 -308 q 30 -104 1 -176 q 80 68 60 -31 l 170 508 q 175 543 175 535 q 159 569 175 562 q 73 576 144 576 m 418 878 q 389 803 418 831 q 318 774 361 774 q 250 801 277 774 q 222 870 222 828 q 251 945 222 918 q 323 972 279 972 q 391 947 364 972 q 418 878 418 922 z "},"k":{"ha":802,"x_min":58,"x_max":819,"o":"m 134 933 l 135 962 q 450 1021 315 989 l 458 1013 q 429 883 446 962 q 392 709 412 803 l 247 3 l 58 -3 l 247 917 l 134 933 m 756 -2 q 584 0 667 0 q 491 -1 532 0 q 426 152 466 71 q 328 333 386 234 q 513 507 445 436 q 606 623 581 578 q 662 623 627 623 q 819 625 740 623 l 816 591 q 755 578 783 585 q 705 562 728 571 q 661 538 682 552 q 617 504 640 524 l 500 395 l 649 118 q 672 78 663 92 q 693 55 682 64 q 720 42 705 47 q 762 31 736 37 l 756 -2 z "},"l":{"ha":443,"x_min":68,"x_max":452,"o":"m 128 933 l 129 962 q 444 1021 309 990 l 452 1013 q 439 955 446 987 q 423 883 431 922 q 405 800 414 844 q 386 709 396 755 l 264 117 q 262 90 262 104 q 280 59 262 68 q 368 48 298 49 l 364 16 q 177 -12 247 -12 q 95 8 122 -12 q 68 69 68 28 q 75 115 68 81 l 241 917 l 128 933 z "},"m":{"ha":1261,"x_min":64,"x_max":1195,"o":"m 64 -3 l 170 509 q 175 545 175 536 q 169 563 175 556 q 149 572 162 569 q 117 576 136 575 q 73 576 98 576 l 77 608 q 262 639 197 639 q 337 622 309 639 q 366 572 366 605 q 366 567 366 570 q 365 558 366 564 q 606 640 497 640 q 751 551 718 640 q 1013 640 897 640 q 1127 601 1086 640 q 1168 495 1168 562 q 1161 433 1168 466 l 1093 111 q 1091 101 1092 106 q 1090 91 1090 96 q 1097 68 1090 77 q 1117 57 1104 60 q 1150 52 1131 53 q 1195 51 1170 51 l 1192 20 q 1006 -12 1090 -12 q 926 7 953 -12 q 899 72 899 27 q 905 121 899 93 l 966 404 q 973 463 973 439 q 955 523 973 504 q 902 543 937 543 q 760 498 850 543 q 752 433 760 469 l 664 3 l 473 -3 l 557 404 q 564 463 564 441 q 547 523 564 504 q 495 543 530 543 q 355 499 444 543 l 254 3 l 64 -3 z "},"n":{"ha":859,"x_min":64,"x_max":793,"o":"m 64 -3 l 170 509 q 175 545 175 536 q 169 563 175 557 q 149 572 162 569 q 117 576 136 575 q 73 576 98 576 l 77 608 q 262 639 199 639 q 337 622 309 639 q 366 572 366 605 q 365 558 366 568 q 611 640 500 640 q 726 601 685 640 q 767 495 767 562 q 760 433 767 466 l 692 111 q 690 101 690 106 q 689 91 689 96 q 696 68 689 77 q 716 57 703 60 q 749 52 729 53 q 793 51 768 51 l 791 20 q 604 -12 689 -12 q 525 7 551 -12 q 498 72 498 27 q 503 121 498 93 l 564 404 q 572 463 572 439 q 553 523 572 504 q 500 543 535 543 q 355 499 448 543 l 254 3 l 64 -3 z "},"o":{"ha":814,"x_min":53,"x_max":755,"o":"m 433 640 q 667 564 580 640 q 755 359 755 488 q 649 89 755 196 q 374 -18 543 -18 q 139 58 226 -18 q 53 260 53 134 q 157 532 53 425 q 433 640 262 640 m 425 570 q 300 478 350 570 q 252 256 251 385 q 286 106 252 160 q 382 52 320 52 q 507 147 460 52 q 555 366 555 242 q 520 516 555 463 q 425 570 486 570 z "},"p":{"ha":807,"x_min":-95,"x_max":752,"o":"m -91 -296 l -9 -273 q 12 -252 9 -267 q 26 -190 18 -227 q 44 -102 34 -153 l 170 509 q 175 543 175 536 q 159 569 175 562 q 73 576 143 576 l 77 608 q 270 639 195 639 q 339 623 315 639 q 364 573 364 608 l 363 565 l 365 565 q 560 639 511 639 q 697 571 642 639 q 752 406 752 503 q 633 101 752 219 q 323 -16 514 -16 q 247 -11 288 -16 l 218 -152 q 207 -210 211 -186 q 200 -247 202 -233 q 214 -271 197 -267 l 312 -296 l 305 -330 q 102 -328 172 -328 q -95 -330 20 -328 l -91 -296 m 260 52 q 313 47 289 47 q 490 144 425 47 q 555 372 555 242 q 534 492 555 446 q 472 538 514 538 q 351 500 421 538 l 260 52 z "},"q":{"ha":797,"x_min":48,"x_max":745,"o":"m 256 -296 l 346 -273 q 368 -252 363 -268 q 437 85 385 -172 q 262 -18 317 -18 q 109 53 170 -18 q 48 233 48 123 q 164 522 48 404 q 458 640 281 640 q 633 615 543 640 q 733 639 684 624 l 745 631 q 694 420 720 549 l 585 -111 q 557 -251 562 -222 q 569 -274 555 -269 l 651 -296 l 645 -330 q 453 -328 534 -328 q 252 -330 370 -328 l 256 -296 m 535 561 q 446 578 496 578 q 301 476 358 578 q 244 258 244 374 q 266 137 244 189 q 315 85 287 85 q 452 158 354 85 l 535 561 z "},"r":{"ha":611,"x_min":64,"x_max":620,"o":"m 64 -3 l 170 509 q 175 545 175 538 q 169 563 175 556 q 149 572 162 569 q 117 576 136 575 q 73 576 98 576 l 77 608 q 262 639 197 639 q 337 622 309 639 q 366 572 366 605 q 365 557 366 566 q 615 640 490 640 l 620 634 q 573 410 595 528 l 531 404 q 501 504 519 477 q 450 531 484 531 q 355 501 414 531 l 254 3 l 64 -3 z "},"s":{"ha":632,"x_min":12,"x_max":597,"o":"m 476 563 q 400 574 435 574 q 294 550 332 574 q 257 481 257 527 q 268 446 257 461 q 296 419 278 431 q 338 395 315 406 q 386 372 361 384 q 446 342 416 358 q 498 304 475 326 q 536 255 521 283 q 551 189 551 227 q 472 36 551 90 q 256 -18 394 -18 q 128 -6 191 -18 q 12 26 64 6 q 34 112 23 67 q 54 203 45 157 l 88 209 l 132 62 q 230 48 182 48 q 329 74 292 48 q 366 149 366 100 q 355 185 366 170 q 326 214 344 201 q 285 238 308 227 q 237 260 262 249 q 182 289 209 273 q 134 326 155 304 q 99 374 112 347 q 85 439 85 402 q 169 587 85 534 q 391 640 252 640 q 597 608 498 640 q 576 530 587 573 q 556 437 566 486 l 523 431 l 476 563 z "},"t":{"ha":575,"x_min":81,"x_max":570,"o":"m 302 783 l 414 802 l 422 798 q 380 616 391 669 l 570 616 l 557 545 l 363 545 q 324 369 344 458 q 286 189 304 279 q 279 136 279 159 q 298 82 279 98 q 352 66 317 66 q 475 87 399 66 l 482 43 q 245 -18 357 -18 q 127 14 170 -18 q 85 106 85 45 q 90 151 85 127 q 123 313 102 216 q 177 551 144 411 l 81 576 l 83 605 l 202 616 l 302 783 z "},"u":{"ha":859,"x_min":62,"x_max":788,"o":"m 62 576 l 66 608 q 264 639 185 639 q 334 623 309 639 q 359 573 359 608 q 356 545 359 557 l 288 237 q 282 182 282 208 q 302 111 282 136 q 357 85 322 85 q 503 163 418 85 l 597 618 l 788 625 l 684 122 q 680 90 680 102 q 685 68 680 77 q 703 56 690 60 q 735 50 715 52 q 785 48 755 49 l 781 16 q 603 -12 662 -12 q 523 11 552 -12 q 493 78 493 35 q 494 91 493 84 q 272 -19 381 -19 q 143 29 192 -19 q 95 159 95 77 q 97 197 95 178 q 104 238 100 217 l 159 508 q 165 543 165 534 q 149 569 165 562 q 62 576 132 576 z "},"v":{"ha":708,"x_min":-4,"x_max":699,"o":"m 304 -6 l 212 -16 q 165 275 198 90 q 107 532 133 459 q 98 551 103 543 q 81 565 92 559 q 50 573 70 570 q -4 576 30 576 l 0 608 q 180 639 121 639 q 244 629 220 639 q 279 593 268 618 q 293 554 286 578 q 307 498 300 529 q 321 434 314 468 q 334 367 328 399 q 345 305 340 334 q 352 255 349 276 l 361 176 q 463 372 425 269 q 501 593 501 475 q 598 617 552 604 q 686 642 644 629 l 699 635 q 677 532 698 589 q 622 414 656 475 q 546 291 588 353 q 460 174 503 229 q 375 71 416 118 q 304 -6 334 24 z "},"w":{"ha":1054,"x_min":-5,"x_max":1042,"o":"m 656 -6 l 564 -16 q 541 131 552 60 q 517 273 530 202 q 305 -6 401 98 l 212 -16 q 200 69 206 28 q 186 150 193 110 q 173 230 180 190 q 159 312 165 270 q 149 362 155 332 q 136 423 143 392 q 121 484 129 454 q 106 532 113 513 q 97 551 102 543 q 81 565 92 559 q 49 573 69 570 q -5 576 29 576 l -1 608 q 179 639 118 639 q 243 629 220 639 q 279 593 267 618 q 292 554 285 578 q 306 498 299 529 q 320 434 313 468 q 333 367 327 399 q 344 305 339 334 q 351 255 349 276 l 361 176 q 496 382 440 279 q 474 489 486 435 q 448 601 462 543 q 610 636 538 619 l 622 632 q 701 255 663 485 l 712 176 q 809 372 774 269 q 844 593 844 475 q 941 617 895 604 q 1029 642 987 629 l 1042 635 q 1020 532 1041 589 q 967 414 1000 475 q 892 291 934 353 q 808 173 851 229 q 726 71 766 117 q 656 -6 686 24 z "},"x":{"ha":751,"x_min":-10,"x_max":754,"o":"m 65 608 q 248 639 180 639 q 290 634 273 639 q 319 619 307 629 q 340 596 331 610 q 357 564 349 582 q 387 502 371 535 q 421 431 404 468 q 566 598 511 555 q 696 641 621 641 q 754 637 727 641 q 702 484 733 566 l 696 481 q 625 490 654 490 q 542 462 576 490 q 456 360 508 435 q 489 290 473 325 q 522 221 506 254 q 552 158 538 188 q 578 102 566 127 q 596 74 587 84 q 619 57 606 63 q 651 50 632 52 q 699 47 670 48 l 694 16 q 526 -12 585 -12 q 483 -9 502 -12 q 450 3 465 -5 q 424 26 435 12 q 401 63 412 41 q 373 122 391 84 q 334 206 355 160 q 180 25 236 65 q 47 -15 124 -15 q -10 -9 14 -15 q 35 144 9 65 l 42 147 q 117 136 85 136 q 211 171 172 136 q 299 279 251 206 q 259 362 279 321 q 223 438 239 404 q 194 498 206 473 q 176 533 181 523 q 158 556 168 548 q 135 569 148 565 q 104 574 121 573 q 61 576 86 575 l 65 608 z "},"y":{"ha":722,"x_min":-30,"x_max":721,"o":"m 524 593 q 706 645 624 621 l 721 635 q 666 497 694 562 q 609 376 638 433 q 552 268 581 319 q 496 173 523 218 q 443 85 467 126 q 396 6 418 44 q 360 -61 378 -24 q 323 -138 341 -99 q 290 -214 305 -177 q 265 -278 275 -251 q 245 -313 257 -300 q 216 -332 233 -326 q 176 -339 199 -338 q 121 -340 153 -340 q -26 -334 37 -340 l -30 -299 q 44 -284 11 -294 q 102 -255 78 -274 q 133 -228 116 -244 q 174 -182 151 -211 q 229 -110 197 -154 q 303 -1 260 -66 l 265 7 q 250 93 260 44 q 227 195 240 142 q 197 301 213 248 q 166 401 182 355 q 136 483 151 448 q 112 533 122 517 q 88 558 101 549 q 60 570 75 566 q 27 575 45 574 q -12 576 9 576 l -7 608 q 173 639 109 639 q 238 628 210 639 q 280 593 267 617 q 305 539 290 574 q 336 457 320 504 q 367 357 351 411 q 395 246 383 302 l 408 173 q 491 380 461 276 q 524 593 520 484 z "},"z":{"ha":706,"x_min":0,"x_max":686,"o":"m 0 20 q 217 290 130 179 q 423 561 303 401 l 202 561 l 146 419 l 111 414 l 98 618 l 102 625 q 387 623 240 623 q 684 625 541 623 l 686 604 q 472 333 573 466 q 268 64 371 201 l 491 64 l 589 210 l 627 214 l 587 3 l 581 -2 q 290 0 458 0 q 3 -2 119 0 l 0 20 z "},"à":{"ha":804,"x_min":48,"x_max":741,"o":"m 741 631 q 690 420 716 549 l 629 118 q 626 92 626 102 q 632 70 626 78 q 650 56 637 61 q 683 50 663 51 q 732 48 703 48 l 727 16 q 548 -12 608 -12 q 468 11 497 -12 q 439 76 439 33 l 439 90 q 262 -18 317 -18 q 109 53 170 -18 q 48 233 48 123 q 165 522 48 404 q 460 640 282 640 q 630 615 539 640 q 730 639 680 624 l 741 631 m 532 561 q 448 578 495 578 q 302 476 359 578 q 244 258 244 374 q 266 137 244 189 q 315 85 287 85 q 449 158 353 85 l 532 561 m 515 708 l 458 708 l 324 964 l 481 964 l 515 708 m 124 640 z "},"á":{"ha":804,"x_min":48,"x_max":741,"o":"m 741 631 q 690 420 716 549 l 629 118 q 626 92 626 102 q 632 70 626 78 q 650 56 637 61 q 683 50 663 51 q 732 48 703 48 l 727 16 q 548 -12 608 -12 q 468 11 497 -12 q 439 76 439 33 l 439 90 q 262 -18 317 -18 q 109 53 170 -18 q 48 233 48 123 q 165 522 48 404 q 460 640 282 640 q 630 615 539 640 q 730 639 680 624 l 741 631 m 532 561 q 448 578 495 578 q 302 476 359 578 q 244 258 244 374 q 266 137 244 189 q 315 85 287 85 q 449 158 353 85 l 532 561 m 547 964 l 721 964 l 498 708 l 441 708 l 547 964 m 124 640 z "},"â":{"ha":804,"x_min":48,"x_max":741,"o":"m 741 631 q 690 420 716 549 l 629 118 q 626 92 626 102 q 632 70 626 78 q 650 56 637 61 q 683 50 663 51 q 732 48 703 48 l 727 16 q 548 -12 608 -12 q 468 11 497 -12 q 439 76 439 33 l 439 90 q 262 -18 317 -18 q 109 53 170 -18 q 48 233 48 123 q 165 522 48 404 q 460 640 282 640 q 630 615 539 640 q 730 639 680 624 l 741 631 m 532 561 q 448 578 495 578 q 302 476 359 578 q 244 258 244 374 q 266 137 244 189 q 315 85 287 85 q 449 158 353 85 l 532 561 m 690 708 l 630 708 l 509 860 l 340 708 l 277 708 l 456 964 l 592 964 l 690 708 m 124 640 z "},"ã":{"ha":804,"x_min":48,"x_max":747,"o":"m 741 631 q 690 420 716 549 l 629 118 q 626 92 626 102 q 632 70 626 78 q 650 56 637 61 q 683 50 663 51 q 732 48 703 48 l 727 16 q 548 -12 608 -12 q 468 11 497 -12 q 439 76 439 33 l 439 90 q 262 -18 317 -18 q 109 53 170 -18 q 48 233 48 123 q 165 522 48 404 q 460 640 282 640 q 630 615 539 640 q 730 639 680 624 l 741 631 m 532 561 q 448 578 495 578 q 302 476 359 578 q 244 258 244 374 q 266 137 244 189 q 315 85 287 85 q 449 158 353 85 l 532 561 m 747 900 q 584 751 663 751 q 535 761 557 751 q 486 788 513 772 q 463 801 473 795 q 445 811 454 807 q 427 817 435 815 q 410 819 419 819 q 372 808 389 819 q 313 751 355 796 l 277 781 q 364 894 328 861 q 437 926 399 926 q 477 920 458 926 q 530 892 496 912 q 557 877 546 884 q 578 866 568 871 q 595 860 587 862 q 613 858 604 858 q 651 869 635 858 q 709 926 667 880 l 747 900 m 124 640 z "},"ä":{"ha":804,"x_min":48,"x_max":743,"o":"m 741 631 q 690 420 716 549 l 629 118 q 626 92 626 102 q 632 70 626 78 q 650 56 637 61 q 683 50 663 51 q 732 48 703 48 l 727 16 q 548 -12 608 -12 q 468 11 497 -12 q 439 76 439 33 l 439 90 q 262 -18 317 -18 q 109 53 170 -18 q 48 233 48 123 q 165 522 48 404 q 460 640 282 640 q 630 615 539 640 q 730 639 680 624 l 741 631 m 532 561 q 448 578 495 578 q 302 476 359 578 q 244 258 244 374 q 266 137 244 189 q 315 85 287 85 q 449 158 353 85 l 532 561 m 461 878 q 435 808 461 834 q 366 782 408 782 q 302 807 327 782 q 277 871 277 831 q 303 940 277 915 q 372 966 330 966 q 436 942 412 966 q 461 878 461 919 m 743 878 q 717 808 743 834 q 648 782 690 782 q 584 807 609 782 q 559 871 559 831 q 585 940 559 915 q 654 966 612 966 q 719 942 694 966 q 743 878 743 919 m 124 640 z "},"ā":{"ha":804,"x_min":48,"x_max":741,"o":"m 741 631 q 690 420 716 549 l 629 118 q 626 92 626 102 q 632 70 626 78 q 650 56 637 61 q 683 50 663 51 q 732 48 703 48 l 727 16 q 548 -12 608 -12 q 468 11 497 -12 q 439 76 439 33 l 439 90 q 262 -18 317 -18 q 109 53 170 -18 q 48 233 48 123 q 165 522 48 404 q 460 640 282 640 q 630 615 539 640 q 730 639 680 624 l 741 631 m 532 561 q 448 578 495 578 q 302 476 359 578 q 244 258 244 374 q 266 137 244 189 q 315 85 287 85 q 449 158 353 85 l 532 561 m 312 803 l 328 886 l 715 886 l 699 803 l 312 803 m 124 640 z "},"ă":{"ha":804,"x_min":48,"x_max":741,"o":"m 741 631 q 690 420 716 549 l 629 118 q 626 92 626 102 q 632 70 626 78 q 650 56 637 61 q 683 50 663 51 q 732 48 703 48 l 727 16 q 548 -12 608 -12 q 468 11 497 -12 q 439 76 439 33 l 439 90 q 262 -18 317 -18 q 109 53 170 -18 q 48 233 48 123 q 165 522 48 404 q 460 640 282 640 q 630 615 539 640 q 730 639 680 624 l 741 631 m 532 561 q 448 578 495 578 q 302 476 359 578 q 244 258 244 374 q 266 137 244 189 q 315 85 287 85 q 449 158 353 85 l 532 561 m 382 949 q 413 852 382 886 q 502 818 444 818 q 597 851 559 818 q 658 944 636 884 l 709 949 q 637 778 695 845 q 486 711 579 711 q 368 757 410 711 q 327 890 327 803 q 331 944 327 915 l 382 949 m 124 640 z "},"å":{"ha":804,"x_min":48,"x_max":741,"o":"m 741 631 q 690 420 716 549 l 629 118 q 626 92 626 102 q 632 70 626 78 q 650 56 637 61 q 683 50 663 51 q 732 48 703 48 l 727 16 q 548 -12 608 -12 q 468 11 497 -12 q 439 76 439 33 l 439 90 q 262 -18 317 -18 q 109 53 170 -18 q 48 233 48 123 q 165 522 48 404 q 460 640 282 640 q 630 615 539 640 q 730 639 680 624 l 741 631 m 532 561 q 448 578 495 578 q 302 476 359 578 q 244 258 244 374 q 266 137 244 189 q 315 85 287 85 q 449 158 353 85 l 532 561 m 487 708 q 384 739 422 708 q 347 821 347 769 q 401 931 347 888 q 528 974 456 974 q 626 942 586 974 q 667 859 667 910 q 614 750 667 791 q 487 708 562 708 m 496 755 q 556 783 534 755 q 578 855 578 810 q 563 906 578 886 q 518 926 547 926 q 457 898 479 926 q 435 825 435 869 q 451 775 435 795 q 496 755 467 755 m 124 640 z "},"ǻ":{"ha":804,"x_min":48,"x_max":775,"o":"m 741 631 q 690 420 716 549 l 629 118 q 626 92 626 102 q 632 70 626 78 q 650 56 637 61 q 683 50 663 51 q 732 48 703 48 l 727 16 q 548 -12 608 -12 q 468 11 497 -12 q 439 76 439 33 l 439 90 q 262 -18 317 -18 q 109 53 170 -18 q 48 233 48 123 q 165 522 48 404 q 460 640 282 640 q 630 615 539 640 q 730 639 680 624 l 741 631 m 532 561 q 448 578 495 578 q 302 476 359 578 q 244 258 244 374 q 266 137 244 189 q 315 85 287 85 q 449 158 353 85 l 532 561 m 485 695 q 382 726 420 695 q 345 808 345 756 q 399 918 345 875 q 526 961 454 961 q 624 929 584 961 q 665 846 665 897 q 612 737 665 779 q 485 695 560 695 m 494 743 q 554 770 532 743 q 576 842 576 798 q 561 893 576 873 q 516 913 545 913 q 455 885 477 913 q 433 812 433 857 q 449 763 433 783 q 494 743 465 743 m 122 627 m 601 1256 l 775 1256 l 553 1000 l 496 1000 l 601 1256 m 178 932 z "},"ą":{"ha":804,"x_min":48,"x_max":741,"o":"m 741 631 q 690 420 716 549 l 629 118 q 626 92 626 102 q 632 70 626 78 q 650 56 637 61 q 683 50 663 51 q 732 48 703 48 l 727 16 q 610 -7 659 0 q 537 -78 568 -31 q 507 -174 507 -125 q 533 -241 507 -217 q 606 -265 559 -265 q 659 -259 629 -265 l 665 -294 q 481 -336 549 -336 q 372 -304 413 -336 q 332 -218 332 -272 q 505 -7 332 -102 q 439 76 439 11 l 439 90 q 262 -18 317 -18 q 109 53 170 -18 q 48 233 48 123 q 165 522 48 404 q 460 640 282 640 q 630 615 539 640 q 730 639 680 624 l 741 631 m 532 561 q 448 578 495 578 q 302 476 359 578 q 244 258 244 374 q 266 137 244 189 q 315 85 287 85 q 449 158 353 85 l 532 561 z "},"æ":{"ha":1128,"x_min":48,"x_max":1088,"o":"m 1002 130 l 1025 96 q 737 -17 895 -17 q 483 123 556 -17 q 262 -18 323 -18 q 109 53 170 -18 q 48 233 48 123 q 165 522 48 404 q 460 640 282 640 q 688 596 566 640 q 884 640 777 640 q 1035 605 982 640 q 1088 501 1088 569 q 979 360 1088 416 q 659 293 871 303 q 658 262 658 277 q 695 123 658 171 q 807 75 732 75 q 1002 130 903 75 m 448 578 q 302 476 359 578 q 244 258 244 374 q 266 137 244 189 q 315 85 287 85 q 467 174 357 85 q 462 234 462 202 q 591 529 462 410 q 448 578 514 578 m 665 347 q 899 498 899 369 q 883 552 899 534 q 840 570 866 570 q 734 508 785 570 q 665 347 684 446 z "},"ǽ":{"ha":1128,"x_min":48,"x_max":1088,"o":"m 1002 130 l 1025 96 q 737 -17 895 -17 q 483 123 556 -17 q 262 -18 323 -18 q 109 53 170 -18 q 48 233 48 123 q 165 522 48 404 q 460 640 282 640 q 688 596 566 640 q 884 640 777 640 q 1035 605 982 640 q 1088 501 1088 569 q 979 360 1088 416 q 659 293 871 303 q 658 262 658 277 q 695 123 658 171 q 807 75 732 75 q 1002 130 903 75 m 448 578 q 302 476 359 578 q 244 258 244 374 q 266 137 244 189 q 315 85 287 85 q 467 174 357 85 q 462 234 462 202 q 591 529 462 410 q 448 578 514 578 m 665 347 q 899 498 899 369 q 883 552 899 534 q 840 570 866 570 q 734 508 785 570 q 665 347 684 446 m 714 964 l 888 964 l 666 708 l 609 708 l 714 964 m 292 640 z "},"ć":{"ha":680,"x_min":50,"x_max":699,"o":"m 554 136 l 577 102 q 313 -18 460 -18 q 124 53 199 -18 q 50 245 50 123 q 174 526 50 413 q 467 640 297 640 q 648 608 563 640 q 604 408 623 510 l 570 403 l 518 567 q 477 572 500 572 q 311 484 374 572 q 248 267 248 395 q 288 126 248 176 q 395 77 328 77 q 554 136 469 77 m 524 964 l 699 964 l 476 708 l 419 708 l 524 964 m 102 640 z "},"ĉ":{"ha":680,"x_min":50,"x_max":667,"o":"m 554 136 l 577 102 q 313 -18 460 -18 q 124 53 199 -18 q 50 245 50 123 q 174 526 50 413 q 467 640 297 640 q 648 608 563 640 q 604 408 623 510 l 570 403 l 518 567 q 477 572 500 572 q 311 484 374 572 q 248 267 248 395 q 288 126 248 176 q 395 77 328 77 q 554 136 469 77 m 667 708 l 608 708 l 486 860 l 317 708 l 255 708 l 434 964 l 570 964 l 667 708 m 102 640 z "},"č":{"ha":680,"x_min":50,"x_max":708,"o":"m 554 136 l 577 102 q 313 -18 460 -18 q 124 53 199 -18 q 50 245 50 123 q 174 526 50 413 q 467 640 297 640 q 648 608 563 640 q 604 408 623 510 l 570 403 l 518 567 q 477 572 500 572 q 311 484 374 572 q 248 267 248 395 q 288 126 248 176 q 395 77 328 77 q 554 136 469 77 m 296 964 l 355 964 l 477 812 l 646 964 l 708 964 l 529 708 l 393 708 l 296 964 m 102 640 z "},"ċ":{"ha":680,"x_min":50,"x_max":648,"o":"m 554 136 l 577 102 q 313 -18 460 -18 q 124 53 199 -18 q 50 245 50 123 q 174 526 50 413 q 467 640 297 640 q 648 608 563 640 q 604 408 623 510 l 570 403 l 518 567 q 477 572 500 572 q 311 484 374 572 q 248 267 248 395 q 288 126 248 176 q 395 77 328 77 q 554 136 469 77 m 587 884 q 558 810 587 839 q 488 782 530 782 q 420 809 447 782 q 393 878 393 836 q 421 951 393 924 q 492 979 450 979 q 560 954 534 979 q 587 884 587 928 m 102 644 z "},"ç":{"ha":680,"x_min":50,"x_max":648,"o":"m 176 -128 l 264 -15 q 113 65 175 -1 q 50 245 50 132 q 174 526 50 413 q 467 640 297 640 q 648 608 563 640 q 604 408 623 510 l 570 403 l 518 567 q 477 572 500 572 q 311 484 374 572 q 248 267 248 395 q 288 126 248 176 q 395 77 328 77 q 554 136 469 77 l 577 102 q 324 -18 465 -14 l 284 -72 q 353 -163 353 -106 q 210 -335 353 -239 l 184 -307 q 251 -207 251 -253 q 179 -134 251 -158 l 176 -128 z "},"ď":{"ha":928,"x_min":48,"x_max":1036,"o":"m 496 933 l 497 962 q 812 1021 677 990 l 821 1013 q 807 955 814 987 q 791 883 800 922 q 773 800 783 844 q 754 709 764 755 l 675 330 l 633 118 q 629 92 629 102 q 635 70 629 78 q 653 56 641 61 q 686 50 666 51 q 735 48 706 48 l 730 16 q 551 -12 612 -12 q 472 11 500 -12 q 444 76 444 33 l 444 90 q 262 -18 318 -18 q 109 53 170 -18 q 48 233 48 123 q 164 522 48 404 q 458 640 281 640 q 551 633 502 640 l 609 917 l 496 933 m 536 561 q 446 578 496 578 q 301 476 358 578 q 244 258 244 374 q 266 137 244 189 q 315 85 287 85 q 453 158 354 85 l 536 561 m 850 684 q 928 832 928 759 q 865 926 928 892 q 890 984 867 963 q 951 1006 913 1006 q 1013 979 989 1006 q 1036 908 1036 952 q 876 656 1036 778 l 850 684 z "},"đ":{"ha":807,"x_min":48,"x_max":883,"o":"m 496 933 l 497 962 q 812 1021 677 990 l 821 1013 q 807 955 814 987 q 791 885 800 922 q 776 810 783 848 l 883 810 l 870 746 l 762 746 l 675 330 l 633 118 q 629 92 629 102 q 635 70 629 78 q 653 56 641 61 q 686 50 666 51 q 735 48 706 48 l 730 16 q 551 -12 612 -12 q 472 11 500 -12 q 444 76 444 33 l 444 90 q 262 -18 318 -18 q 109 53 170 -18 q 48 233 48 123 q 164 518 48 404 q 457 631 279 631 q 549 624 500 631 l 574 746 l 330 746 l 343 810 l 587 810 l 609 917 l 496 933 m 534 552 q 445 569 494 569 q 300 472 357 569 q 244 258 244 374 q 266 137 244 189 q 315 85 287 85 q 453 158 354 85 l 534 552 z "},"è":{"ha":714,"x_min":48,"x_max":674,"o":"m 588 130 l 611 96 q 323 -17 481 -17 q 124 50 200 -17 q 48 234 48 117 q 172 524 48 407 q 471 640 295 640 q 621 605 568 640 q 674 501 674 569 q 566 360 674 416 q 245 293 457 303 q 244 262 244 277 q 281 123 244 171 q 393 75 319 75 q 588 130 490 75 m 251 347 q 486 498 486 369 q 469 552 486 534 q 427 570 452 570 q 321 508 371 570 q 251 347 271 446 m 486 708 l 429 708 l 295 964 l 452 964 l 486 708 m 95 640 z "},"é":{"ha":714,"x_min":48,"x_max":692,"o":"m 588 130 l 611 96 q 323 -17 481 -17 q 124 50 200 -17 q 48 234 48 117 q 172 524 48 407 q 471 640 295 640 q 621 605 568 640 q 674 501 674 569 q 566 360 674 416 q 245 293 457 303 q 244 262 244 277 q 281 123 244 171 q 393 75 319 75 q 588 130 490 75 m 251 347 q 486 498 486 369 q 469 552 486 534 q 427 570 452 570 q 321 508 371 570 q 251 347 271 446 m 517 964 l 692 964 l 469 708 l 412 708 l 517 964 m 95 640 z "},"ê":{"ha":714,"x_min":48,"x_max":674,"o":"m 588 130 l 611 96 q 323 -17 481 -17 q 124 50 200 -17 q 48 234 48 117 q 172 524 48 407 q 471 640 295 640 q 621 605 568 640 q 674 501 674 569 q 566 360 674 416 q 245 293 457 303 q 244 262 244 277 q 281 123 244 171 q 393 75 319 75 q 588 130 490 75 m 251 347 q 486 498 486 369 q 469 552 486 534 q 427 570 452 570 q 321 508 371 570 q 251 347 271 446 m 661 708 l 601 708 l 479 860 l 311 708 l 248 708 l 427 964 l 563 964 l 661 708 m 95 640 z "},"ě":{"ha":714,"x_min":48,"x_max":701,"o":"m 588 130 l 611 96 q 323 -17 481 -17 q 124 50 200 -17 q 48 234 48 117 q 172 524 48 407 q 471 640 295 640 q 621 605 568 640 q 674 501 674 569 q 566 360 674 416 q 245 293 457 303 q 244 262 244 277 q 281 123 244 171 q 393 75 319 75 q 588 130 490 75 m 251 347 q 486 498 486 369 q 469 552 486 534 q 427 570 452 570 q 321 508 371 570 q 251 347 271 446 m 289 964 l 349 964 l 470 812 l 639 964 l 701 964 l 522 708 l 387 708 l 289 964 m 95 640 z "},"ë":{"ha":714,"x_min":48,"x_max":714,"o":"m 588 130 l 611 96 q 323 -17 481 -17 q 124 50 200 -17 q 48 234 48 117 q 172 524 48 407 q 471 640 295 640 q 621 605 568 640 q 674 501 674 569 q 566 360 674 416 q 245 293 457 303 q 244 262 244 277 q 281 123 244 171 q 393 75 319 75 q 588 130 490 75 m 251 347 q 486 498 486 369 q 469 552 486 534 q 427 570 452 570 q 321 508 371 570 q 251 347 271 446 m 432 878 q 406 808 432 834 q 337 782 379 782 q 273 807 298 782 q 248 871 248 831 q 274 940 248 915 q 343 966 300 966 q 407 942 382 966 q 432 878 432 919 m 714 878 q 688 808 714 834 q 619 782 661 782 q 555 807 580 782 q 530 871 530 831 q 556 940 530 915 q 625 966 583 966 q 689 942 665 966 q 714 878 714 919 m 95 640 z "},"ē":{"ha":714,"x_min":48,"x_max":686,"o":"m 588 130 l 611 96 q 323 -17 481 -17 q 124 50 200 -17 q 48 234 48 117 q 172 524 48 407 q 471 640 295 640 q 621 605 568 640 q 674 501 674 569 q 566 360 674 416 q 245 293 457 303 q 244 262 244 277 q 281 123 244 171 q 393 75 319 75 q 588 130 490 75 m 251 347 q 486 498 486 369 q 469 552 486 534 q 427 570 452 570 q 321 508 371 570 q 251 347 271 446 m 283 803 l 299 886 l 686 886 l 669 803 l 283 803 m 95 640 z "},"ĕ":{"ha":714,"x_min":48,"x_max":680,"o":"m 588 130 l 611 96 q 323 -17 481 -17 q 124 50 200 -17 q 48 234 48 117 q 172 524 48 407 q 471 640 295 640 q 621 605 568 640 q 674 501 674 569 q 566 360 674 416 q 245 293 457 303 q 244 262 244 277 q 281 123 244 171 q 393 75 319 75 q 588 130 490 75 m 251 347 q 486 498 486 369 q 469 552 486 534 q 427 570 452 570 q 321 508 371 570 q 251 347 271 446 m 353 949 q 384 852 353 886 q 473 818 414 818 q 568 851 530 818 q 629 944 607 884 l 680 949 q 608 778 666 845 q 457 711 550 711 q 339 757 380 711 q 298 890 298 803 q 302 944 298 915 l 353 949 m 95 640 z "},"ė":{"ha":714,"x_min":48,"x_max":674,"o":"m 588 130 l 611 96 q 323 -17 481 -17 q 124 50 200 -17 q 48 234 48 117 q 172 524 48 407 q 471 640 295 640 q 621 605 568 640 q 674 501 674 569 q 566 360 674 416 q 245 293 457 303 q 244 262 244 277 q 281 123 244 171 q 393 75 319 75 q 588 130 490 75 m 251 347 q 486 498 486 369 q 469 552 486 534 q 427 570 452 570 q 321 508 371 570 q 251 347 271 446 m 580 884 q 552 810 580 839 q 481 782 524 782 q 413 809 440 782 q 387 878 387 836 q 415 951 387 924 q 486 979 443 979 q 553 954 527 979 q 580 884 580 928 m 96 644 z "},"ę":{"ha":714,"x_min":48,"x_max":674,"o":"m 588 130 l 611 96 q 507 26 561 53 q 374 -174 374 -65 q 400 -241 374 -217 q 473 -265 426 -265 q 526 -259 496 -265 l 532 -294 q 349 -336 416 -336 q 239 -304 280 -336 q 199 -218 199 -272 q 359 -18 199 -106 l 359 -16 q 323 -17 341 -17 q 124 50 200 -17 q 48 234 48 117 q 172 524 48 407 q 471 640 295 640 q 621 605 568 640 q 674 501 674 569 q 566 360 674 416 q 245 293 457 303 q 244 262 244 277 q 281 123 244 171 q 393 75 319 75 q 588 130 490 75 m 251 347 q 486 498 486 369 q 469 552 486 534 q 427 570 452 570 q 321 508 371 570 q 251 347 271 446 z "},"ĝ":{"ha":793,"x_min":-16,"x_max":745,"o":"m 734 639 l 745 631 q 694 422 720 551 l 631 117 q 485 -227 584 -115 q 220 -340 386 -340 q -16 -302 106 -340 q 31 -132 5 -210 l 41 -127 q 266 -262 214 -262 q 359 -193 323 -262 q 427 27 395 -125 l 439 91 q 264 -12 321 -12 q 111 58 172 -12 q 49 237 49 128 q 165 524 49 407 q 459 640 282 640 q 634 615 546 640 q 734 639 686 625 m 537 561 q 447 578 499 578 q 302 477 359 578 q 245 262 245 376 q 266 144 245 197 q 317 92 288 92 q 454 165 355 92 l 537 561 m 690 708 l 630 708 l 509 860 l 340 708 l 277 708 l 456 964 l 592 964 l 690 708 m 124 640 z "},"ğ":{"ha":793,"x_min":-16,"x_max":745,"o":"m 734 639 l 745 631 q 694 422 720 551 l 631 117 q 485 -227 584 -115 q 220 -340 386 -340 q -16 -302 106 -340 q 31 -132 5 -210 l 41 -127 q 266 -262 214 -262 q 359 -193 323 -262 q 427 27 395 -125 l 439 91 q 264 -12 321 -12 q 111 58 172 -12 q 49 237 49 128 q 165 524 49 407 q 459 640 282 640 q 634 615 546 640 q 734 639 686 625 m 537 561 q 447 578 499 578 q 302 477 359 578 q 245 262 245 376 q 266 144 245 197 q 317 92 288 92 q 454 165 355 92 l 537 561 m 382 949 q 413 852 382 886 q 502 818 444 818 q 597 851 559 818 q 658 944 636 884 l 709 949 q 637 778 695 845 q 486 711 579 711 q 368 757 410 711 q 327 890 327 803 q 331 944 327 915 l 382 949 m 124 640 z "},"ġ":{"ha":793,"x_min":-16,"x_max":745,"o":"m 734 639 l 745 631 q 694 422 720 551 l 631 117 q 485 -227 584 -115 q 220 -340 386 -340 q -16 -302 106 -340 q 31 -132 5 -210 l 41 -127 q 266 -262 214 -262 q 359 -193 323 -262 q 427 27 395 -125 l 439 91 q 264 -12 321 -12 q 111 58 172 -12 q 49 237 49 128 q 165 524 49 407 q 459 640 282 640 q 634 615 546 640 q 734 639 686 625 m 537 561 q 447 578 499 578 q 302 477 359 578 q 245 262 245 376 q 266 144 245 197 q 317 92 288 92 q 454 165 355 92 l 537 561 m 609 884 q 581 810 609 839 q 511 782 553 782 q 443 809 469 782 q 416 878 416 836 q 444 951 416 924 q 515 979 472 979 q 583 954 556 979 q 609 884 609 928 m 125 644 z "},"ģ":{"ha":793,"x_min":-16,"x_max":745,"o":"m 734 639 l 745 631 q 694 422 720 551 l 631 117 q 485 -227 584 -115 q 220 -340 386 -340 q -16 -302 106 -340 q 31 -132 5 -210 l 41 -127 q 266 -262 214 -262 q 359 -193 323 -262 q 427 27 395 -125 l 439 91 q 264 -12 321 -12 q 111 58 172 -12 q 49 237 49 128 q 165 524 49 407 q 459 640 282 640 q 634 615 546 640 q 734 639 686 625 m 537 561 q 447 578 499 578 q 302 477 359 578 q 245 262 245 376 q 266 144 245 197 q 317 92 288 92 q 454 165 355 92 l 537 561 m 604 964 q 530 852 530 907 q 579 779 530 806 q 558 725 579 745 q 506 705 538 705 q 451 730 472 705 q 430 793 430 755 q 579 991 430 900 l 604 964 m 719 644 z "},"ĥ":{"ha":849,"x_min":55,"x_max":783,"o":"m 55 -3 l 243 917 l 131 933 l 132 962 q 447 1021 312 990 l 455 1013 q 441 955 449 987 q 426 883 434 922 q 408 800 417 844 q 389 709 399 755 l 358 560 q 601 640 491 640 q 716 601 675 640 q 757 495 757 562 q 749 433 757 466 l 682 111 q 680 101 680 106 q 679 91 679 96 q 686 68 679 77 q 706 57 692 60 q 739 52 719 53 q 783 51 758 51 l 781 20 q 594 -12 679 -12 q 514 7 541 -12 q 488 72 488 27 q 493 121 488 93 l 554 404 q 562 463 562 439 q 543 523 562 504 q 490 543 525 543 q 345 499 437 543 l 243 3 l 55 -3 m 361 1136 l 130 1036 l 112 1072 l 317 1240 l 431 1240 l 595 1068 l 570 1036 l 361 1136 z "},"ħ":{"ha":849,"x_min":55,"x_max":783,"o":"m 55 -3 l 208 746 l 92 746 l 105 810 l 222 810 l 243 917 l 131 933 l 132 962 q 447 1021 312 990 l 455 1013 q 410 810 433 919 l 648 810 l 635 746 l 396 746 l 355 551 q 598 630 488 630 q 713 591 672 630 q 754 486 754 552 q 747 423 754 456 l 682 111 q 680 101 680 106 q 679 91 679 96 q 686 68 679 77 q 706 57 692 60 q 739 52 719 53 q 783 51 758 51 l 781 20 q 594 -12 679 -12 q 514 7 541 -12 q 488 72 488 27 q 493 121 488 93 l 551 395 q 559 454 559 430 q 541 514 559 494 q 488 533 522 533 q 342 490 435 533 l 243 3 l 55 -3 z "},"ì":{"ha":448,"x_min":-87,"x_max":378,"o":"m 74 608 q 271 639 195 639 q 342 623 317 639 q 368 573 368 607 q 365 545 368 559 l 276 118 q 273 92 273 100 q 295 57 273 65 q 378 48 317 48 l 374 16 q 186 -12 258 -12 q 108 7 136 -12 q 80 67 80 27 q 85 115 80 86 l 167 508 q 172 543 172 535 q 157 569 172 562 q 70 576 141 576 l 74 608 m 304 708 l 247 708 l 113 964 l 270 964 l 304 708 m -87 640 z "},"í":{"ha":448,"x_min":-87,"x_max":509,"o":"m 74 608 q 271 639 195 639 q 342 623 317 639 q 368 573 368 607 q 365 545 368 559 l 276 118 q 273 92 273 100 q 295 57 273 65 q 378 48 317 48 l 374 16 q 186 -12 258 -12 q 108 7 136 -12 q 80 67 80 27 q 85 115 80 86 l 167 508 q 172 543 172 535 q 157 569 172 562 q 70 576 141 576 l 74 608 m 335 964 l 509 964 l 287 708 l 230 708 l 335 964 m -87 640 z "},"î":{"ha":448,"x_min":-87,"x_max":478,"o":"m 74 608 q 271 639 195 639 q 342 623 317 639 q 368 573 368 607 q 365 545 368 559 l 276 118 q 273 92 273 100 q 295 57 273 65 q 378 48 317 48 l 374 16 q 186 -12 258 -12 q 108 7 136 -12 q 80 67 80 27 q 85 115 80 86 l 167 508 q 172 543 172 535 q 157 569 172 562 q 70 576 141 576 l 74 608 m 478 708 l 418 708 l 297 860 l 128 708 l 66 708 l 245 964 l 380 964 l 478 708 m -87 640 z "},"ĩ":{"ha":448,"x_min":-87,"x_max":535,"o":"m 74 608 q 271 639 195 639 q 342 623 317 639 q 368 573 368 607 q 365 545 368 559 l 276 118 q 273 92 273 100 q 295 57 273 65 q 378 48 317 48 l 374 16 q 186 -12 258 -12 q 108 7 136 -12 q 80 67 80 27 q 85 115 80 86 l 167 508 q 172 543 172 535 q 157 569 172 562 q 70 576 141 576 l 74 608 m 535 900 q 372 751 451 751 q 323 761 346 751 q 274 788 301 772 q 252 801 261 795 q 233 811 242 807 q 216 817 224 815 q 199 819 208 819 q 160 808 178 819 q 101 751 143 796 l 66 781 q 152 894 117 861 q 226 926 188 926 q 266 920 247 926 q 319 892 285 912 q 346 877 334 884 q 366 866 357 871 q 384 860 376 862 q 401 858 392 858 q 440 869 424 858 q 498 926 456 880 l 535 900 m -87 640 z "},"ï":{"ha":448,"x_min":-87,"x_max":532,"o":"m 74 608 q 271 639 195 639 q 342 623 317 639 q 368 573 368 607 q 365 545 368 559 l 276 118 q 273 92 273 100 q 295 57 273 65 q 378 48 317 48 l 374 16 q 186 -12 258 -12 q 108 7 136 -12 q 80 67 80 27 q 85 115 80 86 l 167 508 q 172 543 172 535 q 157 569 172 562 q 70 576 141 576 l 74 608 m 250 878 q 223 808 250 834 q 155 782 197 782 q 90 807 115 782 q 65 871 65 831 q 92 940 65 915 q 161 966 118 966 q 225 942 200 966 q 250 878 250 919 m 532 878 q 505 808 532 834 q 437 782 479 782 q 372 807 397 782 q 347 871 347 831 q 374 940 347 915 q 443 966 400 966 q 507 942 482 966 q 532 878 532 919 m -87 640 z "},"ī":{"ha":448,"x_min":-87,"x_max":503,"o":"m 74 608 q 271 639 195 639 q 342 623 317 639 q 368 573 368 607 q 365 545 368 559 l 276 118 q 273 92 273 100 q 295 57 273 65 q 378 48 317 48 l 374 16 q 186 -12 258 -12 q 108 7 136 -12 q 80 67 80 27 q 85 115 80 86 l 167 508 q 172 543 172 535 q 157 569 172 562 q 70 576 141 576 l 74 608 m 100 803 l 117 886 l 503 886 l 487 803 l 100 803 m -87 640 z "},"ĭ":{"ha":448,"x_min":-87,"x_max":498,"o":"m 74 608 q 271 639 195 639 q 342 623 317 639 q 368 573 368 607 q 365 545 368 559 l 276 118 q 273 92 273 100 q 295 57 273 65 q 378 48 317 48 l 374 16 q 186 -12 258 -12 q 108 7 136 -12 q 80 67 80 27 q 85 115 80 86 l 167 508 q 172 543 172 535 q 157 569 172 562 q 70 576 141 576 l 74 608 m 171 949 q 201 852 171 886 q 290 818 232 818 q 386 851 347 818 q 446 944 425 884 l 498 949 q 426 778 484 845 q 275 711 368 711 q 157 757 198 711 q 115 890 115 803 q 119 944 115 915 l 171 949 m -87 640 z "},"į":{"ha":448,"x_min":-17,"x_max":415,"o":"m 74 608 q 271 639 195 639 q 342 623 317 639 q 368 573 368 607 q 365 545 368 559 l 276 118 q 273 92 273 100 q 295 57 273 65 q 378 48 317 48 l 374 16 q 263 -6 312 1 q 189 -78 220 -31 q 158 -174 158 -125 q 184 -241 158 -217 q 258 -265 210 -265 q 310 -259 280 -265 l 317 -294 q 133 -336 201 -336 q 24 -304 64 -336 q -17 -218 -17 -272 q 153 -9 -17 -103 q 80 67 80 3 q 85 115 80 86 l 167 508 q 172 543 172 535 q 157 569 172 562 q 70 576 141 576 l 74 608 m 415 878 q 387 803 415 831 q 315 774 358 774 q 247 801 274 774 q 220 870 220 828 q 248 945 220 918 q 320 972 277 972 q 388 947 361 972 q 415 878 415 922 z "},"ı":{"ha":448,"x_min":70,"x_max":378,"o":"m 74 608 q 271 639 195 639 q 342 623 317 639 q 368 573 368 607 q 365 545 368 559 l 276 118 q 273 92 273 100 q 295 57 273 65 q 378 48 317 48 l 374 16 q 186 -12 258 -12 q 108 7 136 -12 q 80 67 80 27 q 85 115 80 86 l 167 508 q 172 543 172 535 q 157 569 172 562 q 70 576 141 576 l 74 608 z "},"ĳ":{"ha":882,"x_min":70,"x_max":866,"o":"m 74 608 q 271 639 195 639 q 342 623 317 639 q 368 573 368 607 q 365 545 368 559 l 276 118 q 273 92 273 100 q 295 57 273 65 q 378 48 317 48 l 374 16 q 186 -12 258 -12 q 108 7 136 -12 q 80 67 80 27 q 85 115 80 86 l 167 508 q 172 543 172 535 q 157 569 172 562 q 70 576 141 576 l 74 608 m 415 878 q 387 803 415 831 q 315 774 358 774 q 247 801 274 774 q 220 870 220 828 q 248 945 220 918 q 320 972 277 972 q 388 947 361 972 q 415 878 415 922 m 521 576 l 525 608 q 722 639 646 639 q 793 623 768 639 q 819 573 819 607 q 816 545 819 559 l 720 83 q 616 -136 694 -43 q 339 -345 538 -229 l 307 -308 q 478 -104 449 -176 q 528 68 508 -31 l 618 508 q 623 543 623 535 q 608 569 623 562 q 521 576 592 576 m 866 878 q 838 803 866 831 q 766 774 809 774 q 698 801 725 774 q 671 870 671 828 q 699 945 671 918 q 771 972 728 972 q 839 947 812 972 q 866 878 866 922 z "},"ĵ":{"ha":434,"x_min":-141,"x_max":480,"o":"m 480 708 l 420 708 l 299 860 l 130 708 l 68 708 l 247 964 l 382 964 l 480 708 m 73 576 l 77 608 q 274 639 198 639 q 345 623 319 639 q 370 573 370 607 q 368 545 370 559 l 272 83 q 168 -136 246 -43 q -109 -345 90 -229 l -141 -308 q 30 -104 1 -176 q 80 68 60 -31 l 170 508 q 175 543 175 535 q 159 569 175 562 q 73 576 144 576 z "},"ķ":{"ha":802,"x_min":58,"x_max":819,"o":"m 134 933 l 135 962 q 450 1021 315 989 l 458 1013 q 429 883 446 962 q 392 709 412 803 l 247 3 l 58 -3 l 247 917 l 134 933 m 756 -2 q 584 0 667 0 q 491 -1 532 0 q 426 152 466 71 q 328 333 386 234 q 513 507 445 436 q 606 623 581 578 q 662 623 627 623 q 819 625 740 623 l 816 591 q 755 578 783 585 q 705 562 728 571 q 661 538 682 552 q 617 504 640 524 l 500 395 l 649 118 q 672 78 663 92 q 693 55 682 64 q 720 42 705 47 q 762 31 736 37 l 756 -2 m 243 -313 q 317 -201 317 -256 q 267 -128 317 -155 q 288 -74 267 -94 q 340 -54 309 -54 q 395 -79 374 -54 q 416 -142 416 -104 q 267 -340 416 -249 l 243 -313 z "},"ĸ":{"ha":809,"x_min":64,"x_max":827,"o":"m 255 3 l 64 -3 l 170 508 q 176 543 176 535 q 159 569 176 562 q 71 576 142 576 l 75 608 q 273 639 197 639 q 343 623 318 639 q 369 573 369 607 q 366 545 369 559 l 255 3 m 764 -2 q 591 0 675 0 q 498 -1 540 0 q 433 152 473 71 q 336 333 393 234 q 520 507 452 436 q 614 623 588 578 q 669 623 635 623 q 827 625 747 623 l 823 591 q 763 578 790 585 q 712 562 736 571 q 668 538 689 552 q 625 504 647 524 l 507 395 l 656 118 q 680 78 670 92 q 701 55 690 64 q 728 42 712 47 q 770 31 743 37 l 764 -2 z "},"ĺ":{"ha":443,"x_min":-64,"x_max":538,"o":"m 128 933 l 129 962 q 444 1021 309 990 l 452 1013 q 439 955 446 987 q 423 883 431 922 q 405 800 414 844 q 386 709 396 755 l 264 117 q 262 90 262 104 q 280 59 262 68 q 368 48 298 49 l 364 16 q 177 -12 247 -12 q 95 8 122 -12 q 68 69 68 28 q 75 115 68 81 l 241 917 l 128 933 m 538 1153 l 210 1035 l 189 1070 l 433 1257 l 538 1163 l 538 1153 m -64 985 z "},"ľ":{"ha":562,"x_min":68,"x_max":671,"o":"m 128 933 l 129 962 q 444 1021 309 990 l 452 1013 q 439 955 446 987 q 423 883 431 922 q 405 800 414 844 q 386 709 396 755 l 264 117 q 262 90 262 104 q 280 59 262 68 q 368 48 298 49 l 364 16 q 177 -12 247 -12 q 95 8 122 -12 q 68 69 68 28 q 75 115 68 81 l 241 917 l 128 933 m 485 684 q 562 832 562 759 q 499 926 562 892 q 524 984 501 963 q 585 1006 547 1006 q 647 979 623 1006 q 671 908 671 952 q 510 656 671 778 l 485 684 z "},"ļ":{"ha":443,"x_min":60,"x_max":452,"o":"m 128 933 l 129 962 q 444 1021 309 990 l 452 1013 q 439 955 446 987 q 423 883 431 922 q 405 800 414 844 q 386 709 396 755 l 264 117 q 262 90 262 104 q 280 59 262 68 q 368 48 298 49 l 364 16 q 177 -12 247 -12 q 95 8 122 -12 q 68 69 68 28 q 75 115 68 81 l 241 917 l 128 933 m 60 -313 q 134 -201 134 -256 q 84 -128 134 -155 q 105 -74 84 -94 q 157 -54 125 -54 q 212 -79 191 -54 q 233 -142 233 -104 q 84 -340 233 -249 l 60 -313 z "},"ł":{"ha":443,"x_min":13,"x_max":495,"o":"m 23 488 l 161 528 l 241 917 l 128 933 l 129 962 q 444 1021 309 990 l 452 1013 q 439 955 446 987 q 423 883 431 922 q 405 800 414 844 q 386 709 396 755 l 361 587 l 495 627 l 486 559 l 347 517 l 264 117 q 262 90 262 104 q 280 59 262 68 q 368 48 298 49 l 364 16 q 177 -12 247 -12 q 95 8 122 -12 q 68 69 68 28 q 75 115 68 81 l 146 458 l 13 418 l 23 488 z "},"ŀ":{"ha":583,"x_min":68,"x_max":635,"o":"m 128 933 l 129 962 q 444 1021 309 990 l 452 1013 q 439 955 446 987 q 423 883 431 922 q 405 800 414 844 q 386 709 396 755 l 264 117 q 262 90 262 104 q 280 59 262 68 q 368 48 298 49 l 364 16 q 177 -12 247 -12 q 95 8 122 -12 q 68 69 68 28 q 75 115 68 81 l 241 917 l 128 933 m 635 504 q 607 430 635 458 q 537 401 579 401 q 469 428 496 401 q 442 497 442 455 q 470 571 442 544 q 541 598 498 598 q 609 573 583 598 q 635 504 635 548 z "},"ń":{"ha":859,"x_min":64,"x_max":793,"o":"m 64 -3 l 170 509 q 175 545 175 536 q 169 563 175 557 q 149 572 162 569 q 117 576 136 575 q 73 576 98 576 l 77 608 q 262 639 199 639 q 337 622 309 639 q 366 572 366 605 q 365 558 366 568 q 611 640 500 640 q 726 601 685 640 q 767 495 767 562 q 760 433 767 466 l 692 111 q 690 101 690 106 q 689 91 689 96 q 696 68 689 77 q 716 57 703 60 q 749 52 729 53 q 793 51 768 51 l 791 20 q 604 -12 689 -12 q 525 7 551 -12 q 498 72 498 27 q 503 121 498 93 l 564 404 q 572 463 572 439 q 553 523 572 504 q 500 543 535 543 q 355 499 448 543 l 254 3 l 64 -3 m 558 964 l 732 964 l 510 708 l 453 708 l 558 964 m 136 640 z "},"ň":{"ha":859,"x_min":64,"x_max":793,"o":"m 64 -3 l 170 509 q 175 545 175 536 q 169 563 175 557 q 149 572 162 569 q 117 576 136 575 q 73 576 98 576 l 77 608 q 262 639 199 639 q 337 622 309 639 q 366 572 366 605 q 365 558 366 568 q 611 640 500 640 q 726 601 685 640 q 767 495 767 562 q 760 433 767 466 l 692 111 q 690 101 690 106 q 689 91 689 96 q 696 68 689 77 q 716 57 703 60 q 749 52 729 53 q 793 51 768 51 l 791 20 q 604 -12 689 -12 q 525 7 551 -12 q 498 72 498 27 q 503 121 498 93 l 564 404 q 572 463 572 439 q 553 523 572 504 q 500 543 535 543 q 355 499 448 543 l 254 3 l 64 -3 m 330 964 l 389 964 l 511 812 l 680 964 l 742 964 l 563 708 l 427 708 l 330 964 m 136 640 z "},"ñ":{"ha":859,"x_min":64,"x_max":793,"o":"m 64 -3 l 170 509 q 175 545 175 536 q 169 563 175 557 q 149 572 162 569 q 117 576 136 575 q 73 576 98 576 l 77 608 q 262 639 199 639 q 337 622 309 639 q 366 572 366 605 q 365 558 366 568 q 611 640 500 640 q 726 601 685 640 q 767 495 767 562 q 760 433 767 466 l 692 111 q 690 101 690 106 q 689 91 689 96 q 696 68 689 77 q 716 57 703 60 q 749 52 729 53 q 793 51 768 51 l 791 20 q 604 -12 689 -12 q 525 7 551 -12 q 498 72 498 27 q 503 121 498 93 l 564 404 q 572 463 572 439 q 553 523 572 504 q 500 543 535 543 q 355 499 448 543 l 254 3 l 64 -3 m 758 900 q 595 751 674 751 q 547 761 569 751 q 497 788 524 772 q 475 801 484 795 q 456 811 465 807 q 439 817 447 815 q 422 819 431 819 q 384 808 401 819 q 324 751 366 796 l 289 781 q 375 894 340 861 q 449 926 411 926 q 489 920 470 926 q 542 892 508 912 q 569 877 557 884 q 589 866 580 871 q 607 860 599 862 q 625 858 615 858 q 663 869 647 858 q 721 926 679 880 l 758 900 m 136 640 z "},"ņ":{"ha":859,"x_min":64,"x_max":793,"o":"m 64 -3 l 170 509 q 175 545 175 536 q 169 563 175 557 q 149 572 162 569 q 117 576 136 575 q 73 576 98 576 l 77 608 q 262 639 199 639 q 337 622 309 639 q 366 572 366 605 q 365 558 366 568 q 611 640 500 640 q 726 601 685 640 q 767 495 767 562 q 760 433 767 466 l 692 111 q 690 101 690 106 q 689 91 689 96 q 696 68 689 77 q 716 57 703 60 q 749 52 729 53 q 793 51 768 51 l 791 20 q 604 -12 689 -12 q 525 7 551 -12 q 498 72 498 27 q 503 121 498 93 l 564 404 q 572 463 572 439 q 553 523 572 504 q 500 543 535 543 q 355 499 448 543 l 254 3 l 64 -3 m 260 -313 q 334 -201 334 -256 q 284 -128 334 -155 q 305 -74 284 -94 q 357 -54 326 -54 q 412 -79 391 -54 q 433 -142 433 -104 q 284 -340 433 -249 l 260 -313 z "},"ŉ":{"ha":1063,"x_min":118,"x_max":997,"o":"m 268 -3 l 373 509 q 378 545 378 536 q 372 563 378 557 q 353 572 366 569 q 320 576 340 575 q 276 576 301 576 l 280 608 q 465 639 402 639 q 541 622 512 639 q 570 572 570 605 q 568 558 570 568 q 814 640 703 640 q 929 601 888 640 q 970 495 970 562 q 963 433 970 466 l 895 111 q 893 101 894 106 q 892 91 892 96 q 899 68 892 77 q 919 57 906 60 q 952 52 932 53 q 997 51 972 51 l 994 20 q 808 -12 892 -12 q 728 7 755 -12 q 701 72 701 27 q 707 121 701 93 l 768 404 q 775 463 775 439 q 757 523 775 504 q 704 543 739 543 q 558 499 651 543 l 457 3 l 268 -3 m 118 659 q 238 831 238 743 q 176 931 238 894 q 206 997 180 972 q 271 1022 233 1022 q 336 994 311 1022 q 361 916 361 965 q 144 621 361 758 l 118 659 z "},"ò":{"ha":814,"x_min":53,"x_max":755,"o":"m 433 640 q 667 564 580 640 q 755 359 755 488 q 649 89 755 196 q 374 -18 543 -18 q 139 58 226 -18 q 53 260 53 134 q 157 532 53 425 q 433 640 262 640 m 425 570 q 300 478 350 570 q 252 256 251 385 q 286 106 252 160 q 382 52 320 52 q 507 147 460 52 q 555 366 555 242 q 520 516 555 463 q 425 570 486 570 m 486 708 l 429 708 l 295 964 l 452 964 l 486 708 m 95 640 z "},"ó":{"ha":814,"x_min":53,"x_max":755,"o":"m 433 640 q 667 564 580 640 q 755 359 755 488 q 649 89 755 196 q 374 -18 543 -18 q 139 58 226 -18 q 53 260 53 134 q 157 532 53 425 q 433 640 262 640 m 425 570 q 300 478 350 570 q 252 256 251 385 q 286 106 252 160 q 382 52 320 52 q 507 147 460 52 q 555 366 555 242 q 520 516 555 463 q 425 570 486 570 m 517 964 l 692 964 l 469 708 l 412 708 l 517 964 m 95 640 z "},"ô":{"ha":814,"x_min":53,"x_max":755,"o":"m 433 640 q 667 564 580 640 q 755 359 755 488 q 649 89 755 196 q 374 -18 543 -18 q 139 58 226 -18 q 53 260 53 134 q 157 532 53 425 q 433 640 262 640 m 425 570 q 300 478 350 570 q 252 256 251 385 q 286 106 252 160 q 382 52 320 52 q 507 147 460 52 q 555 366 555 242 q 520 516 555 463 q 425 570 486 570 m 661 708 l 601 708 l 479 860 l 311 708 l 248 708 l 427 964 l 563 964 l 661 708 m 95 640 z "},"õ":{"ha":814,"x_min":53,"x_max":755,"o":"m 433 640 q 667 564 580 640 q 755 359 755 488 q 649 89 755 196 q 374 -18 543 -18 q 139 58 226 -18 q 53 260 53 134 q 157 532 53 425 q 433 640 262 640 m 425 570 q 300 478 350 570 q 252 256 251 385 q 286 106 252 160 q 382 52 320 52 q 507 147 460 52 q 555 366 555 242 q 520 516 555 463 q 425 570 486 570 m 718 900 q 555 751 633 751 q 506 761 528 751 q 456 788 484 772 q 434 801 444 795 q 415 811 425 807 q 398 817 406 815 q 381 819 390 819 q 343 808 360 819 q 283 751 326 796 l 248 781 q 335 894 299 861 q 408 926 370 926 q 448 920 429 926 q 501 892 467 912 q 528 877 517 884 q 549 866 539 871 q 566 860 558 862 q 584 858 574 858 q 622 869 606 858 q 680 926 638 880 l 718 900 m 95 640 z "},"ö":{"ha":814,"x_min":53,"x_max":755,"o":"m 433 640 q 667 564 580 640 q 755 359 755 488 q 649 89 755 196 q 374 -18 543 -18 q 139 58 226 -18 q 53 260 53 134 q 157 532 53 425 q 433 640 262 640 m 425 570 q 300 478 350 570 q 252 256 251 385 q 286 106 252 160 q 382 52 320 52 q 507 147 460 52 q 555 366 555 242 q 520 516 555 463 q 425 570 486 570 m 432 878 q 406 808 432 834 q 337 782 379 782 q 273 807 298 782 q 248 871 248 831 q 274 940 248 915 q 343 966 300 966 q 407 942 382 966 q 432 878 432 919 m 714 878 q 688 808 714 834 q 619 782 661 782 q 555 807 580 782 q 530 871 530 831 q 556 940 530 915 q 625 966 583 966 q 689 942 665 966 q 714 878 714 919 m 95 640 z "},"ō":{"ha":814,"x_min":53,"x_max":755,"o":"m 433 640 q 667 564 580 640 q 755 359 755 488 q 649 89 755 196 q 374 -18 543 -18 q 139 58 226 -18 q 53 260 53 134 q 157 532 53 425 q 433 640 262 640 m 425 570 q 300 478 350 570 q 252 256 251 385 q 286 106 252 160 q 382 52 320 52 q 507 147 460 52 q 555 366 555 242 q 520 516 555 463 q 425 570 486 570 m 283 803 l 299 886 l 686 886 l 669 803 l 283 803 m 95 640 z "},"ŏ":{"ha":814,"x_min":53,"x_max":755,"o":"m 433 640 q 667 564 580 640 q 755 359 755 488 q 649 89 755 196 q 374 -18 543 -18 q 139 58 226 -18 q 53 260 53 134 q 157 532 53 425 q 433 640 262 640 m 425 570 q 300 478 350 570 q 252 256 251 385 q 286 106 252 160 q 382 52 320 52 q 507 147 460 52 q 555 366 555 242 q 520 516 555 463 q 425 570 486 570 m 353 949 q 384 852 353 886 q 473 818 414 818 q 568 851 530 818 q 629 944 607 884 l 680 949 q 608 778 666 845 q 457 711 550 711 q 339 757 380 711 q 298 890 298 803 q 302 944 298 915 l 353 949 m 95 640 z "},"ő":{"ha":814,"x_min":53,"x_max":780,"o":"m 433 640 q 667 564 580 640 q 755 359 755 488 q 649 89 755 196 q 374 -18 543 -18 q 139 58 226 -18 q 53 260 53 134 q 157 532 53 425 q 433 640 262 640 m 425 570 q 300 478 350 570 q 252 256 251 385 q 286 106 252 160 q 382 52 320 52 q 507 147 460 52 q 555 366 555 242 q 520 516 555 463 q 425 570 486 570 m 410 964 l 570 964 l 362 708 l 309 708 l 410 964 m 620 964 l 780 964 l 572 708 l 518 708 l 620 964 m 95 640 z "},"ø":{"ha":814,"x_min":53,"x_max":755,"o":"m 433 640 q 602 606 531 640 l 655 672 l 703 635 l 654 575 q 667 564 661 570 q 755 359 755 488 q 649 89 755 196 q 374 -18 543 -18 q 203 16 275 -18 l 147 -54 l 99 -18 l 152 47 q 139 58 145 52 q 53 260 53 134 q 157 532 53 425 q 433 640 262 640 m 280 111 q 382 50 316 50 q 510 146 461 50 q 558 366 558 241 q 551 446 558 411 l 280 111 m 256 176 l 526 512 q 425 572 490 572 q 298 479 349 572 q 248 256 248 386 q 256 176 248 212 z "},"ǿ":{"ha":814,"x_min":53,"x_max":755,"o":"m 433 640 q 602 606 531 640 l 655 672 l 703 635 l 654 575 q 667 564 661 570 q 755 359 755 488 q 649 89 755 196 q 374 -18 543 -18 q 203 16 275 -18 l 147 -54 l 99 -18 l 152 47 q 139 58 145 52 q 53 260 53 134 q 157 532 53 425 q 433 640 262 640 m 280 111 q 382 50 316 50 q 510 146 461 50 q 558 366 558 241 q 551 446 558 411 l 280 111 m 256 176 l 526 512 q 425 572 490 572 q 298 479 349 572 q 248 256 248 386 q 256 176 248 212 m 517 964 l 692 964 l 469 708 l 412 708 l 517 964 m 95 640 z "},"œ":{"ha":1203,"x_min":53,"x_max":1163,"o":"m 1077 130 l 1100 96 q 812 -17 970 -17 q 606 64 684 -17 q 370 -18 509 -18 q 138 58 223 -18 q 53 260 53 134 q 156 532 53 425 q 428 640 259 640 q 679 534 594 640 q 960 640 798 640 q 1110 605 1057 640 q 1163 501 1163 569 q 1055 360 1163 416 q 734 293 946 303 q 733 262 733 277 q 770 123 733 171 q 882 75 808 75 q 1077 130 979 75 m 419 570 q 299 478 347 570 q 252 256 251 385 q 285 106 252 160 q 378 52 318 52 q 499 147 453 52 q 545 366 545 242 q 511 516 545 463 q 419 570 477 570 m 740 347 q 975 498 975 369 q 958 552 975 534 q 916 570 941 570 q 810 508 860 570 q 740 347 760 446 z "},"ŕ":{"ha":611,"x_min":34,"x_max":631,"o":"m 64 -3 l 170 509 q 175 545 175 538 q 169 563 175 556 q 149 572 162 569 q 117 576 136 575 q 73 576 98 576 l 77 608 q 262 639 197 639 q 337 622 309 639 q 366 572 366 605 q 365 557 366 566 q 615 640 490 640 l 620 634 q 573 410 595 528 l 531 404 q 501 504 519 477 q 450 531 484 531 q 355 501 414 531 l 254 3 l 64 -3 m 456 964 l 631 964 l 408 708 l 351 708 l 456 964 m 34 640 z "},"ř":{"ha":611,"x_min":34,"x_max":640,"o":"m 64 -3 l 170 509 q 175 545 175 538 q 169 563 175 556 q 149 572 162 569 q 117 576 136 575 q 73 576 98 576 l 77 608 q 262 639 197 639 q 337 622 309 639 q 366 572 366 605 q 365 557 366 566 q 615 640 490 640 l 620 634 q 573 410 595 528 l 531 404 q 501 504 519 477 q 450 531 484 531 q 355 501 414 531 l 254 3 l 64 -3 m 228 964 l 288 964 l 409 812 l 578 964 l 640 964 l 461 708 l 326 708 l 228 964 m 34 640 z "},"ŗ":{"ha":611,"x_min":39,"x_max":620,"o":"m 64 -3 l 170 509 q 175 545 175 538 q 169 563 175 556 q 149 572 162 569 q 117 576 136 575 q 73 576 98 576 l 77 608 q 262 639 197 639 q 337 622 309 639 q 366 572 366 605 q 365 557 366 566 q 615 640 490 640 l 620 634 q 573 410 595 528 l 531 404 q 501 504 519 477 q 450 531 484 531 q 355 501 414 531 l 254 3 l 64 -3 m 39 -313 q 113 -201 113 -256 q 64 -128 113 -155 q 84 -74 64 -94 q 137 -54 105 -54 q 192 -79 171 -54 q 213 -142 213 -104 q 64 -340 213 -249 l 39 -313 z "},"ś":{"ha":632,"x_min":12,"x_max":617,"o":"m 476 563 q 400 574 435 574 q 294 550 332 574 q 257 481 257 527 q 268 446 257 461 q 296 419 278 431 q 338 395 315 406 q 386 372 361 384 q 446 342 416 358 q 498 304 475 326 q 536 255 521 283 q 551 189 551 227 q 472 36 551 90 q 256 -18 394 -18 q 128 -6 191 -18 q 12 26 64 6 q 34 112 23 67 q 54 203 45 157 l 88 209 l 132 62 q 230 48 182 48 q 329 74 292 48 q 366 149 366 100 q 355 185 366 170 q 326 214 344 201 q 285 238 308 227 q 237 260 262 249 q 182 289 209 273 q 134 326 155 304 q 99 374 112 347 q 85 439 85 402 q 169 587 85 534 q 391 640 252 640 q 597 608 498 640 q 576 530 587 573 q 556 437 566 486 l 523 431 l 476 563 m 443 964 l 617 964 l 395 708 l 338 708 l 443 964 m 20 640 z "},"ŝ":{"ha":632,"x_min":12,"x_max":597,"o":"m 476 563 q 400 574 435 574 q 294 550 332 574 q 257 481 257 527 q 268 446 257 461 q 296 419 278 431 q 338 395 315 406 q 386 372 361 384 q 446 342 416 358 q 498 304 475 326 q 536 255 521 283 q 551 189 551 227 q 472 36 551 90 q 256 -18 394 -18 q 128 -6 191 -18 q 12 26 64 6 q 34 112 23 67 q 54 203 45 157 l 88 209 l 132 62 q 230 48 182 48 q 329 74 292 48 q 366 149 366 100 q 355 185 366 170 q 326 214 344 201 q 285 238 308 227 q 237 260 262 249 q 182 289 209 273 q 134 326 155 304 q 99 374 112 347 q 85 439 85 402 q 169 587 85 534 q 391 640 252 640 q 597 608 498 640 q 576 530 587 573 q 556 437 566 486 l 523 431 l 476 563 m 586 708 l 526 708 l 405 860 l 236 708 l 174 708 l 353 964 l 488 964 l 586 708 m 20 640 z "},"š":{"ha":632,"x_min":12,"x_max":627,"o":"m 476 563 q 400 574 435 574 q 294 550 332 574 q 257 481 257 527 q 268 446 257 461 q 296 419 278 431 q 338 395 315 406 q 386 372 361 384 q 446 342 416 358 q 498 304 475 326 q 536 255 521 283 q 551 189 551 227 q 472 36 551 90 q 256 -18 394 -18 q 128 -6 191 -18 q 12 26 64 6 q 34 112 23 67 q 54 203 45 157 l 88 209 l 132 62 q 230 48 182 48 q 329 74 292 48 q 366 149 366 100 q 355 185 366 170 q 326 214 344 201 q 285 238 308 227 q 237 260 262 249 q 182 289 209 273 q 134 326 155 304 q 99 374 112 347 q 85 439 85 402 q 169 587 85 534 q 391 640 252 640 q 597 608 498 640 q 576 530 587 573 q 556 437 566 486 l 523 431 l 476 563 m 214 964 l 274 964 l 395 812 l 564 964 l 627 964 l 448 708 l 312 708 l 214 964 m 20 640 z "},"ş":{"ha":632,"x_min":12,"x_max":597,"o":"m 476 563 q 400 574 435 574 q 294 550 332 574 q 257 481 257 527 q 268 446 257 461 q 296 419 278 431 q 338 395 315 406 q 386 372 361 384 q 446 342 416 358 q 498 304 475 326 q 536 255 521 283 q 551 189 551 227 q 476 38 551 92 q 271 -18 402 -16 l 231 -72 q 300 -163 300 -106 q 157 -335 300 -239 l 132 -307 q 198 -207 198 -253 q 126 -134 198 -158 l 123 -128 l 210 -17 q 12 26 108 -9 q 34 112 23 67 q 54 203 45 157 l 88 209 l 132 62 q 230 48 182 48 q 329 74 292 48 q 366 149 366 100 q 355 185 366 170 q 326 214 344 201 q 285 238 308 227 q 237 260 262 249 q 182 289 209 273 q 134 326 155 304 q 99 374 112 347 q 85 439 85 402 q 169 587 85 534 q 391 640 252 640 q 597 608 498 640 q 576 530 587 573 q 556 437 566 486 l 523 431 l 476 563 z "},"ș":{"ha":632,"x_min":12,"x_max":597,"o":"m 476 563 q 400 574 435 574 q 294 550 332 574 q 257 481 257 527 q 268 446 257 461 q 296 419 278 431 q 338 395 315 406 q 386 372 361 384 q 446 342 416 358 q 498 304 475 326 q 536 255 521 283 q 551 189 551 227 q 472 36 551 90 q 256 -18 394 -18 q 128 -6 191 -18 q 12 26 64 6 q 34 112 23 67 q 54 203 45 157 l 88 209 l 132 62 q 230 48 182 48 q 329 74 292 48 q 366 149 366 100 q 355 185 366 170 q 326 214 344 201 q 285 238 308 227 q 237 260 262 249 q 182 289 209 273 q 134 326 155 304 q 99 374 112 347 q 85 439 85 402 q 169 587 85 534 q 391 640 252 640 q 597 608 498 640 q 576 530 587 573 q 556 437 566 486 l 523 431 l 476 563 m 121 -313 q 195 -201 195 -256 q 145 -128 195 -155 q 166 -74 145 -94 q 218 -54 186 -54 q 273 -79 252 -54 q 294 -142 294 -104 q 145 -340 294 -249 l 121 -313 z "},"ß":{"ha":916,"x_min":-200,"x_max":860,"o":"m 172 549 l 72 576 l 74 605 l 184 615 q 335 917 226 812 q 602 1022 445 1022 q 793 970 726 1022 q 860 817 860 918 q 836 675 860 754 q 678 612 731 652 q 625 520 625 573 q 633 476 625 496 q 657 439 642 456 q 691 408 672 422 q 731 378 711 393 q 777 342 754 361 q 817 301 799 324 q 845 249 834 278 q 857 183 857 220 q 780 35 857 89 q 568 -18 703 -18 q 330 26 448 -18 q 372 203 355 118 l 406 209 l 450 62 q 540 48 494 48 q 636 76 603 48 q 669 147 669 104 q 661 185 669 168 q 638 218 652 203 q 606 248 624 234 q 568 277 587 262 q 522 313 545 294 q 481 352 499 331 q 452 400 463 374 q 441 458 441 426 q 658 678 441 597 q 684 824 684 753 q 654 923 684 888 q 572 958 625 958 q 465 900 510 958 q 386 671 419 842 l 258 44 q 138 -245 216 -155 q -77 -336 60 -336 q -200 -322 -130 -336 q -166 -180 -184 -248 l -157 -177 q -42 -266 -79 -266 q 22 -212 -4 -266 q 46 -137 35 -184 q 71 -18 58 -90 l 172 549 z "},"ſ":{"ha":441,"x_min":-200,"x_max":730,"o":"m 172 549 l 72 576 l 74 605 l 184 615 q 336 917 226 812 q 595 1022 446 1022 q 730 1002 664 1022 q 681 808 702 909 l 643 802 l 607 954 q 572 958 593 958 q 465 900 510 958 q 386 671 419 842 l 258 44 q 138 -245 216 -155 q -77 -336 60 -336 q -200 -322 -130 -336 q -166 -180 -184 -248 l -157 -177 q -42 -266 -79 -266 q 22 -212 -4 -266 q 46 -137 35 -184 q 71 -18 58 -90 l 172 549 z "},"ť":{"ha":575,"x_min":81,"x_max":684,"o":"m 302 783 l 414 802 l 422 798 q 380 616 391 669 l 570 616 l 557 545 l 363 545 q 324 369 344 458 q 286 189 304 279 q 279 136 279 159 q 298 82 279 98 q 352 66 317 66 q 475 87 399 66 l 482 43 q 245 -18 357 -18 q 127 14 170 -18 q 85 106 85 45 q 90 151 85 127 q 123 313 102 216 q 177 551 144 411 l 81 576 l 83 605 l 202 616 l 302 783 m 498 684 q 575 832 575 759 q 512 926 575 892 q 537 984 514 963 q 598 1006 560 1006 q 660 979 636 1006 q 684 908 684 952 q 523 656 684 778 l 498 684 m 456 640 z "},"ț":{"ha":575,"x_min":81,"x_max":570,"o":"m 302 783 l 414 802 l 422 798 q 380 616 391 669 l 570 616 l 557 545 l 363 545 q 324 369 344 458 q 286 189 304 279 q 279 136 279 159 q 298 82 279 98 q 352 66 317 66 q 475 87 399 66 l 482 43 q 245 -18 357 -18 q 127 14 170 -18 q 85 106 85 45 q 90 151 85 127 q 123 313 102 216 q 177 551 144 411 l 81 576 l 83 605 l 202 616 l 302 783 m 124 -313 q 198 -201 198 -256 q 149 -128 198 -155 q 169 -74 149 -94 q 222 -54 190 -54 q 277 -79 256 -54 q 298 -142 298 -104 q 149 -340 298 -249 l 124 -313 z "},"ŧ":{"ha":575,"x_min":38,"x_max":570,"o":"m 51 416 l 146 416 q 177 551 159 476 l 81 576 l 83 605 l 202 616 l 302 783 l 414 802 l 422 798 q 380 616 391 669 l 570 616 l 557 545 l 363 545 q 334 416 349 481 l 532 416 l 520 351 l 319 351 q 286 189 302 271 q 279 136 279 159 q 298 82 279 98 q 352 66 317 66 q 475 87 399 66 l 482 43 q 245 -18 357 -18 q 127 14 170 -18 q 85 106 85 45 q 90 151 85 127 q 132 351 102 216 l 38 351 l 51 416 z "},"ù":{"ha":859,"x_min":62,"x_max":788,"o":"m 62 576 l 66 608 q 264 639 185 639 q 334 623 309 639 q 359 573 359 608 q 356 545 359 557 l 288 237 q 282 182 282 208 q 302 111 282 136 q 357 85 322 85 q 503 163 418 85 l 597 618 l 788 625 l 684 122 q 680 90 680 102 q 685 68 680 77 q 703 56 690 60 q 735 50 715 52 q 785 48 755 49 l 781 16 q 603 -12 662 -12 q 523 11 552 -12 q 493 78 493 35 q 494 91 493 84 q 272 -19 381 -19 q 143 29 192 -19 q 95 159 95 77 q 97 197 95 178 q 104 238 100 217 l 159 508 q 165 543 165 534 q 149 569 165 562 q 62 576 132 576 m 510 708 l 453 708 l 319 964 l 476 964 l 510 708 m 119 640 z "},"ú":{"ha":859,"x_min":62,"x_max":788,"o":"m 62 576 l 66 608 q 264 639 185 639 q 334 623 309 639 q 359 573 359 608 q 356 545 359 557 l 288 237 q 282 182 282 208 q 302 111 282 136 q 357 85 322 85 q 503 163 418 85 l 597 618 l 788 625 l 684 122 q 680 90 680 102 q 685 68 680 77 q 703 56 690 60 q 735 50 715 52 q 785 48 755 49 l 781 16 q 603 -12 662 -12 q 523 11 552 -12 q 493 78 493 35 q 494 91 493 84 q 272 -19 381 -19 q 143 29 192 -19 q 95 159 95 77 q 97 197 95 178 q 104 238 100 217 l 159 508 q 165 543 165 534 q 149 569 165 562 q 62 576 132 576 m 541 964 l 715 964 l 493 708 l 436 708 l 541 964 m 119 640 z "},"û":{"ha":859,"x_min":62,"x_max":788,"o":"m 62 576 l 66 608 q 264 639 185 639 q 334 623 309 639 q 359 573 359 608 q 356 545 359 557 l 288 237 q 282 182 282 208 q 302 111 282 136 q 357 85 322 85 q 503 163 418 85 l 597 618 l 788 625 l 684 122 q 680 90 680 102 q 685 68 680 77 q 703 56 690 60 q 735 50 715 52 q 785 48 755 49 l 781 16 q 603 -12 662 -12 q 523 11 552 -12 q 493 78 493 35 q 494 91 493 84 q 272 -19 381 -19 q 143 29 192 -19 q 95 159 95 77 q 97 197 95 178 q 104 238 100 217 l 159 508 q 165 543 165 534 q 149 569 165 562 q 62 576 132 576 m 684 708 l 625 708 l 503 860 l 334 708 l 272 708 l 451 964 l 587 964 l 684 708 m 119 640 z "},"ũ":{"ha":859,"x_min":62,"x_max":788,"o":"m 62 576 l 66 608 q 264 639 185 639 q 334 623 309 639 q 359 573 359 608 q 356 545 359 557 l 288 237 q 282 182 282 208 q 302 111 282 136 q 357 85 322 85 q 503 163 418 85 l 597 618 l 788 625 l 684 122 q 680 90 680 102 q 685 68 680 77 q 703 56 690 60 q 735 50 715 52 q 785 48 755 49 l 781 16 q 603 -12 662 -12 q 523 11 552 -12 q 493 78 493 35 q 494 91 493 84 q 272 -19 381 -19 q 143 29 192 -19 q 95 159 95 77 q 97 197 95 178 q 104 238 100 217 l 159 508 q 165 543 165 534 q 149 569 165 562 q 62 576 132 576 m 741 900 q 578 751 657 751 q 530 761 552 751 q 480 788 507 772 q 458 801 467 795 q 439 811 448 807 q 422 817 430 815 q 405 819 414 819 q 367 808 384 819 q 307 751 349 796 l 272 781 q 358 894 323 861 q 432 926 394 926 q 472 920 453 926 q 525 892 491 912 q 552 877 541 884 q 572 866 563 871 q 590 860 582 862 q 608 858 598 858 q 646 869 630 858 q 704 926 662 880 l 741 900 m 119 640 z "},"ü":{"ha":859,"x_min":62,"x_max":788,"o":"m 62 576 l 66 608 q 264 639 185 639 q 334 623 309 639 q 359 573 359 608 q 356 545 359 557 l 288 237 q 282 182 282 208 q 302 111 282 136 q 357 85 322 85 q 503 163 418 85 l 597 618 l 788 625 l 684 122 q 680 90 680 102 q 685 68 680 77 q 703 56 690 60 q 735 50 715 52 q 785 48 755 49 l 781 16 q 603 -12 662 -12 q 523 11 552 -12 q 493 78 493 35 q 494 91 493 84 q 272 -19 381 -19 q 143 29 192 -19 q 95 159 95 77 q 97 197 95 178 q 104 238 100 217 l 159 508 q 165 543 165 534 q 149 569 165 562 q 62 576 132 576 m 456 878 q 429 808 456 834 q 361 782 403 782 q 296 807 321 782 q 271 871 271 831 q 298 940 271 915 q 367 966 324 966 q 431 942 406 966 q 456 878 456 919 m 738 878 q 711 808 738 834 q 643 782 685 782 q 578 807 604 782 q 553 871 553 831 q 580 940 553 915 q 649 966 606 966 q 713 942 688 966 q 738 878 738 919 m 119 640 z "},"ū":{"ha":859,"x_min":62,"x_max":788,"o":"m 62 576 l 66 608 q 264 639 185 639 q 334 623 309 639 q 359 573 359 608 q 356 545 359 557 l 288 237 q 282 182 282 208 q 302 111 282 136 q 357 85 322 85 q 503 163 418 85 l 597 618 l 788 625 l 684 122 q 680 90 680 102 q 685 68 680 77 q 703 56 690 60 q 735 50 715 52 q 785 48 755 49 l 781 16 q 603 -12 662 -12 q 523 11 552 -12 q 493 78 493 35 q 494 91 493 84 q 272 -19 381 -19 q 143 29 192 -19 q 95 159 95 77 q 97 197 95 178 q 104 238 100 217 l 159 508 q 165 543 165 534 q 149 569 165 562 q 62 576 132 576 m 307 803 l 323 886 l 709 886 l 693 803 l 307 803 m 119 640 z "},"ŭ":{"ha":859,"x_min":62,"x_max":788,"o":"m 62 576 l 66 608 q 264 639 185 639 q 334 623 309 639 q 359 573 359 608 q 356 545 359 557 l 288 237 q 282 182 282 208 q 302 111 282 136 q 357 85 322 85 q 503 163 418 85 l 597 618 l 788 625 l 684 122 q 680 90 680 102 q 685 68 680 77 q 703 56 690 60 q 735 50 715 52 q 785 48 755 49 l 781 16 q 603 -12 662 -12 q 523 11 552 -12 q 493 78 493 35 q 494 91 493 84 q 272 -19 381 -19 q 143 29 192 -19 q 95 159 95 77 q 97 197 95 178 q 104 238 100 217 l 159 508 q 165 543 165 534 q 149 569 165 562 q 62 576 132 576 m 377 949 q 408 852 377 886 q 496 818 438 818 q 592 851 553 818 q 652 944 631 884 l 704 949 q 632 778 690 845 q 481 711 574 711 q 363 757 404 711 q 321 890 321 803 q 326 944 321 915 l 377 949 m 119 640 z "},"ů":{"ha":859,"x_min":62,"x_max":788,"o":"m 62 576 l 66 608 q 264 639 185 639 q 334 623 309 639 q 359 573 359 608 q 356 545 359 557 l 288 237 q 282 182 282 208 q 302 111 282 136 q 357 85 322 85 q 503 163 418 85 l 597 618 l 788 625 l 684 122 q 680 90 680 102 q 685 68 680 77 q 703 56 690 60 q 735 50 715 52 q 785 48 755 49 l 781 16 q 603 -12 662 -12 q 523 11 552 -12 q 493 78 493 35 q 494 91 493 84 q 272 -19 381 -19 q 143 29 192 -19 q 95 159 95 77 q 97 197 95 178 q 104 238 100 217 l 159 508 q 165 543 165 534 q 149 569 165 562 q 62 576 132 576 m 481 708 q 379 739 416 708 q 341 821 341 769 q 396 931 341 888 q 522 974 450 974 q 621 942 581 974 q 661 859 661 910 q 609 750 661 791 q 481 708 557 708 m 491 755 q 550 783 528 755 q 572 855 572 810 q 557 906 572 886 q 513 926 542 926 q 452 898 474 926 q 430 825 430 869 q 446 775 430 795 q 491 755 462 755 m 119 640 z "},"ű":{"ha":859,"x_min":62,"x_max":804,"o":"m 62 576 l 66 608 q 264 639 185 639 q 334 623 309 639 q 359 573 359 608 q 356 545 359 557 l 288 237 q 282 182 282 208 q 302 111 282 136 q 357 85 322 85 q 503 163 418 85 l 597 618 l 788 625 l 684 122 q 680 90 680 102 q 685 68 680 77 q 703 56 690 60 q 735 50 715 52 q 785 48 755 49 l 781 16 q 603 -12 662 -12 q 523 11 552 -12 q 493 78 493 35 q 494 91 493 84 q 272 -19 381 -19 q 143 29 192 -19 q 95 159 95 77 q 97 197 95 178 q 104 238 100 217 l 159 508 q 165 543 165 534 q 149 569 165 562 q 62 576 132 576 m 434 964 l 594 964 l 386 708 l 332 708 l 434 964 m 644 964 l 804 964 l 595 708 l 542 708 l 644 964 m 119 640 z "},"ų":{"ha":859,"x_min":62,"x_max":788,"o":"m 62 576 l 66 608 q 264 639 185 639 q 334 623 309 639 q 359 573 359 608 q 356 545 359 557 l 288 237 q 282 182 282 208 q 302 111 282 136 q 357 85 322 85 q 503 163 418 85 l 597 618 l 788 625 l 684 122 q 680 90 680 102 q 685 68 680 77 q 703 56 690 60 q 735 50 715 52 q 785 48 755 49 l 781 16 q 663 -7 712 0 q 591 -78 621 -31 q 561 -174 561 -125 q 587 -241 561 -217 q 661 -265 613 -265 q 713 -259 683 -265 l 720 -294 q 536 -336 604 -336 q 427 -304 467 -336 q 386 -218 386 -272 q 559 -7 386 -102 q 493 78 493 13 q 494 91 493 84 q 272 -19 381 -19 q 143 29 192 -19 q 95 159 95 77 q 97 197 95 178 q 104 238 100 217 l 159 508 q 165 543 165 534 q 149 569 165 562 q 62 576 132 576 z "},"ẁ":{"ha":1054,"x_min":-5,"x_max":1042,"o":"m 656 -6 l 564 -16 q 541 131 552 60 q 517 273 530 202 q 305 -6 401 98 l 212 -16 q 200 69 206 28 q 186 150 193 110 q 173 230 180 190 q 159 312 165 270 q 149 362 155 332 q 136 423 143 392 q 121 484 129 454 q 106 532 113 513 q 97 551 102 543 q 81 565 92 559 q 49 573 69 570 q -5 576 29 576 l -1 608 q 179 639 118 639 q 243 629 220 639 q 279 593 267 618 q 292 554 285 578 q 306 498 299 529 q 320 434 313 468 q 333 367 327 399 q 344 305 339 334 q 351 255 349 276 l 361 176 q 496 382 440 279 q 474 489 486 435 q 448 601 462 543 q 610 636 538 619 l 622 632 q 701 255 663 485 l 712 176 q 809 372 774 269 q 844 593 844 475 q 941 617 895 604 q 1029 642 987 629 l 1042 635 q 1020 532 1041 589 q 967 414 1000 475 q 892 291 934 353 q 808 173 851 229 q 726 71 766 117 q 656 -6 686 24 m 588 708 l 531 708 l 397 964 l 554 964 l 588 708 m 197 640 z "},"ẃ":{"ha":1054,"x_min":-5,"x_max":1042,"o":"m 656 -6 l 564 -16 q 541 131 552 60 q 517 273 530 202 q 305 -6 401 98 l 212 -16 q 200 69 206 28 q 186 150 193 110 q 173 230 180 190 q 159 312 165 270 q 149 362 155 332 q 136 423 143 392 q 121 484 129 454 q 106 532 113 513 q 97 551 102 543 q 81 565 92 559 q 49 573 69 570 q -5 576 29 576 l -1 608 q 179 639 118 639 q 243 629 220 639 q 279 593 267 618 q 292 554 285 578 q 306 498 299 529 q 320 434 313 468 q 333 367 327 399 q 344 305 339 334 q 351 255 349 276 l 361 176 q 496 382 440 279 q 474 489 486 435 q 448 601 462 543 q 610 636 538 619 l 622 632 q 701 255 663 485 l 712 176 q 809 372 774 269 q 844 593 844 475 q 941 617 895 604 q 1029 642 987 629 l 1042 635 q 1020 532 1041 589 q 967 414 1000 475 q 892 291 934 353 q 808 173 851 229 q 726 71 766 117 q 656 -6 686 24 m 619 964 l 793 964 l 571 708 l 514 708 l 619 964 m 197 640 z "},"ŵ":{"ha":1054,"x_min":-5,"x_max":1042,"o":"m 656 -6 l 564 -16 q 541 131 552 60 q 517 273 530 202 q 305 -6 401 98 l 212 -16 q 200 69 206 28 q 186 150 193 110 q 173 230 180 190 q 159 312 165 270 q 149 362 155 332 q 136 423 143 392 q 121 484 129 454 q 106 532 113 513 q 97 551 102 543 q 81 565 92 559 q 49 573 69 570 q -5 576 29 576 l -1 608 q 179 639 118 639 q 243 629 220 639 q 279 593 267 618 q 292 554 285 578 q 306 498 299 529 q 320 434 313 468 q 333 367 327 399 q 344 305 339 334 q 351 255 349 276 l 361 176 q 496 382 440 279 q 474 489 486 435 q 448 601 462 543 q 610 636 538 619 l 622 632 q 701 255 663 485 l 712 176 q 809 372 774 269 q 844 593 844 475 q 941 617 895 604 q 1029 642 987 629 l 1042 635 q 1020 532 1041 589 q 967 414 1000 475 q 892 291 934 353 q 808 173 851 229 q 726 71 766 117 q 656 -6 686 24 m 762 708 l 703 708 l 581 860 l 412 708 l 350 708 l 529 964 l 665 964 l 762 708 m 197 640 z "},"ẅ":{"ha":1054,"x_min":-5,"x_max":1042,"o":"m 656 -6 l 564 -16 q 541 131 552 60 q 517 273 530 202 q 305 -6 401 98 l 212 -16 q 200 69 206 28 q 186 150 193 110 q 173 230 180 190 q 159 312 165 270 q 149 362 155 332 q 136 423 143 392 q 121 484 129 454 q 106 532 113 513 q 97 551 102 543 q 81 565 92 559 q 49 573 69 570 q -5 576 29 576 l -1 608 q 179 639 118 639 q 243 629 220 639 q 279 593 267 618 q 292 554 285 578 q 306 498 299 529 q 320 434 313 468 q 333 367 327 399 q 344 305 339 334 q 351 255 349 276 l 361 176 q 496 382 440 279 q 474 489 486 435 q 448 601 462 543 q 610 636 538 619 l 622 632 q 701 255 663 485 l 712 176 q 809 372 774 269 q 844 593 844 475 q 941 617 895 604 q 1029 642 987 629 l 1042 635 q 1020 532 1041 589 q 967 414 1000 475 q 892 291 934 353 q 808 173 851 229 q 726 71 766 117 q 656 -6 686 24 m 534 878 q 507 808 534 834 q 439 782 481 782 q 374 807 399 782 q 349 871 349 831 q 376 940 349 915 q 445 966 402 966 q 509 942 484 966 q 534 878 534 919 m 816 878 q 789 808 816 834 q 721 782 763 782 q 656 807 682 782 q 631 871 631 831 q 658 940 631 915 q 727 966 684 966 q 791 942 766 966 q 816 878 816 919 m 197 640 z "},"ỳ":{"ha":722,"x_min":-30,"x_max":721,"o":"m 524 593 q 706 645 624 621 l 721 635 q 666 497 694 562 q 609 376 638 433 q 552 268 581 319 q 496 173 523 218 q 443 85 467 126 q 396 6 418 44 q 360 -61 378 -24 q 323 -138 341 -99 q 290 -214 305 -177 q 265 -278 275 -251 q 245 -313 257 -300 q 216 -332 233 -326 q 176 -339 199 -338 q 121 -340 153 -340 q -26 -334 37 -340 l -30 -299 q 44 -284 11 -294 q 102 -255 78 -274 q 133 -228 116 -244 q 174 -182 151 -211 q 229 -110 197 -154 q 303 -1 260 -66 l 265 7 q 250 93 260 44 q 227 195 240 142 q 197 301 213 248 q 166 401 182 355 q 136 483 151 448 q 112 533 122 517 q 88 558 101 549 q 60 570 75 566 q 27 575 45 574 q -12 576 9 576 l -7 608 q 173 639 109 639 q 238 628 210 639 q 280 593 267 617 q 305 539 290 574 q 336 457 320 504 q 367 357 351 411 q 395 246 383 302 l 408 173 q 491 380 461 276 q 524 593 520 484 m 446 708 l 389 708 l 254 964 l 412 964 l 446 708 m 54 640 z "},"ý":{"ha":722,"x_min":-30,"x_max":721,"o":"m 524 593 q 706 645 624 621 l 721 635 q 666 497 694 562 q 609 376 638 433 q 552 268 581 319 q 496 173 523 218 q 443 85 467 126 q 396 6 418 44 q 360 -61 378 -24 q 323 -138 341 -99 q 290 -214 305 -177 q 265 -278 275 -251 q 245 -313 257 -300 q 216 -332 233 -326 q 176 -339 199 -338 q 121 -340 153 -340 q -26 -334 37 -340 l -30 -299 q 44 -284 11 -294 q 102 -255 78 -274 q 133 -228 116 -244 q 174 -182 151 -211 q 229 -110 197 -154 q 303 -1 260 -66 l 265 7 q 250 93 260 44 q 227 195 240 142 q 197 301 213 248 q 166 401 182 355 q 136 483 151 448 q 112 533 122 517 q 88 558 101 549 q 60 570 75 566 q 27 575 45 574 q -12 576 9 576 l -7 608 q 173 639 109 639 q 238 628 210 639 q 280 593 267 617 q 305 539 290 574 q 336 457 320 504 q 367 357 351 411 q 395 246 383 302 l 408 173 q 491 380 461 276 q 524 593 520 484 m 477 964 l 651 964 l 429 708 l 372 708 l 477 964 m 54 640 z "},"ŷ":{"ha":722,"x_min":-30,"x_max":721,"o":"m 524 593 q 706 645 624 621 l 721 635 q 666 497 694 562 q 609 376 638 433 q 552 268 581 319 q 496 173 523 218 q 443 85 467 126 q 396 6 418 44 q 360 -61 378 -24 q 323 -138 341 -99 q 290 -214 305 -177 q 265 -278 275 -251 q 245 -313 257 -300 q 216 -332 233 -326 q 176 -339 199 -338 q 121 -340 153 -340 q -26 -334 37 -340 l -30 -299 q 44 -284 11 -294 q 102 -255 78 -274 q 133 -228 116 -244 q 174 -182 151 -211 q 229 -110 197 -154 q 303 -1 260 -66 l 265 7 q 250 93 260 44 q 227 195 240 142 q 197 301 213 248 q 166 401 182 355 q 136 483 151 448 q 112 533 122 517 q 88 558 101 549 q 60 570 75 566 q 27 575 45 574 q -12 576 9 576 l -7 608 q 173 639 109 639 q 238 628 210 639 q 280 593 267 617 q 305 539 290 574 q 336 457 320 504 q 367 357 351 411 q 395 246 383 302 l 408 173 q 491 380 461 276 q 524 593 520 484 m 620 708 l 560 708 l 439 860 l 270 708 l 208 708 l 387 964 l 522 964 l 620 708 m 54 640 z "},"ÿ":{"ha":722,"x_min":-30,"x_max":721,"o":"m 524 593 q 706 645 624 621 l 721 635 q 666 497 694 562 q 609 376 638 433 q 552 268 581 319 q 496 173 523 218 q 443 85 467 126 q 396 6 418 44 q 360 -61 378 -24 q 323 -138 341 -99 q 290 -214 305 -177 q 265 -278 275 -251 q 245 -313 257 -300 q 216 -332 233 -326 q 176 -339 199 -338 q 121 -340 153 -340 q -26 -334 37 -340 l -30 -299 q 44 -284 11 -294 q 102 -255 78 -274 q 133 -228 116 -244 q 174 -182 151 -211 q 229 -110 197 -154 q 303 -1 260 -66 l 265 7 q 250 93 260 44 q 227 195 240 142 q 197 301 213 248 q 166 401 182 355 q 136 483 151 448 q 112 533 122 517 q 88 558 101 549 q 60 570 75 566 q 27 575 45 574 q -12 576 9 576 l -7 608 q 173 639 109 639 q 238 628 210 639 q 280 593 267 617 q 305 539 290 574 q 336 457 320 504 q 367 357 351 411 q 395 246 383 302 l 408 173 q 491 380 461 276 q 524 593 520 484 m 391 878 q 365 808 391 834 q 296 782 338 782 q 232 807 257 782 q 207 871 207 831 q 233 940 207 915 q 302 966 260 966 q 367 942 342 966 q 391 878 391 919 m 673 878 q 647 808 673 834 q 578 782 621 782 q 514 807 539 782 q 489 871 489 831 q 515 940 489 915 q 585 966 542 966 q 649 942 624 966 q 673 878 673 919 m 54 640 z "},"ź":{"ha":706,"x_min":0,"x_max":686,"o":"m 0 20 q 217 290 130 179 q 423 561 303 401 l 202 561 l 146 419 l 111 414 l 98 618 l 102 625 q 387 623 240 623 q 684 625 541 623 l 686 604 q 472 333 573 466 q 268 64 371 201 l 491 64 l 589 210 l 627 214 l 587 3 l 581 -2 q 290 0 458 0 q 3 -2 119 0 l 0 20 m 463 964 l 637 964 l 415 708 l 358 708 l 463 964 m 41 640 z "},"ž":{"ha":706,"x_min":0,"x_max":686,"o":"m 0 20 q 217 290 130 179 q 423 561 303 401 l 202 561 l 146 419 l 111 414 l 98 618 l 102 625 q 387 623 240 623 q 684 625 541 623 l 686 604 q 472 333 573 466 q 268 64 371 201 l 491 64 l 589 210 l 627 214 l 587 3 l 581 -2 q 290 0 458 0 q 3 -2 119 0 l 0 20 m 235 964 l 294 964 l 416 812 l 585 964 l 647 964 l 468 708 l 332 708 l 235 964 m 41 640 z "},"ż":{"ha":706,"x_min":0,"x_max":686,"o":"m 0 20 q 217 290 130 179 q 423 561 303 401 l 202 561 l 146 419 l 111 414 l 98 618 l 102 625 q 387 623 240 623 q 684 625 541 623 l 686 604 q 472 333 573 466 q 268 64 371 201 l 491 64 l 589 210 l 627 214 l 587 3 l 581 -2 q 290 0 458 0 q 3 -2 119 0 l 0 20 m 526 884 q 497 810 526 839 q 427 782 469 782 q 359 809 386 782 q 332 878 332 836 q 360 951 332 924 q 431 979 389 979 q 499 954 473 979 q 526 884 526 928 m 41 644 z "},"ŋ":{"ha":842,"x_min":64,"x_max":767,"o":"m 64 -3 l 170 509 q 174 531 172 522 q 175 545 175 540 q 169 563 175 556 q 149 572 162 569 q 117 576 136 575 q 73 576 98 576 l 77 608 q 262 639 197 639 q 337 622 309 639 q 366 572 366 605 q 365 558 366 568 q 611 640 500 640 q 726 601 685 640 q 767 495 767 562 q 765 465 767 480 q 760 433 763 450 l 676 44 q 634 -106 659 -37 q 569 -227 609 -176 q 471 -307 529 -278 q 328 -336 412 -336 q 205 -322 275 -336 q 221 -250 213 -285 q 239 -180 230 -214 l 249 -177 q 363 -266 326 -266 q 391 -257 378 -266 q 417 -221 404 -248 q 444 -146 430 -195 q 475 -18 458 -97 l 564 404 q 572 463 572 441 q 553 523 572 504 q 500 543 535 543 q 355 499 446 543 l 254 3 l 64 -3 z "},"ð":{"ha":827,"x_min":54,"x_max":785,"o":"m 255 989 l 257 1001 l 483 1001 q 591 913 547 960 l 752 994 l 785 939 l 636 865 q 770 477 770 696 q 665 117 770 253 q 375 -19 560 -19 q 142 57 231 -19 q 54 267 54 134 q 157 519 54 418 q 410 621 261 621 q 578 551 515 621 l 581 553 q 489 791 564 687 l 299 696 l 267 752 l 448 842 q 255 989 379 922 m 425 553 q 297 461 342 553 q 252 245 252 370 q 288 101 252 151 q 383 50 323 50 q 509 139 465 50 q 553 357 553 229 q 519 501 553 449 q 425 553 486 553 z "},"þ":{"ha":797,"x_min":-105,"x_max":742,"o":"m 132 962 q 443 1021 308 990 l 451 1013 q 437 955 445 987 q 421 883 430 922 q 404 800 413 844 q 385 709 395 755 l 355 565 q 550 639 500 639 q 687 571 631 639 q 742 406 742 503 q 623 101 742 219 q 313 -16 504 -16 q 237 -11 278 -16 l 208 -152 q 196 -210 201 -186 q 190 -247 192 -233 q 203 -271 187 -267 l 302 -296 l 295 -330 q 92 -328 161 -328 q -105 -330 9 -328 l -101 -296 l -20 -273 q 2 -252 -1 -267 q 16 -190 8 -227 q 34 -102 24 -153 l 243 917 l 131 933 l 132 962 m 250 52 q 302 47 279 47 q 480 144 415 47 q 545 372 545 242 q 524 492 545 446 q 462 538 504 538 q 341 500 411 538 l 250 52 z "},"ⁿ":{"ha":561,"x_min":100,"x_max":590,"o":"m 524 518 q 523 499 521 506 q 531 489 524 492 q 553 486 538 486 q 590 485 567 485 l 586 457 q 458 439 505 439 q 399 452 420 439 q 378 494 378 466 q 380 518 378 507 l 418 684 q 422 715 422 704 q 412 746 422 737 q 382 755 401 755 q 301 733 350 755 l 243 449 l 101 443 l 163 741 q 165 755 165 751 q 161 767 165 763 q 150 772 158 770 q 130 774 142 774 q 100 775 117 775 l 103 802 q 239 821 189 821 q 287 812 267 821 q 307 775 307 803 q 454 821 383 821 q 537 797 507 821 q 567 733 567 774 q 562 696 567 718 l 524 518 z "},"ﬀ":{"ha":949,"x_min":-200,"x_max":1184,"o":"m 1049 1022 q 1184 1002 1118 1022 q 1135 808 1156 909 l 1097 802 l 1061 954 q 1026 958 1048 958 q 919 900 964 958 q 840 671 873 842 l 829 614 l 1007 614 l 994 545 l 817 545 l 715 58 q 595 -232 673 -141 q 380 -323 517 -323 q 257 -309 327 -323 q 291 -166 273 -234 l 300 -163 q 415 -252 378 -252 q 479 -198 453 -252 q 504 -123 492 -171 q 528 -4 515 -76 l 626 545 l 362 545 l 258 44 q 138 -245 216 -155 q -77 -336 60 -336 q -200 -322 -130 -336 q -166 -180 -184 -248 l -157 -177 q -42 -266 -79 -266 q 22 -212 -4 -266 q 46 -137 35 -184 q 71 -18 58 -90 l 172 549 l 72 576 l 74 605 l 184 615 q 333 903 223 798 q 592 1008 444 1008 q 722 989 658 1008 q 673 794 696 903 l 637 788 l 601 941 q 569 944 587 944 q 462 886 507 944 q 383 657 416 828 l 375 614 l 638 614 q 790 917 680 812 q 1049 1022 901 1022 z "},"ﬁ":{"ha":902,"x_min":-200,"x_max":831,"o":"m 665 1022 q 823 1002 745 1022 q 778 808 798 909 l 740 802 l 701 954 q 650 958 680 958 q 478 885 539 958 q 390 683 417 813 l 375 614 l 596 614 q 725 639 679 614 q 796 623 770 639 q 821 573 821 607 q 819 545 821 559 l 730 118 q 726 92 726 100 q 749 57 726 65 q 831 48 771 48 l 827 16 q 640 -12 711 -12 q 562 7 590 -12 q 534 67 534 27 q 539 115 534 86 l 629 545 l 362 545 l 258 44 q 138 -245 216 -155 q -77 -336 60 -336 q -200 -322 -130 -336 q -166 -180 -184 -248 l -157 -177 q -42 -266 -79 -266 q 22 -212 -4 -266 q 46 -137 35 -184 q 71 -18 58 -90 l 172 549 l 72 576 l 74 605 l 184 615 q 359 919 233 815 q 665 1022 486 1022 z "},"ﬃ":{"ha":1356,"x_min":-200,"x_max":1286,"o":"m 1120 1022 q 1278 1002 1199 1022 q 1232 808 1252 909 l 1194 802 l 1155 954 q 1105 958 1134 958 q 932 885 994 958 q 844 683 871 813 l 829 614 l 1050 614 q 1179 639 1133 614 q 1250 623 1225 639 q 1276 573 1276 607 q 1273 545 1276 559 l 1184 118 q 1181 92 1181 100 q 1203 57 1181 65 q 1286 48 1225 48 l 1282 16 q 1095 -12 1166 -12 q 1016 7 1044 -12 q 988 67 988 27 q 994 115 988 86 l 1083 545 l 817 545 l 715 58 q 595 -232 673 -141 q 380 -323 517 -323 q 257 -309 327 -323 q 291 -166 273 -234 l 300 -163 q 415 -252 378 -252 q 479 -198 453 -252 q 504 -123 492 -171 q 528 -4 515 -76 l 626 545 l 362 545 l 258 44 q 138 -245 216 -155 q -77 -336 60 -336 q -200 -322 -130 -336 q -166 -180 -184 -248 l -157 -177 q -42 -266 -79 -266 q 22 -212 -4 -266 q 46 -137 35 -184 q 71 -18 58 -90 l 172 549 l 72 576 l 74 605 l 184 615 q 333 903 223 798 q 592 1008 444 1008 q 722 989 658 1008 q 673 794 696 903 l 637 788 l 601 941 q 569 944 587 944 q 462 886 507 944 q 383 657 416 828 l 375 614 l 639 614 q 813 919 687 815 q 1120 1022 940 1022 z "},"ﬂ":{"ha":911,"x_min":-200,"x_max":921,"o":"m 602 958 q 464 891 512 958 q 390 690 416 823 l 375 616 l 546 616 l 532 545 l 362 545 l 258 44 q 138 -245 216 -155 q -77 -336 60 -336 q -200 -322 -130 -336 q -166 -180 -184 -248 l -157 -177 q -42 -266 -79 -266 q 22 -212 -4 -266 q 46 -137 35 -184 q 71 -18 58 -90 l 172 549 l 72 576 l 74 605 l 184 615 q 336 917 226 812 q 605 1022 446 1022 q 781 994 702 1022 q 913 1021 846 1006 l 921 1013 q 907 955 915 987 q 891 883 900 922 q 874 800 883 844 q 854 709 865 755 l 733 117 q 730 90 730 104 q 748 59 730 68 q 837 48 766 49 l 833 16 q 646 -12 715 -12 q 564 8 591 -12 q 537 69 537 28 q 544 115 537 81 l 711 931 q 602 958 662 958 z "},"ﬄ":{"ha":1366,"x_min":-200,"x_max":1375,"o":"m 592 1008 q 722 989 658 1008 q 673 794 696 903 l 637 788 l 601 941 q 569 944 587 944 q 462 886 507 944 q 383 657 416 828 l 375 614 l 638 614 q 790 917 680 812 q 1059 1022 901 1022 q 1236 994 1157 1022 q 1367 1021 1307 1007 l 1375 1013 q 1362 955 1369 987 q 1346 883 1354 922 q 1328 800 1337 844 q 1309 709 1319 755 l 1187 117 q 1185 90 1185 104 q 1203 59 1185 68 q 1291 48 1221 49 l 1287 16 q 1100 -12 1170 -12 q 1018 8 1045 -12 q 991 69 991 28 q 998 115 991 81 l 1167 931 q 1056 958 1117 958 q 919 891 966 958 q 844 690 871 823 l 829 614 l 1000 614 l 987 545 l 817 545 l 715 58 q 595 -232 673 -141 q 380 -323 517 -323 q 257 -309 327 -323 q 291 -166 273 -234 l 300 -163 q 415 -252 378 -252 q 479 -198 453 -252 q 504 -123 492 -171 q 528 -4 515 -76 l 626 545 l 362 545 l 258 44 q 138 -245 216 -155 q -77 -336 60 -336 q -200 -322 -130 -336 q -166 -180 -184 -248 l -157 -177 q -42 -266 -79 -266 q 22 -212 -4 -266 q 46 -137 35 -184 q 71 -18 58 -90 l 172 549 l 72 576 l 74 605 l 184 615 q 333 903 223 798 q 592 1008 444 1008 z "},"&":{"ha":1057,"x_min":45,"x_max":1123,"o":"m 527 491 q 456 497 490 497 q 303 441 355 497 q 252 296 252 385 q 321 133 252 195 q 501 72 390 72 q 693 137 614 72 q 772 312 772 203 q 744 401 772 363 q 673 438 717 438 q 623 418 642 438 q 604 369 604 399 q 643 307 604 331 l 642 302 q 520 256 579 277 q 499 320 499 287 q 583 472 499 406 q 774 538 667 538 q 845 533 812 538 q 906 522 878 528 q 949 512 930 516 q 985 509 968 509 q 1101 574 1034 509 l 1123 559 q 950 366 1054 366 q 829 393 906 366 l 828 391 q 864 271 864 333 q 747 64 864 152 q 461 -23 631 -23 q 162 54 279 -23 q 45 262 45 130 q 118 436 45 363 q 318 526 191 509 l 318 530 q 234 597 264 555 q 204 691 204 639 q 299 873 204 808 q 550 938 394 938 q 744 913 646 938 l 748 908 l 680 709 l 652 704 l 637 859 q 555 873 593 873 q 437 821 480 873 q 394 683 394 769 q 427 590 394 623 q 538 542 459 556 l 527 491 z "},"`":{"ha":570,"x_min":0,"x_max":391,"o":"m 391 708 l 334 708 l 200 964 l 357 964 l 391 708 m 0 640 z "},"̀":{"ha":0,"x_min":-569,"x_max":-178,"o":"m -178 708 l -235 708 l -369 964 l -212 964 l -178 708 m -569 640 z "},"´":{"ha":570,"x_min":0,"x_max":597,"o":"m 422 964 l 597 964 l 374 708 l 317 708 l 422 964 m 0 640 z "},"́":{"ha":0,"x_min":-569,"x_max":28,"o":"m -146 964 l 28 964 l -195 708 l -252 708 l -146 964 m -569 640 z "},"ˆ":{"ha":570,"x_min":0,"x_max":566,"o":"m 566 708 l 506 708 l 385 860 l 216 708 l 153 708 l 332 964 l 468 964 l 566 708 m 0 640 z "},"̂":{"ha":0,"x_min":-569,"x_max":-3,"o":"m -3 708 l -63 708 l -184 860 l -353 708 l -416 708 l -237 964 l -101 964 l -3 708 m -569 640 z "},"ˇ":{"ha":570,"x_min":0,"x_max":606,"o":"m 194 964 l 254 964 l 375 812 l 544 964 l 606 964 l 427 708 l 292 708 l 194 964 m 0 640 z "},"̌":{"ha":0,"x_min":-569,"x_max":37,"o":"m -375 964 l -315 964 l -194 812 l -25 964 l 37 964 l -142 708 l -277 708 l -375 964 m -569 640 z "},"̕":{"ha":119,"x_min":0,"x_max":228,"o":"m 42 684 q 119 832 119 759 q 56 926 119 892 q 81 984 58 963 q 142 1006 104 1006 q 204 979 180 1006 q 228 908 228 952 q 67 656 228 778 l 42 684 m 0 640 z "},"˜":{"ha":570,"x_min":0,"x_max":623,"o":"m 623 900 q 460 751 538 751 q 411 761 433 751 q 361 788 389 772 q 339 801 349 795 q 320 811 330 807 q 303 817 311 815 q 286 819 295 819 q 248 808 265 819 q 189 751 231 796 l 153 781 q 240 894 204 861 q 313 926 275 926 q 353 920 334 926 q 406 892 372 912 q 433 877 422 884 q 454 866 444 871 q 471 860 463 862 q 489 858 479 858 q 527 869 511 858 q 585 926 543 880 l 623 900 m 0 640 z "},"̃":{"ha":0,"x_min":-569,"x_max":54,"o":"m 54 900 q -109 751 -31 751 q -158 761 -136 751 q -208 788 -180 772 q -230 801 -220 795 q -249 811 -239 807 q -266 817 -258 815 q -283 819 -274 819 q -321 808 -304 819 q -380 751 -338 796 l -416 781 q -329 894 -365 861 q -256 926 -294 926 q -216 920 -235 926 q -163 892 -197 912 q -136 877 -147 884 q -115 866 -125 871 q -98 860 -106 862 q -80 858 -90 858 q -42 869 -58 858 q 16 926 -26 880 l 54 900 m -569 640 z "},"¨":{"ha":570,"x_min":0,"x_max":619,"o":"m 337 878 q 311 808 337 834 q 242 782 284 782 q 178 807 203 782 q 153 871 153 831 q 179 940 153 915 q 248 966 205 966 q 312 942 288 966 q 337 878 337 919 m 619 878 q 593 808 619 834 q 524 782 566 782 q 460 807 485 782 q 435 871 435 831 q 461 940 435 915 q 530 966 488 966 q 594 942 570 966 q 619 878 619 919 m 0 640 z "},"̈":{"ha":0,"x_min":-569,"x_max":50,"o":"m -232 878 q -258 808 -232 834 q -327 782 -285 782 q -391 807 -366 782 q -416 871 -416 831 q -390 940 -416 915 q -321 966 -363 966 q -257 942 -281 966 q -232 878 -232 919 m 50 878 q 24 808 50 834 q -45 782 -3 782 q -109 807 -84 782 q -134 871 -134 831 q -108 940 -134 915 q -39 966 -81 966 q 25 942 1 966 q 50 878 50 919 m -569 640 z "},"¯":{"ha":570,"x_min":0,"x_max":591,"o":"m 188 803 l 204 886 l 591 886 l 574 803 l 188 803 m 0 640 z "},"̄":{"ha":0,"x_min":-569,"x_max":22,"o":"m -381 803 l -365 886 l 22 886 l 5 803 l -381 803 m -569 640 z "},"˘":{"ha":570,"x_min":0,"x_max":585,"o":"m 258 949 q 289 852 258 886 q 378 818 319 818 q 473 851 435 818 q 534 944 512 884 l 585 949 q 513 778 571 845 q 362 711 455 711 q 244 757 286 711 q 203 890 203 803 q 207 944 203 915 l 258 949 m 0 640 z "},"̆":{"ha":0,"x_min":-569,"x_max":16,"o":"m -311 949 q -280 852 -311 886 q -191 818 -250 818 q -96 851 -134 818 q -35 944 -57 884 l 16 949 q -56 778 2 845 q -207 711 -114 711 q -325 757 -283 711 q -366 890 -366 803 q -362 944 -366 915 l -311 949 m -569 640 z "},"˚":{"ha":570,"x_min":0,"x_max":543,"o":"m 363 708 q 260 739 298 708 q 222 821 222 769 q 277 931 222 888 q 404 974 332 974 q 502 942 462 974 q 543 859 543 910 q 490 750 543 791 q 363 708 438 708 m 372 755 q 432 783 410 755 q 454 855 454 810 q 438 906 454 886 q 394 926 423 926 q 333 898 355 926 q 311 825 311 869 q 327 775 311 795 q 372 755 343 755 m 0 640 z "},"̊":{"ha":0,"x_min":-569,"x_max":-26,"o":"m -206 708 q -309 739 -271 708 q -347 821 -347 769 q -292 931 -347 888 q -165 974 -237 974 q -67 942 -107 974 q -26 859 -26 910 q -79 750 -26 791 q -206 708 -131 708 m -197 755 q -137 783 -159 755 q -115 855 -115 810 q -131 906 -115 886 q -175 926 -146 926 q -236 898 -214 926 q -258 825 -258 869 q -242 775 -258 795 q -197 755 -226 755 m -569 640 z "},"˝":{"ha":570,"x_min":0,"x_max":685,"o":"m 315 964 l 475 964 l 267 708 l 214 708 l 315 964 m 525 964 l 685 964 l 477 708 l 423 708 l 525 964 m 0 640 z "},"̋":{"ha":0,"x_min":-569,"x_max":116,"o":"m -254 964 l -94 964 l -302 708 l -355 708 l -254 964 m -44 964 l 116 964 l -92 708 l -146 708 l -44 964 m -569 640 z "},"˙":{"ha":570,"x_min":1,"x_max":485,"o":"m 485 884 q 457 810 485 839 q 387 782 429 782 q 318 809 345 782 q 292 878 292 836 q 320 951 292 924 q 391 979 348 979 q 458 954 432 979 q 485 884 485 928 m 1 644 z "},"̇":{"ha":0,"x_min":-568,"x_max":-84,"o":"m -84 884 q -112 810 -84 839 q -182 782 -140 782 q -251 809 -224 782 q -277 878 -277 836 q -249 951 -277 924 q -178 979 -221 979 q -111 954 -137 979 q -84 884 -84 928 m -568 644 z "},"¸":{"ha":570,"x_min":100,"x_max":277,"o":"m 100 -128 l 200 0 l 262 0 l 208 -72 q 277 -163 277 -106 q 134 -335 277 -239 l 109 -307 q 175 -207 175 -253 q 103 -134 175 -158 l 100 -128 z "},"̧":{"ha":0,"x_min":-469,"x_max":-292,"o":"m -469 -128 l -369 0 l -307 0 l -361 -72 q -292 -163 -292 -106 q -435 -335 -292 -239 l -460 -307 q -394 -207 -394 -253 q -466 -134 -394 -158 l -469 -128 z "},"˛":{"ha":570,"x_min":117,"x_max":451,"o":"m 413 2 q 326 -74 359 -23 q 292 -174 292 -125 q 318 -241 292 -217 q 392 -265 345 -265 q 444 -259 414 -265 l 451 -294 q 267 -336 335 -336 q 158 -304 199 -336 q 117 -218 117 -272 q 297 -3 117 -100 l 297 1 l 355 16 l 413 2 z "},"̨":{"ha":0,"x_min":-452,"x_max":-118,"o":"m -156 2 q -243 -74 -210 -23 q -277 -174 -277 -125 q -251 -241 -277 -217 q -177 -265 -224 -265 q -125 -259 -155 -265 l -118 -294 q -302 -336 -234 -336 q -411 -304 -370 -336 q -452 -218 -452 -272 q -272 -3 -452 -100 l -272 1 l -214 16 l -156 2 z "},"̦":{"ha":0,"x_min":-449,"x_max":-275,"o":"m -449 -313 q -375 -201 -375 -256 q -425 -128 -375 -155 q -404 -74 -425 -94 q -351 -54 -383 -54 q -296 -79 -317 -54 q -275 -142 -275 -104 q -425 -340 -275 -249 l -449 -313 z "},"̒":{"ha":0,"x_min":-289,"x_max":0,"o":"m -115 964 q -189 852 -189 907 q -140 779 -189 806 q -160 725 -140 745 q -213 705 -181 705 q -268 730 -247 705 q -289 793 -289 755 q -140 991 -289 900 l -115 964 m 0 644 z "},",":{"ha":397,"x_min":-46,"x_max":229,"o":"m -46 -183 q 92 12 92 -87 q 16 123 92 82 q 52 198 20 170 q 125 226 83 226 q 200 194 172 226 q 229 107 229 162 q -16 -223 229 -68 l -46 -183 z "},";":{"ha":355,"x_min":12,"x_max":359,"o":"m 256 636 q 330 607 300 636 q 359 531 359 578 q 330 454 359 484 q 256 425 300 425 q 180 454 209 425 q 151 531 151 484 q 180 607 151 578 q 256 636 209 636 m 12 -183 q 149 12 149 -87 q 74 123 149 82 q 109 198 77 170 q 183 226 141 226 q 258 194 230 226 q 286 107 286 162 q 41 -223 286 -68 l 12 -183 z "},":":{"ha":397,"x_min":66,"x_max":359,"o":"m 171 193 q 245 164 216 193 q 274 88 274 136 q 245 12 274 41 q 171 -18 216 -18 q 95 12 124 -18 q 66 88 66 41 q 95 164 66 136 q 171 193 124 193 m 256 636 q 330 607 300 636 q 359 531 359 578 q 330 454 359 484 q 256 425 300 425 q 180 454 209 425 q 151 531 151 484 q 180 607 151 578 q 256 636 209 636 z "},".":{"ha":397,"x_min":53,"x_max":260,"o":"m 157 193 q 231 164 202 193 q 260 88 260 136 q 231 12 260 41 q 157 -18 202 -18 q 82 12 111 -18 q 53 88 53 41 q 82 164 53 136 q 157 193 111 193 z "},"…":{"ha":1044,"x_min":53,"x_max":955,"o":"m 157 193 q 231 164 202 193 q 260 88 260 136 q 231 12 260 41 q 157 -18 202 -18 q 82 12 111 -18 q 53 88 53 41 q 82 164 53 136 q 157 193 111 193 m 505 193 q 578 164 549 193 q 608 88 608 136 q 578 12 608 41 q 505 -18 549 -18 q 429 12 458 -18 q 400 88 400 41 q 429 164 400 136 q 505 193 458 193 m 852 193 q 926 164 897 193 q 955 88 955 136 q 926 12 955 41 q 852 -18 897 -18 q 776 12 805 -18 q 747 88 747 41 q 776 164 747 136 q 852 193 805 193 z "},"-":{"ha":462,"x_min":43,"x_max":413,"o":"m 63 387 l 413 387 l 393 288 l 43 288 l 63 387 z "},"!":{"ha":423,"x_min":83,"x_max":454,"o":"m 182 282 l 236 920 l 449 928 l 454 922 l 236 285 l 182 282 m 186 187 q 258 159 230 187 q 287 85 287 131 q 257 11 287 39 q 184 -18 227 -18 q 111 11 138 -18 q 83 85 83 39 q 112 159 83 131 q 186 187 141 187 z "},"¡":{"ha":382,"x_min":-52,"x_max":321,"o":"m 221 347 l 166 -298 l -47 -306 l -52 -300 l 168 345 l 221 347 m 217 442 q 145 470 174 442 q 117 545 117 498 q 146 619 117 590 q 220 648 176 648 q 293 619 265 648 q 321 545 321 590 q 292 470 321 498 q 217 442 262 442 z "},"?":{"ha":631,"x_min":151,"x_max":663,"o":"m 193 903 q 425 943 328 943 q 598 894 532 943 q 663 764 663 845 q 648 683 663 720 q 605 616 632 647 q 543 557 578 585 q 471 500 509 529 q 408 453 435 474 q 362 414 381 433 q 334 378 344 395 q 324 340 324 360 q 341 286 324 315 l 307 264 q 232 349 265 299 q 199 434 199 399 q 209 477 199 457 q 237 517 219 497 q 282 559 256 538 q 344 605 309 580 q 405 649 376 629 q 456 690 434 669 q 489 735 477 711 q 501 791 501 759 q 473 856 501 831 q 401 880 444 880 q 300 861 349 880 l 231 706 l 197 701 l 187 898 l 193 903 m 254 187 q 326 159 298 187 q 355 85 355 131 q 325 11 355 39 q 252 -18 295 -18 q 178 11 206 -18 q 151 85 151 39 q 180 159 151 131 q 254 187 209 187 z "},"¿":{"ha":621,"x_min":-33,"x_max":479,"o":"m 437 -274 q 205 -314 302 -314 q 32 -265 98 -314 q -33 -134 -33 -216 q -18 -54 -33 -90 q 25 13 -2 -18 q 87 72 52 44 q 159 129 121 100 q 222 176 195 155 q 268 215 249 197 q 296 252 286 234 q 306 289 306 269 q 289 343 306 315 l 323 365 q 398 280 365 330 q 431 195 431 230 q 421 152 431 172 q 393 112 411 132 q 348 71 374 92 q 286 24 321 50 q 225 -19 254 1 q 174 -60 196 -39 q 141 -105 153 -81 q 129 -162 129 -130 q 157 -226 129 -202 q 229 -250 186 -250 q 330 -232 281 -250 l 399 -77 l 433 -72 l 443 -269 l 437 -274 m 376 442 q 304 470 332 442 q 275 545 275 498 q 305 619 275 590 q 378 648 335 648 q 452 619 424 648 q 479 545 479 590 q 450 470 479 498 q 376 442 421 442 z "},"‘":{"ha":306,"x_min":134,"x_max":377,"o":"m 377 997 q 257 824 257 913 q 319 724 257 762 q 289 659 315 684 q 224 633 262 633 q 159 662 184 633 q 134 739 134 690 q 351 1034 134 898 l 377 997 z "},"’":{"ha":306,"x_min":118,"x_max":361,"o":"m 118 659 q 238 831 238 743 q 176 931 238 894 q 206 997 180 972 q 271 1022 233 1022 q 336 994 311 1022 q 361 916 361 965 q 144 621 361 758 l 118 659 z "},"“":{"ha":543,"x_min":127,"x_max":621,"o":"m 371 997 q 251 824 251 913 q 313 724 251 762 q 283 659 309 684 q 218 633 256 633 q 153 662 178 633 q 127 739 127 690 q 345 1034 127 898 l 371 997 m 621 997 q 501 824 501 913 q 563 724 501 762 q 533 659 559 684 q 469 633 507 633 q 403 662 429 633 q 378 739 378 690 q 595 1034 378 898 l 621 997 z "},"”":{"ha":543,"x_min":112,"x_max":606,"o":"m 112 659 q 232 831 232 743 q 170 931 232 894 q 200 997 174 972 q 264 1022 227 1022 q 330 994 304 1022 q 355 916 355 965 q 138 621 355 758 l 112 659 m 362 659 q 482 831 482 743 q 420 931 482 894 q 450 997 424 972 q 515 1022 477 1022 q 580 994 555 1022 q 606 916 606 965 q 388 621 606 758 l 362 659 z "},"‚":{"ha":333,"x_min":-24,"x_max":220,"o":"m -24 -195 q 96 -22 96 -111 q 35 77 96 40 q 64 143 38 118 q 129 168 91 168 q 194 140 169 168 q 220 62 220 111 q 2 -233 220 -96 l -24 -195 z "},"„":{"ha":574,"x_min":-31,"x_max":463,"o":"m -31 -202 q 90 -29 90 -118 q 28 71 90 33 q 58 136 31 111 q 122 161 84 161 q 188 133 162 161 q 213 56 213 104 q -5 -239 213 -103 l -31 -202 m 220 -202 q 340 -29 340 -118 q 278 71 340 33 q 308 136 281 111 q 372 161 334 161 q 438 133 412 161 q 463 56 463 104 q 245 -239 463 -103 l 220 -202 z "},"‹":{"ha":423,"x_min":61,"x_max":385,"o":"m 292 41 q 61 306 177 202 l 61 331 q 349 596 203 437 l 385 576 q 214 321 325 456 q 328 60 285 189 l 292 41 z "},"›":{"ha":423,"x_min":39,"x_max":362,"o":"m 132 596 q 362 332 246 435 l 362 307 q 75 41 220 200 l 39 61 q 209 317 98 181 q 95 577 138 448 l 132 596 z "},"«":{"ha":708,"x_min":61,"x_max":669,"o":"m 292 41 q 61 306 177 202 l 61 331 q 349 596 203 437 l 385 576 q 214 321 325 456 q 328 60 285 189 l 292 41 m 576 41 q 346 306 462 202 l 346 331 q 633 596 488 437 l 669 576 q 499 321 610 456 q 613 60 570 189 l 576 41 z "},"»":{"ha":708,"x_min":39,"x_max":647,"o":"m 132 596 q 362 332 246 435 l 362 307 q 75 41 220 200 l 39 61 q 209 317 98 181 q 95 577 138 448 l 132 596 m 416 596 q 647 332 531 435 l 647 307 q 359 41 505 200 l 323 61 q 494 317 383 181 q 380 577 423 448 l 416 596 z "},"/":{"ha":559,"x_min":41,"x_max":543,"o":"m 41 -153 l 451 967 l 543 967 l 136 -153 l 41 -153 z "},"|":{"ha":490,"x_min":217,"x_max":313,"o":"m 313 1034 l 313 -345 l 217 -345 l 217 1034 l 313 1034 z "},"–":{"ha":694,"x_min":39,"x_max":657,"o":"m 58 380 l 657 380 l 639 294 l 39 294 l 58 380 z "},"—":{"ha":1389,"x_min":39,"x_max":1352,"o":"m 58 380 l 1352 380 l 1333 294 l 39 294 l 58 380 z "},"―":{"ha":1426,"x_min":17,"x_max":1414,"o":"m 35 380 l 1414 380 l 1396 294 l 17 294 l 35 380 z "},"•":{"ha":435,"x_min":95,"x_max":395,"o":"m 246 644 q 353 603 311 644 q 395 496 395 562 q 353 389 395 431 q 246 347 311 347 q 136 389 178 347 q 95 496 95 431 q 136 603 95 562 q 246 644 178 644 z "},"·":{"ha":383,"x_min":88,"x_max":296,"o":"m 193 448 q 267 419 237 448 q 296 342 296 390 q 267 266 296 296 q 193 236 237 236 q 117 266 146 236 q 88 342 88 296 q 117 419 88 390 q 193 448 146 448 z "},"(":{"ha":534,"x_min":85,"x_max":606,"o":"m 309 -257 q 85 264 85 -36 q 581 1067 85 743 l 606 1040 q 229 227 229 699 q 346 -230 230 -52 l 309 -257 z "},")":{"ha":536,"x_min":-39,"x_max":482,"o":"m 258 1067 q 482 546 482 846 q -14 -257 482 66 l -39 -230 q 338 583 338 111 q 221 1040 337 862 l 258 1067 z "},"[":{"ha":494,"x_min":26,"x_max":579,"o":"m 162 -168 l 321 -207 l 315 -241 l 26 -241 l 291 1050 l 579 1050 l 574 1016 l 397 977 l 162 -168 z "},"]":{"ha":494,"x_min":-54,"x_max":500,"o":"m 364 977 l 205 1016 l 210 1050 l 500 1050 l 235 -241 l -54 -241 l -47 -207 l 130 -168 l 364 977 z "},"{":{"ha":490,"x_min":73,"x_max":583,"o":"m 77 420 q 136 436 111 427 q 177 461 160 445 q 205 502 194 477 q 224 564 216 526 l 286 863 q 320 958 297 920 q 379 1018 343 996 q 466 1048 415 1040 q 583 1057 516 1057 l 576 1021 q 498 997 527 1010 q 454 963 470 983 q 430 915 437 943 q 414 848 422 887 l 370 628 q 348 549 361 585 q 315 486 336 513 q 262 438 294 458 q 186 406 231 418 l 184 402 q 233 381 213 393 q 265 354 253 370 q 283 318 277 338 q 288 271 288 297 q 286 229 288 252 q 277 180 283 206 l 233 -39 q 223 -85 227 -64 q 220 -122 220 -105 q 224 -153 220 -139 q 241 -177 229 -166 q 273 -196 253 -187 q 323 -211 293 -204 l 317 -248 q 223 -242 265 -247 q 152 -223 181 -237 q 106 -183 122 -209 q 90 -113 90 -157 q 97 -54 90 -85 l 159 247 q 165 303 165 278 q 159 340 165 326 q 140 365 153 355 q 111 380 128 374 q 73 391 94 387 l 77 420 z "},"}":{"ha":490,"x_min":-60,"x_max":451,"o":"m 447 390 q 388 374 412 383 q 347 349 363 365 q 319 308 330 333 q 300 245 308 283 l 238 -54 q 203 -148 227 -111 q 144 -208 180 -186 q 58 -239 109 -230 q -60 -248 7 -248 l -53 -211 q 25 -187 -3 -201 q 70 -153 54 -173 q 94 -105 86 -133 q 109 -39 101 -77 l 154 182 q 175 260 163 224 q 209 324 188 296 q 261 372 230 352 q 338 404 292 392 l 339 408 q 291 428 311 416 q 258 456 271 440 q 241 492 246 471 q 235 539 235 513 q 238 581 235 558 q 246 629 241 604 l 291 848 q 300 895 296 874 q 304 932 304 915 q 299 962 304 949 q 282 986 294 976 q 251 1005 271 997 q 201 1021 231 1014 l 207 1057 q 300 1052 258 1057 q 372 1033 342 1047 q 417 992 401 1019 q 433 923 433 966 q 427 863 433 895 l 365 563 q 358 507 358 532 q 365 470 358 484 q 383 445 371 455 q 413 429 395 435 q 451 418 430 423 l 447 390 z "},"*":{"ha":612,"x_min":177,"x_max":650,"o":"m 650 704 l 434 725 l 547 547 l 444 500 l 397 710 l 264 548 l 185 630 l 373 740 l 177 817 l 231 918 l 393 773 l 406 983 l 518 962 l 431 764 l 635 816 l 650 704 z "},"†":{"ha":768,"x_min":83,"x_max":772,"o":"m 596 955 l 473 583 l 772 583 l 755 505 l 457 505 l 463 353 l 281 -321 l 218 -323 l 313 353 l 381 505 l 83 505 l 99 583 l 397 583 l 427 952 l 593 960 l 596 955 z "},"‡":{"ha":836,"x_min":20,"x_max":818,"o":"m 209 -276 l 319 35 l 20 35 l 37 113 l 335 113 l 345 339 l 428 566 l 130 566 l 145 644 l 444 644 l 460 952 l 627 960 l 630 955 l 519 644 l 818 644 l 802 566 l 504 566 l 494 340 l 411 113 l 709 113 l 693 35 l 395 35 l 378 -273 l 212 -281 l 209 -276 z "},"§":{"ha":794,"x_min":10,"x_max":751,"o":"m 570 66 q 578 1 578 37 q 489 -169 578 -107 q 250 -231 400 -231 q 14 -202 149 -231 l 10 -197 l 83 56 l 129 62 l 146 -149 q 262 -168 215 -168 q 374 -139 332 -168 q 416 -54 416 -110 q 402 5 416 -22 q 365 60 388 33 q 312 112 342 86 q 250 165 282 138 q 188 218 220 191 q 129 276 156 245 q 84 344 102 307 q 66 427 66 381 q 190 667 66 507 q 182 732 182 699 q 272 903 182 842 q 511 965 362 965 q 747 939 623 965 l 751 935 l 673 709 l 634 703 l 612 886 q 499 902 554 902 q 387 873 429 902 q 345 788 345 844 q 359 728 345 756 q 396 674 373 701 q 449 622 419 648 q 511 568 479 596 q 572 516 540 543 q 632 458 605 489 q 677 390 659 427 q 694 307 694 353 q 570 66 694 227 m 536 144 q 555 201 555 174 q 545 254 555 230 q 518 303 536 279 q 474 353 501 328 q 410 410 447 379 q 300 504 347 462 q 224 589 254 545 q 207 533 207 561 q 214 484 207 506 q 238 437 222 461 q 282 386 254 413 q 351 324 309 359 q 460 230 412 272 q 536 144 507 188 z "},"¶":{"ha":848,"x_min":78,"x_max":892,"o":"m 668 883 l 608 885 l 479 321 q 439 319 457 319 q 179 408 279 319 q 78 639 78 497 q 182 866 78 781 q 460 952 286 952 q 593 949 499 952 q 719 947 687 947 q 892 949 821 947 l 889 915 l 779 890 q 759 883 766 887 q 746 865 751 878 q 737 826 741 852 q 725 753 732 800 l 667 387 q 637 211 652 292 q 600 62 621 129 q 550 -57 579 -5 q 481 -144 522 -109 q 385 -198 440 -180 q 254 -216 329 -216 q 113 -202 197 -216 q 143 -41 124 -117 l 149 -39 q 334 -141 281 -141 q 380 -132 360 -141 q 417 -100 400 -123 q 448 -38 433 -77 q 479 59 463 1 q 514 198 496 117 q 557 385 533 279 l 668 883 z "},"Α":{"ha":927,"x_min":-99,"x_max":890,"o":"m 220 34 l 214 -2 q 45 0 121 0 q -99 -2 -31 0 l -95 33 l -20 54 q 31 86 13 65 q 62 130 49 107 l 549 952 l 624 964 l 766 140 q 774 101 770 117 q 784 76 779 85 q 819 52 795 58 l 890 33 l 886 -2 q 677 0 775 0 q 463 -2 581 0 l 467 33 l 532 52 q 556 64 547 56 q 565 93 565 71 q 555 174 565 114 l 534 300 l 253 300 l 182 176 q 146 111 160 138 q 133 73 133 85 q 156 52 133 60 l 220 34 m 292 370 l 523 370 l 483 620 l 474 692 l 435 621 l 292 370 z "},"Β":{"ha":882,"x_min":3,"x_max":862,"o":"m 176 949 q 385 947 292 947 q 472 950 414 947 q 555 954 531 954 q 784 901 707 954 q 862 760 862 849 q 621 513 862 561 q 823 302 823 458 q 704 76 823 155 q 389 -4 585 -4 q 309 -2 353 -4 q 199 0 264 0 q 3 -2 113 0 l 6 33 l 98 58 q 121 79 116 63 q 133 139 126 106 q 148 214 140 173 l 251 753 q 262 815 258 787 q 271 865 267 843 q 259 888 274 882 l 170 915 l 176 949 m 397 471 l 320 67 q 399 58 350 58 q 553 117 498 58 q 607 290 607 176 q 568 427 607 379 q 454 474 528 474 q 397 471 422 474 m 410 534 q 460 532 433 532 q 606 584 557 532 q 655 741 655 636 q 621 851 655 812 q 519 889 587 889 q 476 886 498 889 l 410 534 z "},"Γ":{"ha":785,"x_min":2,"x_max":860,"o":"m 349 214 q 334 140 340 173 q 324 79 328 106 q 343 56 322 62 l 433 33 l 427 -2 q 206 0 305 0 q 2 -2 98 0 l 6 33 l 98 58 q 121 79 116 62 q 133 139 126 106 q 148 214 140 173 l 251 753 q 262 815 258 787 q 271 865 267 843 q 259 888 274 883 l 170 915 l 175 949 q 385 947 278 947 l 512 947 q 857 949 674 947 l 860 944 l 770 684 l 732 679 l 709 878 l 476 878 l 349 214 z "},"Δ":{"ha":900,"x_min":-9,"x_max":771,"o":"m 610 964 l 771 32 l 767 -2 q 585 0 678 0 l 168 0 q -5 -2 75 0 l -9 32 l 536 952 l 610 964 m 549 138 l 469 620 l 460 692 l 422 621 l 144 138 l 549 138 z "},"Ε":{"ha":829,"x_min":2,"x_max":865,"o":"m 385 947 l 517 947 q 862 949 680 947 l 865 944 l 787 718 l 749 713 l 730 878 l 476 878 l 408 517 l 437 517 q 572 517 486 517 q 599 536 591 518 l 641 629 l 683 630 q 627 341 649 482 l 585 338 l 577 432 q 560 450 576 450 q 422 452 500 452 l 394 452 l 350 220 q 323 70 336 144 l 600 70 l 713 250 l 756 256 l 698 3 l 692 -2 q 351 0 511 0 l 200 0 q 2 -2 98 0 l 6 33 l 98 58 q 121 79 116 62 q 133 139 126 106 q 148 214 140 173 l 251 753 q 262 815 258 787 q 271 865 267 843 q 259 888 274 883 l 170 915 l 175 949 q 385 947 278 947 z "},"Ζ":{"ha":833,"x_min":-15,"x_max":892,"o":"m -15 -2 l -12 32 l 631 878 l 292 878 l 218 713 l 179 708 l 183 944 l 189 949 q 511 947 361 947 l 683 947 q 892 949 793 947 l 888 915 l 245 70 l 608 70 l 734 268 l 775 274 l 711 3 l 707 -2 q 352 0 501 0 l 163 0 q -15 -2 68 0 z "},"Η":{"ha":1149,"x_min":3,"x_max":1211,"o":"m 397 465 l 349 214 q 326 79 334 134 q 339 56 323 61 l 418 33 l 412 -2 q 215 0 304 0 q 3 -2 115 0 l 7 33 l 98 58 q 121 79 118 63 q 149 213 134 133 l 251 752 q 271 865 264 820 q 259 888 274 883 l 170 915 l 176 949 q 392 947 295 947 q 590 949 484 947 l 586 914 l 498 890 q 476 869 480 886 q 452 755 465 821 l 411 537 l 819 537 l 861 755 q 882 870 873 821 q 868 891 884 887 l 789 915 l 795 949 q 996 947 905 947 q 1211 949 1095 947 l 1206 915 l 1105 888 q 1084 865 1088 883 q 1061 753 1074 821 l 959 214 q 935 79 945 134 q 949 58 933 63 l 1036 33 l 1030 -2 q 812 0 909 0 q 618 -2 720 0 l 623 33 l 709 56 q 731 79 727 61 q 758 214 743 134 l 806 465 l 397 465 z "},"Θ":{"ha":1149,"x_min":79,"x_max":1116,"o":"m 523 -24 q 200 82 322 -24 q 79 375 79 188 q 249 797 79 625 q 671 968 419 968 q 994 863 872 968 q 1116 570 1116 758 q 946 147 1116 318 q 523 -24 776 -24 m 904 593 q 836 822 904 739 q 653 905 768 905 q 388 748 486 905 q 290 353 290 591 q 357 123 290 208 q 541 39 424 39 q 806 196 709 39 q 904 593 904 352 m 584 413 q 464 412 533 413 q 438 394 446 411 l 413 334 l 370 333 q 427 633 403 486 l 468 636 l 472 580 q 489 561 473 562 q 611 559 559 559 q 731 561 661 559 q 758 579 749 562 l 782 633 l 824 635 q 767 336 791 486 l 726 332 l 723 393 q 705 412 721 411 q 584 413 635 413 z "},"Ι":{"ha":540,"x_min":3,"x_max":595,"o":"m 349 214 q 334 140 340 173 q 324 79 328 106 q 343 56 322 62 l 426 33 l 420 -2 q 212 0 305 0 q 3 -2 111 0 l 6 33 l 98 58 q 121 79 117 63 q 133 139 127 105 q 148 214 140 173 l 252 753 q 263 815 258 787 q 271 865 268 843 q 260 888 275 884 l 171 915 l 177 949 q 288 947 235 948 q 389 947 340 947 q 489 947 438 947 q 595 949 540 948 l 590 915 l 497 890 q 476 869 480 886 q 465 817 470 845 q 452 755 459 789 l 349 214 z "},"Κ":{"ha":1032,"x_min":3,"x_max":1080,"o":"m 412 475 l 741 779 q 808 846 786 821 q 829 884 829 871 q 815 898 829 894 l 762 913 l 767 949 q 922 947 838 947 q 1080 949 1008 947 l 1076 915 l 1006 893 q 951 868 977 884 q 884 812 925 851 l 594 541 l 823 130 q 862 74 844 92 q 910 47 879 56 l 963 33 l 958 -2 q 793 0 878 0 q 665 -1 730 0 q 635 68 658 23 q 575 182 613 114 l 412 475 m 349 214 q 334 140 340 173 q 324 79 328 106 q 343 56 322 62 l 419 33 l 414 -2 q 212 0 304 0 q 3 -2 111 0 l 6 33 l 98 58 q 121 79 117 62 q 133 139 127 105 q 148 214 140 173 l 252 753 q 263 815 258 787 q 271 865 268 843 q 260 888 274 884 l 171 915 l 177 949 q 389 947 286 947 q 588 949 492 947 l 583 915 l 497 890 q 476 869 480 886 q 465 817 470 845 q 452 755 459 789 l 349 214 z "},"Λ":{"ha":922,"x_min":-98,"x_max":884,"o":"m 481 620 l 473 692 l 434 621 l 182 176 q 147 111 161 138 q 134 73 134 85 q 157 52 134 59 l 220 34 l 214 -2 q 46 0 121 0 q -98 -2 -31 0 l -94 33 l -28 51 q 7 65 -7 56 q 31 84 21 74 q 49 106 41 95 q 63 130 56 118 l 548 952 l 623 964 l 760 140 q 768 101 764 117 q 778 76 772 85 q 812 52 790 58 l 884 33 l 880 -2 q 671 0 768 0 q 457 -2 575 0 l 460 33 l 526 52 q 550 63 541 56 q 559 93 559 71 q 549 174 559 114 l 481 620 z "}}}
